%TF.GenerationSoftware,KiCad,Pcbnew,8.0.1*%
%TF.CreationDate,2024-10-06T15:48:25+02:00*%
%TF.ProjectId,CREPP.io,43524550-502e-4696-9f2e-6b696361645f,rev?*%
%TF.SameCoordinates,Original*%
%TF.FileFunction,Paste,Top*%
%TF.FilePolarity,Positive*%
%FSLAX46Y46*%
G04 Gerber Fmt 4.6, Leading zero omitted, Abs format (unit mm)*
G04 Created by KiCad (PCBNEW 8.0.1) date 2024-10-06 15:48:25*
%MOMM*%
%LPD*%
G01*
G04 APERTURE LIST*
G04 Aperture macros list*
%AMRoundRect*
0 Rectangle with rounded corners*
0 $1 Rounding radius*
0 $2 $3 $4 $5 $6 $7 $8 $9 X,Y pos of 4 corners*
0 Add a 4 corners polygon primitive as box body*
4,1,4,$2,$3,$4,$5,$6,$7,$8,$9,$2,$3,0*
0 Add four circle primitives for the rounded corners*
1,1,$1+$1,$2,$3*
1,1,$1+$1,$4,$5*
1,1,$1+$1,$6,$7*
1,1,$1+$1,$8,$9*
0 Add four rect primitives between the rounded corners*
20,1,$1+$1,$2,$3,$4,$5,0*
20,1,$1+$1,$4,$5,$6,$7,0*
20,1,$1+$1,$6,$7,$8,$9,0*
20,1,$1+$1,$8,$9,$2,$3,0*%
G04 Aperture macros list end*
%ADD10R,0.250000X1.100000*%
%ADD11RoundRect,0.225000X-0.250000X0.225000X-0.250000X-0.225000X0.250000X-0.225000X0.250000X0.225000X0*%
%ADD12C,0.050000*%
%ADD13C,0.150000*%
%ADD14C,0.200000*%
%ADD15C,0.100000*%
%ADD16C,0.120000*%
%ADD17C,0.060000*%
%TA.AperFunction,Profile*%
%ADD18C,0.200000*%
%TD*%
G04 APERTURE END LIST*
D10*
%TO.C,U1*%
X96348800Y-153568400D03*
X96848800Y-153568400D03*
X97348800Y-153568400D03*
X97848800Y-153568400D03*
X98348800Y-153568400D03*
X98348800Y-149268400D03*
X97848800Y-149268400D03*
X97348800Y-149268400D03*
X96848800Y-149268400D03*
X96348800Y-149268400D03*
%TD*%
D11*
%TO.C,C1*%
X94284800Y-152018400D03*
X94284800Y-153568400D03*
%TD*%
D12*
%TO.C,R7*%
X120920800Y-111682400D02*
X120920800Y-114682400D01*
X120920800Y-114682400D02*
X130640800Y-114682400D01*
X130640800Y-111682400D02*
X120920800Y-111682400D01*
X130640800Y-114682400D02*
X130640800Y-111682400D01*
%TO.C,J25*%
X55933800Y-56035400D02*
X59483800Y-56035400D01*
X55933800Y-72285400D02*
X55933800Y-56035400D01*
X59483800Y-56035400D02*
X59483800Y-72285400D01*
X59483800Y-72285400D02*
X55933800Y-72285400D01*
%TO.C,RV1*%
X38912800Y-75200400D02*
X38912800Y-93600400D01*
X38912800Y-93600400D02*
X64912800Y-93600400D01*
X64912800Y-75200400D02*
X38912800Y-75200400D01*
X64912800Y-93600400D02*
X64912800Y-75200400D01*
%TO.C,J30*%
X120424800Y-67201400D02*
X120424800Y-75851400D01*
X120424800Y-75851400D02*
X124024800Y-75851400D01*
X124024800Y-67201400D02*
X120424800Y-67201400D01*
X124024800Y-75851400D02*
X124024800Y-67201400D01*
%TO.C,D3*%
X132710800Y-114504400D02*
X132710800Y-121004400D01*
X132710800Y-121004400D02*
X139160800Y-121004400D01*
X139160800Y-114504400D02*
X132710800Y-114504400D01*
X139160800Y-121004400D02*
X139160800Y-114504400D01*
%TO.C,SW4*%
X88772800Y-71586400D02*
X89022800Y-71586400D01*
X88772800Y-71836400D02*
X88772800Y-71586400D01*
X88772800Y-78836400D02*
X88772800Y-71836400D01*
X88772800Y-78836400D02*
X88772800Y-79086400D01*
X88772800Y-79086400D02*
X89022800Y-79086400D01*
X89022800Y-71586400D02*
X98022800Y-71586400D01*
X98022800Y-71586400D02*
X98272800Y-71586400D01*
X98022800Y-79086400D02*
X89022800Y-79086400D01*
X98022800Y-79086400D02*
X98272800Y-79086400D01*
X98272800Y-71586400D02*
X98272800Y-71836400D01*
X98272800Y-71836400D02*
X98272800Y-78836400D01*
X98272800Y-79086400D02*
X98272800Y-78836400D01*
%TO.C,J4*%
X60520800Y-106870400D02*
X66620800Y-106870400D01*
X60520800Y-145970400D02*
X60520800Y-106870400D01*
X66620800Y-106870400D02*
X66620800Y-145970400D01*
X66620800Y-145970400D02*
X60520800Y-145970400D01*
%TO.C,R27*%
X77740800Y-88187400D02*
X77740800Y-91187400D01*
X77740800Y-91187400D02*
X87460800Y-91187400D01*
X87460800Y-88187400D02*
X77740800Y-88187400D01*
X87460800Y-91187400D02*
X87460800Y-88187400D01*
%TO.C,J16*%
X103152800Y-48380400D02*
X103152800Y-54530400D01*
X103152800Y-54530400D02*
X111802800Y-54530400D01*
X111802800Y-48380400D02*
X103152800Y-48380400D01*
X111802800Y-54530400D02*
X111802800Y-48380400D01*
%TO.C,J22*%
X119418800Y-38001400D02*
X130618800Y-38001400D01*
X119418800Y-41551400D02*
X119418800Y-38001400D01*
X130618800Y-38001400D02*
X130618800Y-41551400D01*
X130618800Y-41551400D02*
X119418800Y-41551400D01*
%TO.C,J6*%
X93236800Y-106820400D02*
X93236800Y-145970400D01*
X93236800Y-145970400D02*
X99386800Y-145970400D01*
X99386800Y-106820400D02*
X93236800Y-106820400D01*
X99386800Y-145970400D02*
X99386800Y-106820400D01*
%TO.C,H1*%
X145740800Y-45872400D02*
G75*
G02*
X138840800Y-45872400I-3450000J0D01*
G01*
X138840800Y-45872400D02*
G75*
G02*
X145740800Y-45872400I3450000J0D01*
G01*
%TO.C,J7*%
X53104800Y-106820400D02*
X53104800Y-145970400D01*
X53104800Y-145970400D02*
X59254800Y-145970400D01*
X59254800Y-106820400D02*
X53104800Y-106820400D01*
X59254800Y-145970400D02*
X59254800Y-106820400D01*
%TO.C,H4*%
X145994800Y-166268400D02*
G75*
G02*
X139094800Y-166268400I-3450000J0D01*
G01*
X139094800Y-166268400D02*
G75*
G02*
X145994800Y-166268400I3450000J0D01*
G01*
%TO.C,H2*%
X55062800Y-39268400D02*
G75*
G02*
X48162800Y-39268400I-3450000J0D01*
G01*
X48162800Y-39268400D02*
G75*
G02*
X55062800Y-39268400I3450000J0D01*
G01*
%TO.C,JP7*%
X77625800Y-91443400D02*
X77625800Y-95043400D01*
X77625800Y-95043400D02*
X83775800Y-95043400D01*
X83775800Y-91443400D02*
X77625800Y-91443400D01*
X83775800Y-95043400D02*
X83775800Y-91443400D01*
%TO.C,J33*%
X128960800Y-66748400D02*
X128960800Y-77748400D01*
X128960800Y-77748400D02*
X139770800Y-77748400D01*
X139770800Y-66748400D02*
X128960800Y-66748400D01*
X139770800Y-77748400D02*
X139770800Y-66748400D01*
%TO.C,SW2*%
X88772800Y-55838400D02*
X89022800Y-55838400D01*
X88772800Y-56088400D02*
X88772800Y-55838400D01*
X88772800Y-63088400D02*
X88772800Y-56088400D01*
X88772800Y-63088400D02*
X88772800Y-63338400D01*
X88772800Y-63338400D02*
X89022800Y-63338400D01*
X89022800Y-55838400D02*
X98022800Y-55838400D01*
X98022800Y-55838400D02*
X98272800Y-55838400D01*
X98022800Y-63338400D02*
X89022800Y-63338400D01*
X98022800Y-63338400D02*
X98272800Y-63338400D01*
X98272800Y-55838400D02*
X98272800Y-56088400D01*
X98272800Y-56088400D02*
X98272800Y-63088400D01*
X98272800Y-63338400D02*
X98272800Y-63088400D01*
%TO.C,R1*%
X75454800Y-133272400D02*
X75454800Y-136272400D01*
X75454800Y-136272400D02*
X85174800Y-136272400D01*
X85174800Y-133272400D02*
X75454800Y-133272400D01*
X85174800Y-136272400D02*
X85174800Y-133272400D01*
%TO.C,J23*%
X94643800Y-36883400D02*
X105843800Y-36883400D01*
X94643800Y-40433400D02*
X94643800Y-36883400D01*
X105843800Y-36883400D02*
X105843800Y-40433400D01*
X105843800Y-40433400D02*
X94643800Y-40433400D01*
%TO.C,T1*%
X89474800Y-152568400D02*
X89474800Y-154568400D01*
X89474800Y-152568400D02*
X91474800Y-152568400D01*
X91474800Y-154568400D02*
X89474800Y-154568400D01*
X91474800Y-154568400D02*
X91474800Y-152568400D01*
%TO.C,D1*%
X132710800Y-101296400D02*
X132710800Y-107796400D01*
X132710800Y-107796400D02*
X139160800Y-107796400D01*
X139160800Y-101296400D02*
X132710800Y-101296400D01*
X139160800Y-107796400D02*
X139160800Y-101296400D01*
%TO.C,U2*%
X117690800Y-93312400D02*
X117690800Y-98962400D01*
X117690800Y-98962400D02*
X127490800Y-98962400D01*
X127490800Y-93312400D02*
X117690800Y-93312400D01*
X127490800Y-98962400D02*
X127490800Y-93312400D01*
%TO.C,J35*%
X49304800Y-119774400D02*
X49304800Y-130974400D01*
X49304800Y-130974400D02*
X52904800Y-130974400D01*
X52904800Y-119774400D02*
X49304800Y-119774400D01*
X52904800Y-130974400D02*
X52904800Y-119774400D01*
%TO.C,J5*%
X85920800Y-106870400D02*
X92020800Y-106870400D01*
X85920800Y-145970400D02*
X85920800Y-106870400D01*
X92020800Y-106870400D02*
X92020800Y-145970400D01*
X92020800Y-145970400D02*
X85920800Y-145970400D01*
%TO.C,SW3*%
X98730800Y-63676400D02*
X98980800Y-63676400D01*
X98730800Y-63926400D02*
X98730800Y-63676400D01*
X98730800Y-70926400D02*
X98730800Y-63926400D01*
X98730800Y-70926400D02*
X98730800Y-71176400D01*
X98730800Y-71176400D02*
X98980800Y-71176400D01*
X98980800Y-63676400D02*
X107980800Y-63676400D01*
X107980800Y-63676400D02*
X108230800Y-63676400D01*
X107980800Y-71176400D02*
X98980800Y-71176400D01*
X107980800Y-71176400D02*
X108230800Y-71176400D01*
X108230800Y-63676400D02*
X108230800Y-63926400D01*
X108230800Y-63926400D02*
X108230800Y-70926400D01*
X108230800Y-71176400D02*
X108230800Y-70926400D01*
%TO.C,D12*%
X71984800Y-78456400D02*
X71984800Y-84906400D01*
X71984800Y-84906400D02*
X78484800Y-84906400D01*
X78484800Y-78456400D02*
X71984800Y-78456400D01*
X78484800Y-84906400D02*
X78484800Y-78456400D01*
%TO.C,D5*%
X125450800Y-81552400D02*
X125450800Y-91472400D01*
X125450800Y-91472400D02*
X128650800Y-91472400D01*
X128650800Y-81552400D02*
X125450800Y-81552400D01*
X128650800Y-91472400D02*
X128650800Y-81552400D01*
%TO.C,R2*%
X75454800Y-123366400D02*
X75454800Y-126366400D01*
X75454800Y-126366400D02*
X85174800Y-126366400D01*
X85174800Y-123366400D02*
X75454800Y-123366400D01*
X85174800Y-126366400D02*
X85174800Y-123366400D01*
%TO.C,J17*%
X131258800Y-136020400D02*
X131258800Y-147220400D01*
X131258800Y-147220400D02*
X137408800Y-147220400D01*
X137408800Y-136020400D02*
X131258800Y-136020400D01*
X137408800Y-147220400D02*
X137408800Y-136020400D01*
%TO.C,J3*%
X131346800Y-122304400D02*
X131346800Y-133504400D01*
X131346800Y-133504400D02*
X137496800Y-133504400D01*
X137496800Y-122304400D02*
X131346800Y-122304400D01*
X137496800Y-133504400D02*
X137496800Y-122304400D01*
%TO.C,U1*%
X95548800Y-148468400D02*
X99148800Y-148468400D01*
X95548800Y-154368400D02*
X95548800Y-148468400D01*
X95548800Y-154368400D02*
X99148800Y-154368400D01*
X99148800Y-154368400D02*
X99148800Y-148468400D01*
%TO.C,J29*%
X58752800Y-44326400D02*
X75002800Y-44326400D01*
X58752800Y-47876400D02*
X58752800Y-44326400D01*
X75002800Y-44326400D02*
X75002800Y-47876400D01*
X75002800Y-47876400D02*
X58752800Y-47876400D01*
%TO.C,D4*%
X137917800Y-150064400D02*
X137917800Y-156564400D01*
X137917800Y-156564400D02*
X144367800Y-156564400D01*
X144367800Y-150064400D02*
X137917800Y-150064400D01*
X144367800Y-156564400D02*
X144367800Y-150064400D01*
%TO.C,J36*%
X71656800Y-68710400D02*
X71656800Y-77360400D01*
X71656800Y-77360400D02*
X75256800Y-77360400D01*
X75256800Y-68710400D02*
X71656800Y-68710400D01*
X75256800Y-77360400D02*
X75256800Y-68710400D01*
%TO.C,R3*%
X75454800Y-126668400D02*
X75454800Y-129668400D01*
X75454800Y-129668400D02*
X85174800Y-129668400D01*
X85174800Y-126668400D02*
X75454800Y-126668400D01*
X85174800Y-129668400D02*
X85174800Y-126668400D01*
%TO.C,R5*%
X127651800Y-163117400D02*
X127651800Y-166117400D01*
X127651800Y-166117400D02*
X137371800Y-166117400D01*
X137371800Y-163117400D02*
X127651800Y-163117400D01*
X137371800Y-166117400D02*
X137371800Y-163117400D01*
%TO.C,J24*%
X55908800Y-56137400D02*
X59458800Y-56137400D01*
X55908800Y-72387400D02*
X55908800Y-56137400D01*
X59458800Y-56137400D02*
X59458800Y-72387400D01*
X59458800Y-72387400D02*
X55908800Y-72387400D01*
%TO.C,J26*%
X47526800Y-148720400D02*
X47526800Y-157370400D01*
X47526800Y-157370400D02*
X51126800Y-157370400D01*
X51126800Y-148720400D02*
X47526800Y-148720400D01*
X51126800Y-157370400D02*
X51126800Y-148720400D01*
%TO.C,J37*%
X116868800Y-99698400D02*
X116868800Y-103298400D01*
X116868800Y-103298400D02*
X120468800Y-103298400D01*
X120468800Y-99698400D02*
X116868800Y-99698400D01*
X120468800Y-103298400D02*
X120468800Y-99698400D01*
%TO.C,J31*%
X61242800Y-44376400D02*
X72442800Y-44376400D01*
X61242800Y-47926400D02*
X61242800Y-44376400D01*
X72442800Y-44376400D02*
X72442800Y-47926400D01*
X72442800Y-47926400D02*
X61242800Y-47926400D01*
%TO.C,R16*%
X51578800Y-154100400D02*
X51578800Y-157100400D01*
X51578800Y-157100400D02*
X61298800Y-157100400D01*
X61298800Y-154100400D02*
X51578800Y-154100400D01*
X61298800Y-157100400D02*
X61298800Y-154100400D01*
%TO.C,R15*%
X60468800Y-159180400D02*
X60468800Y-162180400D01*
X60468800Y-162180400D02*
X70188800Y-162180400D01*
X70188800Y-159180400D02*
X60468800Y-159180400D01*
X70188800Y-162180400D02*
X70188800Y-159180400D01*
%TO.C,R12*%
X112270800Y-87962400D02*
X112270800Y-97682400D01*
X112270800Y-97682400D02*
X115270800Y-97682400D01*
X115270800Y-87962400D02*
X112270800Y-87962400D01*
X115270800Y-97682400D02*
X115270800Y-87962400D01*
%TO.C,H3*%
X52776800Y-166268400D02*
G75*
G02*
X45876800Y-166268400I-3450000J0D01*
G01*
X45876800Y-166268400D02*
G75*
G02*
X52776800Y-166268400I3450000J0D01*
G01*
%TO.C,J1*%
X128890800Y-77962400D02*
X128890800Y-99282400D01*
X128890800Y-99282400D02*
X139700800Y-99282400D01*
X139700800Y-77962400D02*
X128890800Y-77962400D01*
X139700800Y-99282400D02*
X139700800Y-77962400D01*
%TO.C,C17*%
X71761800Y-82194400D02*
G75*
G02*
X66261800Y-82194400I-2750000J0D01*
G01*
X66261800Y-82194400D02*
G75*
G02*
X71761800Y-82194400I2750000J0D01*
G01*
%TO.C,J32*%
X124488800Y-67440400D02*
X124488800Y-76090400D01*
X124488800Y-76090400D02*
X128088800Y-76090400D01*
X128088800Y-67440400D02*
X124488800Y-67440400D01*
X128088800Y-76090400D02*
X128088800Y-67440400D01*
%TO.C,R6*%
X120920800Y-108380400D02*
X120920800Y-111380400D01*
X120920800Y-111380400D02*
X130640800Y-111380400D01*
X130640800Y-108380400D02*
X120920800Y-108380400D01*
X130640800Y-111380400D02*
X130640800Y-108380400D01*
%TO.C,R8*%
X120920800Y-114984400D02*
X120920800Y-117984400D01*
X120920800Y-117984400D02*
X130640800Y-117984400D01*
X130640800Y-114984400D02*
X120920800Y-114984400D01*
X130640800Y-117984400D02*
X130640800Y-114984400D01*
%TO.C,J27*%
X97183800Y-41659400D02*
X97183800Y-45259400D01*
X97183800Y-45259400D02*
X103333800Y-45259400D01*
X103333800Y-41659400D02*
X97183800Y-41659400D01*
X103333800Y-45259400D02*
X103333800Y-41659400D01*
%TO.C,Y2*%
X68011800Y-96253400D02*
X68011800Y-111353400D01*
X68011800Y-111353400D02*
X72611800Y-111353400D01*
X72611800Y-96253400D02*
X68011800Y-96253400D01*
X72611800Y-111353400D02*
X72611800Y-96253400D01*
%TO.C,Q1*%
X118600800Y-77122400D02*
X118600800Y-87622400D01*
X118600800Y-87622400D02*
X123510800Y-87622400D01*
X123510800Y-77122400D02*
X118600800Y-77122400D01*
X123510800Y-87622400D02*
X123510800Y-77122400D01*
%TO.C,SW1*%
X78918800Y-63748400D02*
X79168800Y-63748400D01*
X78918800Y-63998400D02*
X78918800Y-63748400D01*
X78918800Y-70998400D02*
X78918800Y-63998400D01*
X78918800Y-70998400D02*
X78918800Y-71248400D01*
X78918800Y-71248400D02*
X79168800Y-71248400D01*
X79168800Y-63748400D02*
X88168800Y-63748400D01*
X88168800Y-63748400D02*
X88418800Y-63748400D01*
X88168800Y-71248400D02*
X79168800Y-71248400D01*
X88168800Y-71248400D02*
X88418800Y-71248400D01*
X88418800Y-63748400D02*
X88418800Y-63998400D01*
X88418800Y-63998400D02*
X88418800Y-70998400D01*
X88418800Y-71248400D02*
X88418800Y-70998400D01*
%TO.C,J18*%
X131346800Y-149990400D02*
X131346800Y-161190400D01*
X131346800Y-161190400D02*
X137496800Y-161190400D01*
X137496800Y-149990400D02*
X131346800Y-149990400D01*
X137496800Y-161190400D02*
X137496800Y-149990400D01*
%TO.C,C1*%
X93554800Y-151313400D02*
X95014800Y-151313400D01*
X93554800Y-154273400D02*
X93554800Y-151313400D01*
X95014800Y-151313400D02*
X95014800Y-154273400D01*
X95014800Y-154273400D02*
X93554800Y-154273400D01*
%TO.C,J14*%
X119418800Y-38001400D02*
X130618800Y-38001400D01*
X119418800Y-41551400D02*
X119418800Y-38001400D01*
X130618800Y-38001400D02*
X130618800Y-41551400D01*
X130618800Y-41551400D02*
X119418800Y-41551400D01*
%TO.C,J28*%
X61232800Y-48136400D02*
X61232800Y-51736400D01*
X61232800Y-51736400D02*
X67382800Y-51736400D01*
X67382800Y-48136400D02*
X61232800Y-48136400D01*
X67382800Y-51736400D02*
X67382800Y-48136400D01*
%TO.C,R11*%
X54088800Y-164858400D02*
X54088800Y-159198400D01*
X54088800Y-164858400D02*
X58788800Y-164858400D01*
X58788800Y-159198400D02*
X54088800Y-159198400D01*
X58788800Y-159198400D02*
X58788800Y-164858400D01*
%TO.C,J34*%
X116106800Y-67186400D02*
X116106800Y-70786400D01*
X116106800Y-70786400D02*
X119706800Y-70786400D01*
X119706800Y-67186400D02*
X116106800Y-67186400D01*
X119706800Y-70786400D02*
X119706800Y-67186400D01*
%TO.C,R4*%
X75454800Y-129970400D02*
X75454800Y-132970400D01*
X75454800Y-132970400D02*
X85174800Y-132970400D01*
X85174800Y-129970400D02*
X75454800Y-129970400D01*
X85174800Y-132970400D02*
X85174800Y-129970400D01*
%TO.C,D2*%
X132710800Y-107900400D02*
X132710800Y-114400400D01*
X132710800Y-114400400D02*
X139160800Y-114400400D01*
X139160800Y-107900400D02*
X132710800Y-107900400D01*
X139160800Y-114400400D02*
X139160800Y-107900400D01*
%TO.C,R9*%
X115136800Y-77842400D02*
X115136800Y-87562400D01*
X115136800Y-87562400D02*
X118136800Y-87562400D01*
X118136800Y-77842400D02*
X115136800Y-77842400D01*
X118136800Y-87562400D02*
X118136800Y-77842400D01*
%TO.C,R14*%
X115332800Y-88568400D02*
X115332800Y-91568400D01*
X115332800Y-91568400D02*
X125052800Y-91568400D01*
X125052800Y-88568400D02*
X115332800Y-88568400D01*
X125052800Y-91568400D02*
X125052800Y-88568400D01*
%TO.C,R10*%
X51578800Y-148766400D02*
X51578800Y-151766400D01*
X51578800Y-151766400D02*
X61298800Y-151766400D01*
X61298800Y-148766400D02*
X51578800Y-148766400D01*
X61298800Y-151766400D02*
X61298800Y-148766400D01*
%TO.C,T4*%
X53533800Y-104816400D02*
X53533800Y-106816400D01*
X53533800Y-104816400D02*
X55533800Y-104816400D01*
X55533800Y-106816400D02*
X53533800Y-106816400D01*
X55533800Y-106816400D02*
X55533800Y-104816400D01*
%TO.C,U14*%
X66455800Y-85168400D02*
X66455800Y-94968400D01*
X66455800Y-94968400D02*
X77155800Y-94968400D01*
X77155800Y-85168400D02*
X66455800Y-85168400D01*
X77155800Y-94968400D02*
X77155800Y-85168400D01*
%TO.C,J2*%
X94663800Y-36833400D02*
X105863800Y-36833400D01*
X94663800Y-40383400D02*
X94663800Y-36833400D01*
X105863800Y-36833400D02*
X105863800Y-40383400D01*
X105863800Y-40383400D02*
X94663800Y-40383400D01*
%TD*%
D13*
X125614133Y-113637219D02*
X125280800Y-113161028D01*
X125042705Y-113637219D02*
X125042705Y-112637219D01*
X125042705Y-112637219D02*
X125423657Y-112637219D01*
X125423657Y-112637219D02*
X125518895Y-112684838D01*
X125518895Y-112684838D02*
X125566514Y-112732457D01*
X125566514Y-112732457D02*
X125614133Y-112827695D01*
X125614133Y-112827695D02*
X125614133Y-112970552D01*
X125614133Y-112970552D02*
X125566514Y-113065790D01*
X125566514Y-113065790D02*
X125518895Y-113113409D01*
X125518895Y-113113409D02*
X125423657Y-113161028D01*
X125423657Y-113161028D02*
X125042705Y-113161028D01*
X125947467Y-112637219D02*
X126614133Y-112637219D01*
X126614133Y-112637219D02*
X126185562Y-113637219D01*
X57188619Y-64994923D02*
X57902904Y-64994923D01*
X57902904Y-64994923D02*
X58045761Y-65042542D01*
X58045761Y-65042542D02*
X58141000Y-65137780D01*
X58141000Y-65137780D02*
X58188619Y-65280637D01*
X58188619Y-65280637D02*
X58188619Y-65375875D01*
X57283857Y-64566351D02*
X57236238Y-64518732D01*
X57236238Y-64518732D02*
X57188619Y-64423494D01*
X57188619Y-64423494D02*
X57188619Y-64185399D01*
X57188619Y-64185399D02*
X57236238Y-64090161D01*
X57236238Y-64090161D02*
X57283857Y-64042542D01*
X57283857Y-64042542D02*
X57379095Y-63994923D01*
X57379095Y-63994923D02*
X57474333Y-63994923D01*
X57474333Y-63994923D02*
X57617190Y-64042542D01*
X57617190Y-64042542D02*
X58188619Y-64613970D01*
X58188619Y-64613970D02*
X58188619Y-63994923D01*
X57188619Y-63090161D02*
X57188619Y-63566351D01*
X57188619Y-63566351D02*
X57664809Y-63613970D01*
X57664809Y-63613970D02*
X57617190Y-63566351D01*
X57617190Y-63566351D02*
X57569571Y-63471113D01*
X57569571Y-63471113D02*
X57569571Y-63233018D01*
X57569571Y-63233018D02*
X57617190Y-63137780D01*
X57617190Y-63137780D02*
X57664809Y-63090161D01*
X57664809Y-63090161D02*
X57760047Y-63042542D01*
X57760047Y-63042542D02*
X57998142Y-63042542D01*
X57998142Y-63042542D02*
X58093380Y-63090161D01*
X58093380Y-63090161D02*
X58141000Y-63137780D01*
X58141000Y-63137780D02*
X58188619Y-63233018D01*
X58188619Y-63233018D02*
X58188619Y-63471113D01*
X58188619Y-63471113D02*
X58141000Y-63566351D01*
X58141000Y-63566351D02*
X58093380Y-63613970D01*
X58817561Y-84855218D02*
X58484228Y-84379027D01*
X58246133Y-84855218D02*
X58246133Y-83855218D01*
X58246133Y-83855218D02*
X58627085Y-83855218D01*
X58627085Y-83855218D02*
X58722323Y-83902837D01*
X58722323Y-83902837D02*
X58769942Y-83950456D01*
X58769942Y-83950456D02*
X58817561Y-84045694D01*
X58817561Y-84045694D02*
X58817561Y-84188551D01*
X58817561Y-84188551D02*
X58769942Y-84283789D01*
X58769942Y-84283789D02*
X58722323Y-84331408D01*
X58722323Y-84331408D02*
X58627085Y-84379027D01*
X58627085Y-84379027D02*
X58246133Y-84379027D01*
X59103276Y-83855218D02*
X59436609Y-84855218D01*
X59436609Y-84855218D02*
X59769942Y-83855218D01*
X60627085Y-84855218D02*
X60055657Y-84855218D01*
X60341371Y-84855218D02*
X60341371Y-83855218D01*
X60341371Y-83855218D02*
X60246133Y-83998075D01*
X60246133Y-83998075D02*
X60150895Y-84093313D01*
X60150895Y-84093313D02*
X60055657Y-84140932D01*
X121679619Y-72350923D02*
X122393904Y-72350923D01*
X122393904Y-72350923D02*
X122536761Y-72398542D01*
X122536761Y-72398542D02*
X122632000Y-72493780D01*
X122632000Y-72493780D02*
X122679619Y-72636637D01*
X122679619Y-72636637D02*
X122679619Y-72731875D01*
X121679619Y-71969970D02*
X121679619Y-71350923D01*
X121679619Y-71350923D02*
X122060571Y-71684256D01*
X122060571Y-71684256D02*
X122060571Y-71541399D01*
X122060571Y-71541399D02*
X122108190Y-71446161D01*
X122108190Y-71446161D02*
X122155809Y-71398542D01*
X122155809Y-71398542D02*
X122251047Y-71350923D01*
X122251047Y-71350923D02*
X122489142Y-71350923D01*
X122489142Y-71350923D02*
X122584380Y-71398542D01*
X122584380Y-71398542D02*
X122632000Y-71446161D01*
X122632000Y-71446161D02*
X122679619Y-71541399D01*
X122679619Y-71541399D02*
X122679619Y-71827113D01*
X122679619Y-71827113D02*
X122632000Y-71922351D01*
X122632000Y-71922351D02*
X122584380Y-71969970D01*
X121679619Y-70731875D02*
X121679619Y-70636637D01*
X121679619Y-70636637D02*
X121727238Y-70541399D01*
X121727238Y-70541399D02*
X121774857Y-70493780D01*
X121774857Y-70493780D02*
X121870095Y-70446161D01*
X121870095Y-70446161D02*
X122060571Y-70398542D01*
X122060571Y-70398542D02*
X122298666Y-70398542D01*
X122298666Y-70398542D02*
X122489142Y-70446161D01*
X122489142Y-70446161D02*
X122584380Y-70493780D01*
X122584380Y-70493780D02*
X122632000Y-70541399D01*
X122632000Y-70541399D02*
X122679619Y-70636637D01*
X122679619Y-70636637D02*
X122679619Y-70731875D01*
X122679619Y-70731875D02*
X122632000Y-70827113D01*
X122632000Y-70827113D02*
X122584380Y-70874732D01*
X122584380Y-70874732D02*
X122489142Y-70922351D01*
X122489142Y-70922351D02*
X122298666Y-70969970D01*
X122298666Y-70969970D02*
X122060571Y-70969970D01*
X122060571Y-70969970D02*
X121870095Y-70922351D01*
X121870095Y-70922351D02*
X121774857Y-70874732D01*
X121774857Y-70874732D02*
X121727238Y-70827113D01*
X121727238Y-70827113D02*
X121679619Y-70731875D01*
D14*
X135370324Y-118114095D02*
X135370324Y-117314095D01*
X135370324Y-117314095D02*
X135560800Y-117314095D01*
X135560800Y-117314095D02*
X135675086Y-117352190D01*
X135675086Y-117352190D02*
X135751276Y-117428380D01*
X135751276Y-117428380D02*
X135789371Y-117504571D01*
X135789371Y-117504571D02*
X135827467Y-117656952D01*
X135827467Y-117656952D02*
X135827467Y-117771238D01*
X135827467Y-117771238D02*
X135789371Y-117923619D01*
X135789371Y-117923619D02*
X135751276Y-117999809D01*
X135751276Y-117999809D02*
X135675086Y-118076000D01*
X135675086Y-118076000D02*
X135560800Y-118114095D01*
X135560800Y-118114095D02*
X135370324Y-118114095D01*
X136094133Y-117314095D02*
X136589371Y-117314095D01*
X136589371Y-117314095D02*
X136322705Y-117618857D01*
X136322705Y-117618857D02*
X136436990Y-117618857D01*
X136436990Y-117618857D02*
X136513181Y-117656952D01*
X136513181Y-117656952D02*
X136551276Y-117695047D01*
X136551276Y-117695047D02*
X136589371Y-117771238D01*
X136589371Y-117771238D02*
X136589371Y-117961714D01*
X136589371Y-117961714D02*
X136551276Y-118037904D01*
X136551276Y-118037904D02*
X136513181Y-118076000D01*
X136513181Y-118076000D02*
X136436990Y-118114095D01*
X136436990Y-118114095D02*
X136208419Y-118114095D01*
X136208419Y-118114095D02*
X136132228Y-118076000D01*
X136132228Y-118076000D02*
X136094133Y-118037904D01*
D13*
X92189467Y-75743600D02*
X92332324Y-75791219D01*
X92332324Y-75791219D02*
X92570419Y-75791219D01*
X92570419Y-75791219D02*
X92665657Y-75743600D01*
X92665657Y-75743600D02*
X92713276Y-75695980D01*
X92713276Y-75695980D02*
X92760895Y-75600742D01*
X92760895Y-75600742D02*
X92760895Y-75505504D01*
X92760895Y-75505504D02*
X92713276Y-75410266D01*
X92713276Y-75410266D02*
X92665657Y-75362647D01*
X92665657Y-75362647D02*
X92570419Y-75315028D01*
X92570419Y-75315028D02*
X92379943Y-75267409D01*
X92379943Y-75267409D02*
X92284705Y-75219790D01*
X92284705Y-75219790D02*
X92237086Y-75172171D01*
X92237086Y-75172171D02*
X92189467Y-75076933D01*
X92189467Y-75076933D02*
X92189467Y-74981695D01*
X92189467Y-74981695D02*
X92237086Y-74886457D01*
X92237086Y-74886457D02*
X92284705Y-74838838D01*
X92284705Y-74838838D02*
X92379943Y-74791219D01*
X92379943Y-74791219D02*
X92618038Y-74791219D01*
X92618038Y-74791219D02*
X92760895Y-74838838D01*
X93094229Y-74791219D02*
X93332324Y-75791219D01*
X93332324Y-75791219D02*
X93522800Y-75076933D01*
X93522800Y-75076933D02*
X93713276Y-75791219D01*
X93713276Y-75791219D02*
X93951372Y-74791219D01*
X94760895Y-75124552D02*
X94760895Y-75791219D01*
X94522800Y-74743600D02*
X94284705Y-75457885D01*
X94284705Y-75457885D02*
X94903752Y-75457885D01*
X63005619Y-126723733D02*
X63719904Y-126723733D01*
X63719904Y-126723733D02*
X63862761Y-126771352D01*
X63862761Y-126771352D02*
X63958000Y-126866590D01*
X63958000Y-126866590D02*
X64005619Y-127009447D01*
X64005619Y-127009447D02*
X64005619Y-127104685D01*
X63338952Y-125818971D02*
X64005619Y-125818971D01*
X62958000Y-126057066D02*
X63672285Y-126295161D01*
X63672285Y-126295161D02*
X63672285Y-125676114D01*
X81957942Y-90142219D02*
X81624609Y-89666028D01*
X81386514Y-90142219D02*
X81386514Y-89142219D01*
X81386514Y-89142219D02*
X81767466Y-89142219D01*
X81767466Y-89142219D02*
X81862704Y-89189838D01*
X81862704Y-89189838D02*
X81910323Y-89237457D01*
X81910323Y-89237457D02*
X81957942Y-89332695D01*
X81957942Y-89332695D02*
X81957942Y-89475552D01*
X81957942Y-89475552D02*
X81910323Y-89570790D01*
X81910323Y-89570790D02*
X81862704Y-89618409D01*
X81862704Y-89618409D02*
X81767466Y-89666028D01*
X81767466Y-89666028D02*
X81386514Y-89666028D01*
X82338895Y-89237457D02*
X82386514Y-89189838D01*
X82386514Y-89189838D02*
X82481752Y-89142219D01*
X82481752Y-89142219D02*
X82719847Y-89142219D01*
X82719847Y-89142219D02*
X82815085Y-89189838D01*
X82815085Y-89189838D02*
X82862704Y-89237457D01*
X82862704Y-89237457D02*
X82910323Y-89332695D01*
X82910323Y-89332695D02*
X82910323Y-89427933D01*
X82910323Y-89427933D02*
X82862704Y-89570790D01*
X82862704Y-89570790D02*
X82291276Y-90142219D01*
X82291276Y-90142219D02*
X82910323Y-90142219D01*
X83243657Y-89142219D02*
X83910323Y-89142219D01*
X83910323Y-89142219D02*
X83481752Y-90142219D01*
X106683276Y-50915219D02*
X106683276Y-51629504D01*
X106683276Y-51629504D02*
X106635657Y-51772361D01*
X106635657Y-51772361D02*
X106540419Y-51867600D01*
X106540419Y-51867600D02*
X106397562Y-51915219D01*
X106397562Y-51915219D02*
X106302324Y-51915219D01*
X107683276Y-51915219D02*
X107111848Y-51915219D01*
X107397562Y-51915219D02*
X107397562Y-50915219D01*
X107397562Y-50915219D02*
X107302324Y-51058076D01*
X107302324Y-51058076D02*
X107207086Y-51153314D01*
X107207086Y-51153314D02*
X107111848Y-51200933D01*
X108540419Y-50915219D02*
X108349943Y-50915219D01*
X108349943Y-50915219D02*
X108254705Y-50962838D01*
X108254705Y-50962838D02*
X108207086Y-51010457D01*
X108207086Y-51010457D02*
X108111848Y-51153314D01*
X108111848Y-51153314D02*
X108064229Y-51343790D01*
X108064229Y-51343790D02*
X108064229Y-51724742D01*
X108064229Y-51724742D02*
X108111848Y-51819980D01*
X108111848Y-51819980D02*
X108159467Y-51867600D01*
X108159467Y-51867600D02*
X108254705Y-51915219D01*
X108254705Y-51915219D02*
X108445181Y-51915219D01*
X108445181Y-51915219D02*
X108540419Y-51867600D01*
X108540419Y-51867600D02*
X108588038Y-51819980D01*
X108588038Y-51819980D02*
X108635657Y-51724742D01*
X108635657Y-51724742D02*
X108635657Y-51486647D01*
X108635657Y-51486647D02*
X108588038Y-51391409D01*
X108588038Y-51391409D02*
X108540419Y-51343790D01*
X108540419Y-51343790D02*
X108445181Y-51296171D01*
X108445181Y-51296171D02*
X108254705Y-51296171D01*
X108254705Y-51296171D02*
X108159467Y-51343790D01*
X108159467Y-51343790D02*
X108111848Y-51391409D01*
X108111848Y-51391409D02*
X108064229Y-51486647D01*
X124219276Y-39206219D02*
X124219276Y-39920504D01*
X124219276Y-39920504D02*
X124171657Y-40063361D01*
X124171657Y-40063361D02*
X124076419Y-40158600D01*
X124076419Y-40158600D02*
X123933562Y-40206219D01*
X123933562Y-40206219D02*
X123838324Y-40206219D01*
X124647848Y-39301457D02*
X124695467Y-39253838D01*
X124695467Y-39253838D02*
X124790705Y-39206219D01*
X124790705Y-39206219D02*
X125028800Y-39206219D01*
X125028800Y-39206219D02*
X125124038Y-39253838D01*
X125124038Y-39253838D02*
X125171657Y-39301457D01*
X125171657Y-39301457D02*
X125219276Y-39396695D01*
X125219276Y-39396695D02*
X125219276Y-39491933D01*
X125219276Y-39491933D02*
X125171657Y-39634790D01*
X125171657Y-39634790D02*
X124600229Y-40206219D01*
X124600229Y-40206219D02*
X125219276Y-40206219D01*
X125600229Y-39301457D02*
X125647848Y-39253838D01*
X125647848Y-39253838D02*
X125743086Y-39206219D01*
X125743086Y-39206219D02*
X125981181Y-39206219D01*
X125981181Y-39206219D02*
X126076419Y-39253838D01*
X126076419Y-39253838D02*
X126124038Y-39301457D01*
X126124038Y-39301457D02*
X126171657Y-39396695D01*
X126171657Y-39396695D02*
X126171657Y-39491933D01*
X126171657Y-39491933D02*
X126124038Y-39634790D01*
X126124038Y-39634790D02*
X125552610Y-40206219D01*
X125552610Y-40206219D02*
X126171657Y-40206219D01*
X95771619Y-126723733D02*
X96485904Y-126723733D01*
X96485904Y-126723733D02*
X96628761Y-126771352D01*
X96628761Y-126771352D02*
X96724000Y-126866590D01*
X96724000Y-126866590D02*
X96771619Y-127009447D01*
X96771619Y-127009447D02*
X96771619Y-127104685D01*
X95771619Y-125818971D02*
X95771619Y-126009447D01*
X95771619Y-126009447D02*
X95819238Y-126104685D01*
X95819238Y-126104685D02*
X95866857Y-126152304D01*
X95866857Y-126152304D02*
X96009714Y-126247542D01*
X96009714Y-126247542D02*
X96200190Y-126295161D01*
X96200190Y-126295161D02*
X96581142Y-126295161D01*
X96581142Y-126295161D02*
X96676380Y-126247542D01*
X96676380Y-126247542D02*
X96724000Y-126199923D01*
X96724000Y-126199923D02*
X96771619Y-126104685D01*
X96771619Y-126104685D02*
X96771619Y-125914209D01*
X96771619Y-125914209D02*
X96724000Y-125818971D01*
X96724000Y-125818971D02*
X96676380Y-125771352D01*
X96676380Y-125771352D02*
X96581142Y-125723733D01*
X96581142Y-125723733D02*
X96343047Y-125723733D01*
X96343047Y-125723733D02*
X96247809Y-125771352D01*
X96247809Y-125771352D02*
X96200190Y-125818971D01*
X96200190Y-125818971D02*
X96152571Y-125914209D01*
X96152571Y-125914209D02*
X96152571Y-126104685D01*
X96152571Y-126104685D02*
X96200190Y-126199923D01*
X96200190Y-126199923D02*
X96247809Y-126247542D01*
X96247809Y-126247542D02*
X96343047Y-126295161D01*
X141528895Y-46327219D02*
X141528895Y-45327219D01*
X141528895Y-45803409D02*
X142100323Y-45803409D01*
X142100323Y-46327219D02*
X142100323Y-45327219D01*
X143100323Y-46327219D02*
X142528895Y-46327219D01*
X142814609Y-46327219D02*
X142814609Y-45327219D01*
X142814609Y-45327219D02*
X142719371Y-45470076D01*
X142719371Y-45470076D02*
X142624133Y-45565314D01*
X142624133Y-45565314D02*
X142528895Y-45612933D01*
X55639619Y-126723733D02*
X56353904Y-126723733D01*
X56353904Y-126723733D02*
X56496761Y-126771352D01*
X56496761Y-126771352D02*
X56592000Y-126866590D01*
X56592000Y-126866590D02*
X56639619Y-127009447D01*
X56639619Y-127009447D02*
X56639619Y-127104685D01*
X55639619Y-126342780D02*
X55639619Y-125676114D01*
X55639619Y-125676114D02*
X56639619Y-126104685D01*
X141782895Y-166723219D02*
X141782895Y-165723219D01*
X141782895Y-166199409D02*
X142354323Y-166199409D01*
X142354323Y-166723219D02*
X142354323Y-165723219D01*
X143259085Y-166056552D02*
X143259085Y-166723219D01*
X143020990Y-165675600D02*
X142782895Y-166389885D01*
X142782895Y-166389885D02*
X143401942Y-166389885D01*
X50850895Y-39723219D02*
X50850895Y-38723219D01*
X50850895Y-39199409D02*
X51422323Y-39199409D01*
X51422323Y-39723219D02*
X51422323Y-38723219D01*
X51850895Y-38818457D02*
X51898514Y-38770838D01*
X51898514Y-38770838D02*
X51993752Y-38723219D01*
X51993752Y-38723219D02*
X52231847Y-38723219D01*
X52231847Y-38723219D02*
X52327085Y-38770838D01*
X52327085Y-38770838D02*
X52374704Y-38818457D01*
X52374704Y-38818457D02*
X52422323Y-38913695D01*
X52422323Y-38913695D02*
X52422323Y-39008933D01*
X52422323Y-39008933D02*
X52374704Y-39151790D01*
X52374704Y-39151790D02*
X51803276Y-39723219D01*
X51803276Y-39723219D02*
X52422323Y-39723219D01*
X79862466Y-92698219D02*
X79862466Y-93412504D01*
X79862466Y-93412504D02*
X79814847Y-93555361D01*
X79814847Y-93555361D02*
X79719609Y-93650600D01*
X79719609Y-93650600D02*
X79576752Y-93698219D01*
X79576752Y-93698219D02*
X79481514Y-93698219D01*
X80338657Y-93698219D02*
X80338657Y-92698219D01*
X80338657Y-92698219D02*
X80719609Y-92698219D01*
X80719609Y-92698219D02*
X80814847Y-92745838D01*
X80814847Y-92745838D02*
X80862466Y-92793457D01*
X80862466Y-92793457D02*
X80910085Y-92888695D01*
X80910085Y-92888695D02*
X80910085Y-93031552D01*
X80910085Y-93031552D02*
X80862466Y-93126790D01*
X80862466Y-93126790D02*
X80814847Y-93174409D01*
X80814847Y-93174409D02*
X80719609Y-93222028D01*
X80719609Y-93222028D02*
X80338657Y-93222028D01*
X81243419Y-92698219D02*
X81910085Y-92698219D01*
X81910085Y-92698219D02*
X81481514Y-93698219D01*
X137325619Y-73057923D02*
X138039904Y-73057923D01*
X138039904Y-73057923D02*
X138182761Y-73105542D01*
X138182761Y-73105542D02*
X138278000Y-73200780D01*
X138278000Y-73200780D02*
X138325619Y-73343637D01*
X138325619Y-73343637D02*
X138325619Y-73438875D01*
X137325619Y-72676970D02*
X137325619Y-72057923D01*
X137325619Y-72057923D02*
X137706571Y-72391256D01*
X137706571Y-72391256D02*
X137706571Y-72248399D01*
X137706571Y-72248399D02*
X137754190Y-72153161D01*
X137754190Y-72153161D02*
X137801809Y-72105542D01*
X137801809Y-72105542D02*
X137897047Y-72057923D01*
X137897047Y-72057923D02*
X138135142Y-72057923D01*
X138135142Y-72057923D02*
X138230380Y-72105542D01*
X138230380Y-72105542D02*
X138278000Y-72153161D01*
X138278000Y-72153161D02*
X138325619Y-72248399D01*
X138325619Y-72248399D02*
X138325619Y-72534113D01*
X138325619Y-72534113D02*
X138278000Y-72629351D01*
X138278000Y-72629351D02*
X138230380Y-72676970D01*
X137325619Y-71724589D02*
X137325619Y-71105542D01*
X137325619Y-71105542D02*
X137706571Y-71438875D01*
X137706571Y-71438875D02*
X137706571Y-71296018D01*
X137706571Y-71296018D02*
X137754190Y-71200780D01*
X137754190Y-71200780D02*
X137801809Y-71153161D01*
X137801809Y-71153161D02*
X137897047Y-71105542D01*
X137897047Y-71105542D02*
X138135142Y-71105542D01*
X138135142Y-71105542D02*
X138230380Y-71153161D01*
X138230380Y-71153161D02*
X138278000Y-71200780D01*
X138278000Y-71200780D02*
X138325619Y-71296018D01*
X138325619Y-71296018D02*
X138325619Y-71581732D01*
X138325619Y-71581732D02*
X138278000Y-71676970D01*
X138278000Y-71676970D02*
X138230380Y-71724589D01*
X92189467Y-59995600D02*
X92332324Y-60043219D01*
X92332324Y-60043219D02*
X92570419Y-60043219D01*
X92570419Y-60043219D02*
X92665657Y-59995600D01*
X92665657Y-59995600D02*
X92713276Y-59947980D01*
X92713276Y-59947980D02*
X92760895Y-59852742D01*
X92760895Y-59852742D02*
X92760895Y-59757504D01*
X92760895Y-59757504D02*
X92713276Y-59662266D01*
X92713276Y-59662266D02*
X92665657Y-59614647D01*
X92665657Y-59614647D02*
X92570419Y-59567028D01*
X92570419Y-59567028D02*
X92379943Y-59519409D01*
X92379943Y-59519409D02*
X92284705Y-59471790D01*
X92284705Y-59471790D02*
X92237086Y-59424171D01*
X92237086Y-59424171D02*
X92189467Y-59328933D01*
X92189467Y-59328933D02*
X92189467Y-59233695D01*
X92189467Y-59233695D02*
X92237086Y-59138457D01*
X92237086Y-59138457D02*
X92284705Y-59090838D01*
X92284705Y-59090838D02*
X92379943Y-59043219D01*
X92379943Y-59043219D02*
X92618038Y-59043219D01*
X92618038Y-59043219D02*
X92760895Y-59090838D01*
X93094229Y-59043219D02*
X93332324Y-60043219D01*
X93332324Y-60043219D02*
X93522800Y-59328933D01*
X93522800Y-59328933D02*
X93713276Y-60043219D01*
X93713276Y-60043219D02*
X93951372Y-59043219D01*
X94284705Y-59138457D02*
X94332324Y-59090838D01*
X94332324Y-59090838D02*
X94427562Y-59043219D01*
X94427562Y-59043219D02*
X94665657Y-59043219D01*
X94665657Y-59043219D02*
X94760895Y-59090838D01*
X94760895Y-59090838D02*
X94808514Y-59138457D01*
X94808514Y-59138457D02*
X94856133Y-59233695D01*
X94856133Y-59233695D02*
X94856133Y-59328933D01*
X94856133Y-59328933D02*
X94808514Y-59471790D01*
X94808514Y-59471790D02*
X94237086Y-60043219D01*
X94237086Y-60043219D02*
X94856133Y-60043219D01*
X80148133Y-135227219D02*
X79814800Y-134751028D01*
X79576705Y-135227219D02*
X79576705Y-134227219D01*
X79576705Y-134227219D02*
X79957657Y-134227219D01*
X79957657Y-134227219D02*
X80052895Y-134274838D01*
X80052895Y-134274838D02*
X80100514Y-134322457D01*
X80100514Y-134322457D02*
X80148133Y-134417695D01*
X80148133Y-134417695D02*
X80148133Y-134560552D01*
X80148133Y-134560552D02*
X80100514Y-134655790D01*
X80100514Y-134655790D02*
X80052895Y-134703409D01*
X80052895Y-134703409D02*
X79957657Y-134751028D01*
X79957657Y-134751028D02*
X79576705Y-134751028D01*
X81100514Y-135227219D02*
X80529086Y-135227219D01*
X80814800Y-135227219D02*
X80814800Y-134227219D01*
X80814800Y-134227219D02*
X80719562Y-134370076D01*
X80719562Y-134370076D02*
X80624324Y-134465314D01*
X80624324Y-134465314D02*
X80529086Y-134512933D01*
X99444276Y-38088219D02*
X99444276Y-38802504D01*
X99444276Y-38802504D02*
X99396657Y-38945361D01*
X99396657Y-38945361D02*
X99301419Y-39040600D01*
X99301419Y-39040600D02*
X99158562Y-39088219D01*
X99158562Y-39088219D02*
X99063324Y-39088219D01*
X99872848Y-38183457D02*
X99920467Y-38135838D01*
X99920467Y-38135838D02*
X100015705Y-38088219D01*
X100015705Y-38088219D02*
X100253800Y-38088219D01*
X100253800Y-38088219D02*
X100349038Y-38135838D01*
X100349038Y-38135838D02*
X100396657Y-38183457D01*
X100396657Y-38183457D02*
X100444276Y-38278695D01*
X100444276Y-38278695D02*
X100444276Y-38373933D01*
X100444276Y-38373933D02*
X100396657Y-38516790D01*
X100396657Y-38516790D02*
X99825229Y-39088219D01*
X99825229Y-39088219D02*
X100444276Y-39088219D01*
X100777610Y-38088219D02*
X101396657Y-38088219D01*
X101396657Y-38088219D02*
X101063324Y-38469171D01*
X101063324Y-38469171D02*
X101206181Y-38469171D01*
X101206181Y-38469171D02*
X101301419Y-38516790D01*
X101301419Y-38516790D02*
X101349038Y-38564409D01*
X101349038Y-38564409D02*
X101396657Y-38659647D01*
X101396657Y-38659647D02*
X101396657Y-38897742D01*
X101396657Y-38897742D02*
X101349038Y-38992980D01*
X101349038Y-38992980D02*
X101301419Y-39040600D01*
X101301419Y-39040600D02*
X101206181Y-39088219D01*
X101206181Y-39088219D02*
X100920467Y-39088219D01*
X100920467Y-39088219D02*
X100825229Y-39040600D01*
X100825229Y-39040600D02*
X100777610Y-38992980D01*
X89712895Y-151573219D02*
X90284323Y-151573219D01*
X89998609Y-152573219D02*
X89998609Y-151573219D01*
X91141466Y-152573219D02*
X90570038Y-152573219D01*
X90855752Y-152573219D02*
X90855752Y-151573219D01*
X90855752Y-151573219D02*
X90760514Y-151716076D01*
X90760514Y-151716076D02*
X90665276Y-151811314D01*
X90665276Y-151811314D02*
X90570038Y-151858933D01*
D14*
X135370324Y-104906095D02*
X135370324Y-104106095D01*
X135370324Y-104106095D02*
X135560800Y-104106095D01*
X135560800Y-104106095D02*
X135675086Y-104144190D01*
X135675086Y-104144190D02*
X135751276Y-104220380D01*
X135751276Y-104220380D02*
X135789371Y-104296571D01*
X135789371Y-104296571D02*
X135827467Y-104448952D01*
X135827467Y-104448952D02*
X135827467Y-104563238D01*
X135827467Y-104563238D02*
X135789371Y-104715619D01*
X135789371Y-104715619D02*
X135751276Y-104791809D01*
X135751276Y-104791809D02*
X135675086Y-104868000D01*
X135675086Y-104868000D02*
X135560800Y-104906095D01*
X135560800Y-104906095D02*
X135370324Y-104906095D01*
X136589371Y-104906095D02*
X136132228Y-104906095D01*
X136360800Y-104906095D02*
X136360800Y-104106095D01*
X136360800Y-104106095D02*
X136284609Y-104220380D01*
X136284609Y-104220380D02*
X136208419Y-104296571D01*
X136208419Y-104296571D02*
X136132228Y-104334666D01*
D13*
X121838895Y-95587219D02*
X121838895Y-96396742D01*
X121838895Y-96396742D02*
X121886514Y-96491980D01*
X121886514Y-96491980D02*
X121934133Y-96539600D01*
X121934133Y-96539600D02*
X122029371Y-96587219D01*
X122029371Y-96587219D02*
X122219847Y-96587219D01*
X122219847Y-96587219D02*
X122315085Y-96539600D01*
X122315085Y-96539600D02*
X122362704Y-96491980D01*
X122362704Y-96491980D02*
X122410323Y-96396742D01*
X122410323Y-96396742D02*
X122410323Y-95587219D01*
X122838895Y-95682457D02*
X122886514Y-95634838D01*
X122886514Y-95634838D02*
X122981752Y-95587219D01*
X122981752Y-95587219D02*
X123219847Y-95587219D01*
X123219847Y-95587219D02*
X123315085Y-95634838D01*
X123315085Y-95634838D02*
X123362704Y-95682457D01*
X123362704Y-95682457D02*
X123410323Y-95777695D01*
X123410323Y-95777695D02*
X123410323Y-95872933D01*
X123410323Y-95872933D02*
X123362704Y-96015790D01*
X123362704Y-96015790D02*
X122791276Y-96587219D01*
X122791276Y-96587219D02*
X123410323Y-96587219D01*
X50559619Y-126193923D02*
X51273904Y-126193923D01*
X51273904Y-126193923D02*
X51416761Y-126241542D01*
X51416761Y-126241542D02*
X51512000Y-126336780D01*
X51512000Y-126336780D02*
X51559619Y-126479637D01*
X51559619Y-126479637D02*
X51559619Y-126574875D01*
X50559619Y-125812970D02*
X50559619Y-125193923D01*
X50559619Y-125193923D02*
X50940571Y-125527256D01*
X50940571Y-125527256D02*
X50940571Y-125384399D01*
X50940571Y-125384399D02*
X50988190Y-125289161D01*
X50988190Y-125289161D02*
X51035809Y-125241542D01*
X51035809Y-125241542D02*
X51131047Y-125193923D01*
X51131047Y-125193923D02*
X51369142Y-125193923D01*
X51369142Y-125193923D02*
X51464380Y-125241542D01*
X51464380Y-125241542D02*
X51512000Y-125289161D01*
X51512000Y-125289161D02*
X51559619Y-125384399D01*
X51559619Y-125384399D02*
X51559619Y-125670113D01*
X51559619Y-125670113D02*
X51512000Y-125765351D01*
X51512000Y-125765351D02*
X51464380Y-125812970D01*
X50559619Y-124289161D02*
X50559619Y-124765351D01*
X50559619Y-124765351D02*
X51035809Y-124812970D01*
X51035809Y-124812970D02*
X50988190Y-124765351D01*
X50988190Y-124765351D02*
X50940571Y-124670113D01*
X50940571Y-124670113D02*
X50940571Y-124432018D01*
X50940571Y-124432018D02*
X50988190Y-124336780D01*
X50988190Y-124336780D02*
X51035809Y-124289161D01*
X51035809Y-124289161D02*
X51131047Y-124241542D01*
X51131047Y-124241542D02*
X51369142Y-124241542D01*
X51369142Y-124241542D02*
X51464380Y-124289161D01*
X51464380Y-124289161D02*
X51512000Y-124336780D01*
X51512000Y-124336780D02*
X51559619Y-124432018D01*
X51559619Y-124432018D02*
X51559619Y-124670113D01*
X51559619Y-124670113D02*
X51512000Y-124765351D01*
X51512000Y-124765351D02*
X51464380Y-124812970D01*
X88405619Y-126723733D02*
X89119904Y-126723733D01*
X89119904Y-126723733D02*
X89262761Y-126771352D01*
X89262761Y-126771352D02*
X89358000Y-126866590D01*
X89358000Y-126866590D02*
X89405619Y-127009447D01*
X89405619Y-127009447D02*
X89405619Y-127104685D01*
X88405619Y-125771352D02*
X88405619Y-126247542D01*
X88405619Y-126247542D02*
X88881809Y-126295161D01*
X88881809Y-126295161D02*
X88834190Y-126247542D01*
X88834190Y-126247542D02*
X88786571Y-126152304D01*
X88786571Y-126152304D02*
X88786571Y-125914209D01*
X88786571Y-125914209D02*
X88834190Y-125818971D01*
X88834190Y-125818971D02*
X88881809Y-125771352D01*
X88881809Y-125771352D02*
X88977047Y-125723733D01*
X88977047Y-125723733D02*
X89215142Y-125723733D01*
X89215142Y-125723733D02*
X89310380Y-125771352D01*
X89310380Y-125771352D02*
X89358000Y-125818971D01*
X89358000Y-125818971D02*
X89405619Y-125914209D01*
X89405619Y-125914209D02*
X89405619Y-126152304D01*
X89405619Y-126152304D02*
X89358000Y-126247542D01*
X89358000Y-126247542D02*
X89310380Y-126295161D01*
X102147467Y-67833600D02*
X102290324Y-67881219D01*
X102290324Y-67881219D02*
X102528419Y-67881219D01*
X102528419Y-67881219D02*
X102623657Y-67833600D01*
X102623657Y-67833600D02*
X102671276Y-67785980D01*
X102671276Y-67785980D02*
X102718895Y-67690742D01*
X102718895Y-67690742D02*
X102718895Y-67595504D01*
X102718895Y-67595504D02*
X102671276Y-67500266D01*
X102671276Y-67500266D02*
X102623657Y-67452647D01*
X102623657Y-67452647D02*
X102528419Y-67405028D01*
X102528419Y-67405028D02*
X102337943Y-67357409D01*
X102337943Y-67357409D02*
X102242705Y-67309790D01*
X102242705Y-67309790D02*
X102195086Y-67262171D01*
X102195086Y-67262171D02*
X102147467Y-67166933D01*
X102147467Y-67166933D02*
X102147467Y-67071695D01*
X102147467Y-67071695D02*
X102195086Y-66976457D01*
X102195086Y-66976457D02*
X102242705Y-66928838D01*
X102242705Y-66928838D02*
X102337943Y-66881219D01*
X102337943Y-66881219D02*
X102576038Y-66881219D01*
X102576038Y-66881219D02*
X102718895Y-66928838D01*
X103052229Y-66881219D02*
X103290324Y-67881219D01*
X103290324Y-67881219D02*
X103480800Y-67166933D01*
X103480800Y-67166933D02*
X103671276Y-67881219D01*
X103671276Y-67881219D02*
X103909372Y-66881219D01*
X104195086Y-66881219D02*
X104814133Y-66881219D01*
X104814133Y-66881219D02*
X104480800Y-67262171D01*
X104480800Y-67262171D02*
X104623657Y-67262171D01*
X104623657Y-67262171D02*
X104718895Y-67309790D01*
X104718895Y-67309790D02*
X104766514Y-67357409D01*
X104766514Y-67357409D02*
X104814133Y-67452647D01*
X104814133Y-67452647D02*
X104814133Y-67690742D01*
X104814133Y-67690742D02*
X104766514Y-67785980D01*
X104766514Y-67785980D02*
X104718895Y-67833600D01*
X104718895Y-67833600D02*
X104623657Y-67881219D01*
X104623657Y-67881219D02*
X104337943Y-67881219D01*
X104337943Y-67881219D02*
X104242705Y-67833600D01*
X104242705Y-67833600D02*
X104195086Y-67785980D01*
D14*
X75594495Y-82677828D02*
X74794495Y-82677828D01*
X74794495Y-82677828D02*
X74794495Y-82487352D01*
X74794495Y-82487352D02*
X74832590Y-82373066D01*
X74832590Y-82373066D02*
X74908780Y-82296876D01*
X74908780Y-82296876D02*
X74984971Y-82258781D01*
X74984971Y-82258781D02*
X75137352Y-82220685D01*
X75137352Y-82220685D02*
X75251638Y-82220685D01*
X75251638Y-82220685D02*
X75404019Y-82258781D01*
X75404019Y-82258781D02*
X75480209Y-82296876D01*
X75480209Y-82296876D02*
X75556400Y-82373066D01*
X75556400Y-82373066D02*
X75594495Y-82487352D01*
X75594495Y-82487352D02*
X75594495Y-82677828D01*
X75594495Y-81458781D02*
X75594495Y-81915924D01*
X75594495Y-81687352D02*
X74794495Y-81687352D01*
X74794495Y-81687352D02*
X74908780Y-81763543D01*
X74908780Y-81763543D02*
X74984971Y-81839733D01*
X74984971Y-81839733D02*
X75023066Y-81915924D01*
X74870685Y-81154019D02*
X74832590Y-81115923D01*
X74832590Y-81115923D02*
X74794495Y-81039733D01*
X74794495Y-81039733D02*
X74794495Y-80849257D01*
X74794495Y-80849257D02*
X74832590Y-80773066D01*
X74832590Y-80773066D02*
X74870685Y-80734971D01*
X74870685Y-80734971D02*
X74946876Y-80696876D01*
X74946876Y-80696876D02*
X75023066Y-80696876D01*
X75023066Y-80696876D02*
X75137352Y-80734971D01*
X75137352Y-80734971D02*
X75594495Y-81192114D01*
X75594495Y-81192114D02*
X75594495Y-80696876D01*
D13*
X127505619Y-86860494D02*
X126505619Y-86860494D01*
X126505619Y-86860494D02*
X126505619Y-86622399D01*
X126505619Y-86622399D02*
X126553238Y-86479542D01*
X126553238Y-86479542D02*
X126648476Y-86384304D01*
X126648476Y-86384304D02*
X126743714Y-86336685D01*
X126743714Y-86336685D02*
X126934190Y-86289066D01*
X126934190Y-86289066D02*
X127077047Y-86289066D01*
X127077047Y-86289066D02*
X127267523Y-86336685D01*
X127267523Y-86336685D02*
X127362761Y-86384304D01*
X127362761Y-86384304D02*
X127458000Y-86479542D01*
X127458000Y-86479542D02*
X127505619Y-86622399D01*
X127505619Y-86622399D02*
X127505619Y-86860494D01*
X126505619Y-85384304D02*
X126505619Y-85860494D01*
X126505619Y-85860494D02*
X126981809Y-85908113D01*
X126981809Y-85908113D02*
X126934190Y-85860494D01*
X126934190Y-85860494D02*
X126886571Y-85765256D01*
X126886571Y-85765256D02*
X126886571Y-85527161D01*
X126886571Y-85527161D02*
X126934190Y-85431923D01*
X126934190Y-85431923D02*
X126981809Y-85384304D01*
X126981809Y-85384304D02*
X127077047Y-85336685D01*
X127077047Y-85336685D02*
X127315142Y-85336685D01*
X127315142Y-85336685D02*
X127410380Y-85384304D01*
X127410380Y-85384304D02*
X127458000Y-85431923D01*
X127458000Y-85431923D02*
X127505619Y-85527161D01*
X127505619Y-85527161D02*
X127505619Y-85765256D01*
X127505619Y-85765256D02*
X127458000Y-85860494D01*
X127458000Y-85860494D02*
X127410380Y-85908113D01*
X127804895Y-92809219D02*
X127804895Y-91809219D01*
X128376323Y-92809219D02*
X127947752Y-92237790D01*
X128376323Y-91809219D02*
X127804895Y-92380647D01*
X80148133Y-125321219D02*
X79814800Y-124845028D01*
X79576705Y-125321219D02*
X79576705Y-124321219D01*
X79576705Y-124321219D02*
X79957657Y-124321219D01*
X79957657Y-124321219D02*
X80052895Y-124368838D01*
X80052895Y-124368838D02*
X80100514Y-124416457D01*
X80100514Y-124416457D02*
X80148133Y-124511695D01*
X80148133Y-124511695D02*
X80148133Y-124654552D01*
X80148133Y-124654552D02*
X80100514Y-124749790D01*
X80100514Y-124749790D02*
X80052895Y-124797409D01*
X80052895Y-124797409D02*
X79957657Y-124845028D01*
X79957657Y-124845028D02*
X79576705Y-124845028D01*
X80529086Y-124416457D02*
X80576705Y-124368838D01*
X80576705Y-124368838D02*
X80671943Y-124321219D01*
X80671943Y-124321219D02*
X80910038Y-124321219D01*
X80910038Y-124321219D02*
X81005276Y-124368838D01*
X81005276Y-124368838D02*
X81052895Y-124416457D01*
X81052895Y-124416457D02*
X81100514Y-124511695D01*
X81100514Y-124511695D02*
X81100514Y-124606933D01*
X81100514Y-124606933D02*
X81052895Y-124749790D01*
X81052895Y-124749790D02*
X80481467Y-125321219D01*
X80481467Y-125321219D02*
X81100514Y-125321219D01*
X133783619Y-142439923D02*
X134497904Y-142439923D01*
X134497904Y-142439923D02*
X134640761Y-142487542D01*
X134640761Y-142487542D02*
X134736000Y-142582780D01*
X134736000Y-142582780D02*
X134783619Y-142725637D01*
X134783619Y-142725637D02*
X134783619Y-142820875D01*
X134783619Y-141439923D02*
X134783619Y-142011351D01*
X134783619Y-141725637D02*
X133783619Y-141725637D01*
X133783619Y-141725637D02*
X133926476Y-141820875D01*
X133926476Y-141820875D02*
X134021714Y-141916113D01*
X134021714Y-141916113D02*
X134069333Y-142011351D01*
X133783619Y-141106589D02*
X133783619Y-140439923D01*
X133783619Y-140439923D02*
X134783619Y-140868494D01*
X133871619Y-128247733D02*
X134585904Y-128247733D01*
X134585904Y-128247733D02*
X134728761Y-128295352D01*
X134728761Y-128295352D02*
X134824000Y-128390590D01*
X134824000Y-128390590D02*
X134871619Y-128533447D01*
X134871619Y-128533447D02*
X134871619Y-128628685D01*
X133871619Y-127866780D02*
X133871619Y-127247733D01*
X133871619Y-127247733D02*
X134252571Y-127581066D01*
X134252571Y-127581066D02*
X134252571Y-127438209D01*
X134252571Y-127438209D02*
X134300190Y-127342971D01*
X134300190Y-127342971D02*
X134347809Y-127295352D01*
X134347809Y-127295352D02*
X134443047Y-127247733D01*
X134443047Y-127247733D02*
X134681142Y-127247733D01*
X134681142Y-127247733D02*
X134776380Y-127295352D01*
X134776380Y-127295352D02*
X134824000Y-127342971D01*
X134824000Y-127342971D02*
X134871619Y-127438209D01*
X134871619Y-127438209D02*
X134871619Y-127723923D01*
X134871619Y-127723923D02*
X134824000Y-127819161D01*
X134824000Y-127819161D02*
X134776380Y-127866780D01*
D15*
X97021171Y-151875542D02*
X97506885Y-151875542D01*
X97506885Y-151875542D02*
X97564028Y-151846971D01*
X97564028Y-151846971D02*
X97592600Y-151818400D01*
X97592600Y-151818400D02*
X97621171Y-151761257D01*
X97621171Y-151761257D02*
X97621171Y-151646971D01*
X97621171Y-151646971D02*
X97592600Y-151589828D01*
X97592600Y-151589828D02*
X97564028Y-151561257D01*
X97564028Y-151561257D02*
X97506885Y-151532685D01*
X97506885Y-151532685D02*
X97021171Y-151532685D01*
X97621171Y-150932686D02*
X97621171Y-151275543D01*
X97621171Y-151104114D02*
X97021171Y-151104114D01*
X97021171Y-151104114D02*
X97106885Y-151161257D01*
X97106885Y-151161257D02*
X97164028Y-151218400D01*
X97164028Y-151218400D02*
X97192600Y-151275543D01*
D13*
X66043276Y-45581219D02*
X66043276Y-46295504D01*
X66043276Y-46295504D02*
X65995657Y-46438361D01*
X65995657Y-46438361D02*
X65900419Y-46533600D01*
X65900419Y-46533600D02*
X65757562Y-46581219D01*
X65757562Y-46581219D02*
X65662324Y-46581219D01*
X66471848Y-45676457D02*
X66519467Y-45628838D01*
X66519467Y-45628838D02*
X66614705Y-45581219D01*
X66614705Y-45581219D02*
X66852800Y-45581219D01*
X66852800Y-45581219D02*
X66948038Y-45628838D01*
X66948038Y-45628838D02*
X66995657Y-45676457D01*
X66995657Y-45676457D02*
X67043276Y-45771695D01*
X67043276Y-45771695D02*
X67043276Y-45866933D01*
X67043276Y-45866933D02*
X66995657Y-46009790D01*
X66995657Y-46009790D02*
X66424229Y-46581219D01*
X66424229Y-46581219D02*
X67043276Y-46581219D01*
X67519467Y-46581219D02*
X67709943Y-46581219D01*
X67709943Y-46581219D02*
X67805181Y-46533600D01*
X67805181Y-46533600D02*
X67852800Y-46485980D01*
X67852800Y-46485980D02*
X67948038Y-46343123D01*
X67948038Y-46343123D02*
X67995657Y-46152647D01*
X67995657Y-46152647D02*
X67995657Y-45771695D01*
X67995657Y-45771695D02*
X67948038Y-45676457D01*
X67948038Y-45676457D02*
X67900419Y-45628838D01*
X67900419Y-45628838D02*
X67805181Y-45581219D01*
X67805181Y-45581219D02*
X67614705Y-45581219D01*
X67614705Y-45581219D02*
X67519467Y-45628838D01*
X67519467Y-45628838D02*
X67471848Y-45676457D01*
X67471848Y-45676457D02*
X67424229Y-45771695D01*
X67424229Y-45771695D02*
X67424229Y-46009790D01*
X67424229Y-46009790D02*
X67471848Y-46105028D01*
X67471848Y-46105028D02*
X67519467Y-46152647D01*
X67519467Y-46152647D02*
X67614705Y-46200266D01*
X67614705Y-46200266D02*
X67805181Y-46200266D01*
X67805181Y-46200266D02*
X67900419Y-46152647D01*
X67900419Y-46152647D02*
X67948038Y-46105028D01*
X67948038Y-46105028D02*
X67995657Y-46009790D01*
D14*
X140577324Y-153674095D02*
X140577324Y-152874095D01*
X140577324Y-152874095D02*
X140767800Y-152874095D01*
X140767800Y-152874095D02*
X140882086Y-152912190D01*
X140882086Y-152912190D02*
X140958276Y-152988380D01*
X140958276Y-152988380D02*
X140996371Y-153064571D01*
X140996371Y-153064571D02*
X141034467Y-153216952D01*
X141034467Y-153216952D02*
X141034467Y-153331238D01*
X141034467Y-153331238D02*
X140996371Y-153483619D01*
X140996371Y-153483619D02*
X140958276Y-153559809D01*
X140958276Y-153559809D02*
X140882086Y-153636000D01*
X140882086Y-153636000D02*
X140767800Y-153674095D01*
X140767800Y-153674095D02*
X140577324Y-153674095D01*
X141720181Y-153140761D02*
X141720181Y-153674095D01*
X141529705Y-152836000D02*
X141339228Y-153407428D01*
X141339228Y-153407428D02*
X141834467Y-153407428D01*
D13*
X72911619Y-73859923D02*
X73625904Y-73859923D01*
X73625904Y-73859923D02*
X73768761Y-73907542D01*
X73768761Y-73907542D02*
X73864000Y-74002780D01*
X73864000Y-74002780D02*
X73911619Y-74145637D01*
X73911619Y-74145637D02*
X73911619Y-74240875D01*
X72911619Y-73478970D02*
X72911619Y-72859923D01*
X72911619Y-72859923D02*
X73292571Y-73193256D01*
X73292571Y-73193256D02*
X73292571Y-73050399D01*
X73292571Y-73050399D02*
X73340190Y-72955161D01*
X73340190Y-72955161D02*
X73387809Y-72907542D01*
X73387809Y-72907542D02*
X73483047Y-72859923D01*
X73483047Y-72859923D02*
X73721142Y-72859923D01*
X73721142Y-72859923D02*
X73816380Y-72907542D01*
X73816380Y-72907542D02*
X73864000Y-72955161D01*
X73864000Y-72955161D02*
X73911619Y-73050399D01*
X73911619Y-73050399D02*
X73911619Y-73336113D01*
X73911619Y-73336113D02*
X73864000Y-73431351D01*
X73864000Y-73431351D02*
X73816380Y-73478970D01*
X72911619Y-72002780D02*
X72911619Y-72193256D01*
X72911619Y-72193256D02*
X72959238Y-72288494D01*
X72959238Y-72288494D02*
X73006857Y-72336113D01*
X73006857Y-72336113D02*
X73149714Y-72431351D01*
X73149714Y-72431351D02*
X73340190Y-72478970D01*
X73340190Y-72478970D02*
X73721142Y-72478970D01*
X73721142Y-72478970D02*
X73816380Y-72431351D01*
X73816380Y-72431351D02*
X73864000Y-72383732D01*
X73864000Y-72383732D02*
X73911619Y-72288494D01*
X73911619Y-72288494D02*
X73911619Y-72098018D01*
X73911619Y-72098018D02*
X73864000Y-72002780D01*
X73864000Y-72002780D02*
X73816380Y-71955161D01*
X73816380Y-71955161D02*
X73721142Y-71907542D01*
X73721142Y-71907542D02*
X73483047Y-71907542D01*
X73483047Y-71907542D02*
X73387809Y-71955161D01*
X73387809Y-71955161D02*
X73340190Y-72002780D01*
X73340190Y-72002780D02*
X73292571Y-72098018D01*
X73292571Y-72098018D02*
X73292571Y-72288494D01*
X73292571Y-72288494D02*
X73340190Y-72383732D01*
X73340190Y-72383732D02*
X73387809Y-72431351D01*
X73387809Y-72431351D02*
X73483047Y-72478970D01*
X80148133Y-128623219D02*
X79814800Y-128147028D01*
X79576705Y-128623219D02*
X79576705Y-127623219D01*
X79576705Y-127623219D02*
X79957657Y-127623219D01*
X79957657Y-127623219D02*
X80052895Y-127670838D01*
X80052895Y-127670838D02*
X80100514Y-127718457D01*
X80100514Y-127718457D02*
X80148133Y-127813695D01*
X80148133Y-127813695D02*
X80148133Y-127956552D01*
X80148133Y-127956552D02*
X80100514Y-128051790D01*
X80100514Y-128051790D02*
X80052895Y-128099409D01*
X80052895Y-128099409D02*
X79957657Y-128147028D01*
X79957657Y-128147028D02*
X79576705Y-128147028D01*
X80481467Y-127623219D02*
X81100514Y-127623219D01*
X81100514Y-127623219D02*
X80767181Y-128004171D01*
X80767181Y-128004171D02*
X80910038Y-128004171D01*
X80910038Y-128004171D02*
X81005276Y-128051790D01*
X81005276Y-128051790D02*
X81052895Y-128099409D01*
X81052895Y-128099409D02*
X81100514Y-128194647D01*
X81100514Y-128194647D02*
X81100514Y-128432742D01*
X81100514Y-128432742D02*
X81052895Y-128527980D01*
X81052895Y-128527980D02*
X81005276Y-128575600D01*
X81005276Y-128575600D02*
X80910038Y-128623219D01*
X80910038Y-128623219D02*
X80624324Y-128623219D01*
X80624324Y-128623219D02*
X80529086Y-128575600D01*
X80529086Y-128575600D02*
X80481467Y-128527980D01*
X132345133Y-165072219D02*
X132011800Y-164596028D01*
X131773705Y-165072219D02*
X131773705Y-164072219D01*
X131773705Y-164072219D02*
X132154657Y-164072219D01*
X132154657Y-164072219D02*
X132249895Y-164119838D01*
X132249895Y-164119838D02*
X132297514Y-164167457D01*
X132297514Y-164167457D02*
X132345133Y-164262695D01*
X132345133Y-164262695D02*
X132345133Y-164405552D01*
X132345133Y-164405552D02*
X132297514Y-164500790D01*
X132297514Y-164500790D02*
X132249895Y-164548409D01*
X132249895Y-164548409D02*
X132154657Y-164596028D01*
X132154657Y-164596028D02*
X131773705Y-164596028D01*
X133249895Y-164072219D02*
X132773705Y-164072219D01*
X132773705Y-164072219D02*
X132726086Y-164548409D01*
X132726086Y-164548409D02*
X132773705Y-164500790D01*
X132773705Y-164500790D02*
X132868943Y-164453171D01*
X132868943Y-164453171D02*
X133107038Y-164453171D01*
X133107038Y-164453171D02*
X133202276Y-164500790D01*
X133202276Y-164500790D02*
X133249895Y-164548409D01*
X133249895Y-164548409D02*
X133297514Y-164643647D01*
X133297514Y-164643647D02*
X133297514Y-164881742D01*
X133297514Y-164881742D02*
X133249895Y-164976980D01*
X133249895Y-164976980D02*
X133202276Y-165024600D01*
X133202276Y-165024600D02*
X133107038Y-165072219D01*
X133107038Y-165072219D02*
X132868943Y-165072219D01*
X132868943Y-165072219D02*
X132773705Y-165024600D01*
X132773705Y-165024600D02*
X132726086Y-164976980D01*
X57163619Y-65096923D02*
X57877904Y-65096923D01*
X57877904Y-65096923D02*
X58020761Y-65144542D01*
X58020761Y-65144542D02*
X58116000Y-65239780D01*
X58116000Y-65239780D02*
X58163619Y-65382637D01*
X58163619Y-65382637D02*
X58163619Y-65477875D01*
X57258857Y-64668351D02*
X57211238Y-64620732D01*
X57211238Y-64620732D02*
X57163619Y-64525494D01*
X57163619Y-64525494D02*
X57163619Y-64287399D01*
X57163619Y-64287399D02*
X57211238Y-64192161D01*
X57211238Y-64192161D02*
X57258857Y-64144542D01*
X57258857Y-64144542D02*
X57354095Y-64096923D01*
X57354095Y-64096923D02*
X57449333Y-64096923D01*
X57449333Y-64096923D02*
X57592190Y-64144542D01*
X57592190Y-64144542D02*
X58163619Y-64715970D01*
X58163619Y-64715970D02*
X58163619Y-64096923D01*
X57496952Y-63239780D02*
X58163619Y-63239780D01*
X57116000Y-63477875D02*
X57830285Y-63715970D01*
X57830285Y-63715970D02*
X57830285Y-63096923D01*
X48781619Y-153869923D02*
X49495904Y-153869923D01*
X49495904Y-153869923D02*
X49638761Y-153917542D01*
X49638761Y-153917542D02*
X49734000Y-154012780D01*
X49734000Y-154012780D02*
X49781619Y-154155637D01*
X49781619Y-154155637D02*
X49781619Y-154250875D01*
X48876857Y-153441351D02*
X48829238Y-153393732D01*
X48829238Y-153393732D02*
X48781619Y-153298494D01*
X48781619Y-153298494D02*
X48781619Y-153060399D01*
X48781619Y-153060399D02*
X48829238Y-152965161D01*
X48829238Y-152965161D02*
X48876857Y-152917542D01*
X48876857Y-152917542D02*
X48972095Y-152869923D01*
X48972095Y-152869923D02*
X49067333Y-152869923D01*
X49067333Y-152869923D02*
X49210190Y-152917542D01*
X49210190Y-152917542D02*
X49781619Y-153488970D01*
X49781619Y-153488970D02*
X49781619Y-152869923D01*
X48781619Y-152012780D02*
X48781619Y-152203256D01*
X48781619Y-152203256D02*
X48829238Y-152298494D01*
X48829238Y-152298494D02*
X48876857Y-152346113D01*
X48876857Y-152346113D02*
X49019714Y-152441351D01*
X49019714Y-152441351D02*
X49210190Y-152488970D01*
X49210190Y-152488970D02*
X49591142Y-152488970D01*
X49591142Y-152488970D02*
X49686380Y-152441351D01*
X49686380Y-152441351D02*
X49734000Y-152393732D01*
X49734000Y-152393732D02*
X49781619Y-152298494D01*
X49781619Y-152298494D02*
X49781619Y-152108018D01*
X49781619Y-152108018D02*
X49734000Y-152012780D01*
X49734000Y-152012780D02*
X49686380Y-151965161D01*
X49686380Y-151965161D02*
X49591142Y-151917542D01*
X49591142Y-151917542D02*
X49353047Y-151917542D01*
X49353047Y-151917542D02*
X49257809Y-151965161D01*
X49257809Y-151965161D02*
X49210190Y-152012780D01*
X49210190Y-152012780D02*
X49162571Y-152108018D01*
X49162571Y-152108018D02*
X49162571Y-152298494D01*
X49162571Y-152298494D02*
X49210190Y-152393732D01*
X49210190Y-152393732D02*
X49257809Y-152441351D01*
X49257809Y-152441351D02*
X49353047Y-152488970D01*
X118123619Y-102307923D02*
X118837904Y-102307923D01*
X118837904Y-102307923D02*
X118980761Y-102355542D01*
X118980761Y-102355542D02*
X119076000Y-102450780D01*
X119076000Y-102450780D02*
X119123619Y-102593637D01*
X119123619Y-102593637D02*
X119123619Y-102688875D01*
X118123619Y-101926970D02*
X118123619Y-101307923D01*
X118123619Y-101307923D02*
X118504571Y-101641256D01*
X118504571Y-101641256D02*
X118504571Y-101498399D01*
X118504571Y-101498399D02*
X118552190Y-101403161D01*
X118552190Y-101403161D02*
X118599809Y-101355542D01*
X118599809Y-101355542D02*
X118695047Y-101307923D01*
X118695047Y-101307923D02*
X118933142Y-101307923D01*
X118933142Y-101307923D02*
X119028380Y-101355542D01*
X119028380Y-101355542D02*
X119076000Y-101403161D01*
X119076000Y-101403161D02*
X119123619Y-101498399D01*
X119123619Y-101498399D02*
X119123619Y-101784113D01*
X119123619Y-101784113D02*
X119076000Y-101879351D01*
X119076000Y-101879351D02*
X119028380Y-101926970D01*
X118123619Y-100974589D02*
X118123619Y-100307923D01*
X118123619Y-100307923D02*
X119123619Y-100736494D01*
X66043276Y-45581219D02*
X66043276Y-46295504D01*
X66043276Y-46295504D02*
X65995657Y-46438361D01*
X65995657Y-46438361D02*
X65900419Y-46533600D01*
X65900419Y-46533600D02*
X65757562Y-46581219D01*
X65757562Y-46581219D02*
X65662324Y-46581219D01*
X66424229Y-45581219D02*
X67043276Y-45581219D01*
X67043276Y-45581219D02*
X66709943Y-45962171D01*
X66709943Y-45962171D02*
X66852800Y-45962171D01*
X66852800Y-45962171D02*
X66948038Y-46009790D01*
X66948038Y-46009790D02*
X66995657Y-46057409D01*
X66995657Y-46057409D02*
X67043276Y-46152647D01*
X67043276Y-46152647D02*
X67043276Y-46390742D01*
X67043276Y-46390742D02*
X66995657Y-46485980D01*
X66995657Y-46485980D02*
X66948038Y-46533600D01*
X66948038Y-46533600D02*
X66852800Y-46581219D01*
X66852800Y-46581219D02*
X66567086Y-46581219D01*
X66567086Y-46581219D02*
X66471848Y-46533600D01*
X66471848Y-46533600D02*
X66424229Y-46485980D01*
X67995657Y-46581219D02*
X67424229Y-46581219D01*
X67709943Y-46581219D02*
X67709943Y-45581219D01*
X67709943Y-45581219D02*
X67614705Y-45724076D01*
X67614705Y-45724076D02*
X67519467Y-45819314D01*
X67519467Y-45819314D02*
X67424229Y-45866933D01*
X55795942Y-156055219D02*
X55462609Y-155579028D01*
X55224514Y-156055219D02*
X55224514Y-155055219D01*
X55224514Y-155055219D02*
X55605466Y-155055219D01*
X55605466Y-155055219D02*
X55700704Y-155102838D01*
X55700704Y-155102838D02*
X55748323Y-155150457D01*
X55748323Y-155150457D02*
X55795942Y-155245695D01*
X55795942Y-155245695D02*
X55795942Y-155388552D01*
X55795942Y-155388552D02*
X55748323Y-155483790D01*
X55748323Y-155483790D02*
X55700704Y-155531409D01*
X55700704Y-155531409D02*
X55605466Y-155579028D01*
X55605466Y-155579028D02*
X55224514Y-155579028D01*
X56748323Y-156055219D02*
X56176895Y-156055219D01*
X56462609Y-156055219D02*
X56462609Y-155055219D01*
X56462609Y-155055219D02*
X56367371Y-155198076D01*
X56367371Y-155198076D02*
X56272133Y-155293314D01*
X56272133Y-155293314D02*
X56176895Y-155340933D01*
X57605466Y-155055219D02*
X57414990Y-155055219D01*
X57414990Y-155055219D02*
X57319752Y-155102838D01*
X57319752Y-155102838D02*
X57272133Y-155150457D01*
X57272133Y-155150457D02*
X57176895Y-155293314D01*
X57176895Y-155293314D02*
X57129276Y-155483790D01*
X57129276Y-155483790D02*
X57129276Y-155864742D01*
X57129276Y-155864742D02*
X57176895Y-155959980D01*
X57176895Y-155959980D02*
X57224514Y-156007600D01*
X57224514Y-156007600D02*
X57319752Y-156055219D01*
X57319752Y-156055219D02*
X57510228Y-156055219D01*
X57510228Y-156055219D02*
X57605466Y-156007600D01*
X57605466Y-156007600D02*
X57653085Y-155959980D01*
X57653085Y-155959980D02*
X57700704Y-155864742D01*
X57700704Y-155864742D02*
X57700704Y-155626647D01*
X57700704Y-155626647D02*
X57653085Y-155531409D01*
X57653085Y-155531409D02*
X57605466Y-155483790D01*
X57605466Y-155483790D02*
X57510228Y-155436171D01*
X57510228Y-155436171D02*
X57319752Y-155436171D01*
X57319752Y-155436171D02*
X57224514Y-155483790D01*
X57224514Y-155483790D02*
X57176895Y-155531409D01*
X57176895Y-155531409D02*
X57129276Y-155626647D01*
X64685942Y-161135219D02*
X64352609Y-160659028D01*
X64114514Y-161135219D02*
X64114514Y-160135219D01*
X64114514Y-160135219D02*
X64495466Y-160135219D01*
X64495466Y-160135219D02*
X64590704Y-160182838D01*
X64590704Y-160182838D02*
X64638323Y-160230457D01*
X64638323Y-160230457D02*
X64685942Y-160325695D01*
X64685942Y-160325695D02*
X64685942Y-160468552D01*
X64685942Y-160468552D02*
X64638323Y-160563790D01*
X64638323Y-160563790D02*
X64590704Y-160611409D01*
X64590704Y-160611409D02*
X64495466Y-160659028D01*
X64495466Y-160659028D02*
X64114514Y-160659028D01*
X65638323Y-161135219D02*
X65066895Y-161135219D01*
X65352609Y-161135219D02*
X65352609Y-160135219D01*
X65352609Y-160135219D02*
X65257371Y-160278076D01*
X65257371Y-160278076D02*
X65162133Y-160373314D01*
X65162133Y-160373314D02*
X65066895Y-160420933D01*
X66543085Y-160135219D02*
X66066895Y-160135219D01*
X66066895Y-160135219D02*
X66019276Y-160611409D01*
X66019276Y-160611409D02*
X66066895Y-160563790D01*
X66066895Y-160563790D02*
X66162133Y-160516171D01*
X66162133Y-160516171D02*
X66400228Y-160516171D01*
X66400228Y-160516171D02*
X66495466Y-160563790D01*
X66495466Y-160563790D02*
X66543085Y-160611409D01*
X66543085Y-160611409D02*
X66590704Y-160706647D01*
X66590704Y-160706647D02*
X66590704Y-160944742D01*
X66590704Y-160944742D02*
X66543085Y-161039980D01*
X66543085Y-161039980D02*
X66495466Y-161087600D01*
X66495466Y-161087600D02*
X66400228Y-161135219D01*
X66400228Y-161135219D02*
X66162133Y-161135219D01*
X66162133Y-161135219D02*
X66066895Y-161087600D01*
X66066895Y-161087600D02*
X66019276Y-161039980D01*
X114225619Y-93465257D02*
X113749428Y-93798590D01*
X114225619Y-94036685D02*
X113225619Y-94036685D01*
X113225619Y-94036685D02*
X113225619Y-93655733D01*
X113225619Y-93655733D02*
X113273238Y-93560495D01*
X113273238Y-93560495D02*
X113320857Y-93512876D01*
X113320857Y-93512876D02*
X113416095Y-93465257D01*
X113416095Y-93465257D02*
X113558952Y-93465257D01*
X113558952Y-93465257D02*
X113654190Y-93512876D01*
X113654190Y-93512876D02*
X113701809Y-93560495D01*
X113701809Y-93560495D02*
X113749428Y-93655733D01*
X113749428Y-93655733D02*
X113749428Y-94036685D01*
X114225619Y-92512876D02*
X114225619Y-93084304D01*
X114225619Y-92798590D02*
X113225619Y-92798590D01*
X113225619Y-92798590D02*
X113368476Y-92893828D01*
X113368476Y-92893828D02*
X113463714Y-92989066D01*
X113463714Y-92989066D02*
X113511333Y-93084304D01*
X113320857Y-92131923D02*
X113273238Y-92084304D01*
X113273238Y-92084304D02*
X113225619Y-91989066D01*
X113225619Y-91989066D02*
X113225619Y-91750971D01*
X113225619Y-91750971D02*
X113273238Y-91655733D01*
X113273238Y-91655733D02*
X113320857Y-91608114D01*
X113320857Y-91608114D02*
X113416095Y-91560495D01*
X113416095Y-91560495D02*
X113511333Y-91560495D01*
X113511333Y-91560495D02*
X113654190Y-91608114D01*
X113654190Y-91608114D02*
X114225619Y-92179542D01*
X114225619Y-92179542D02*
X114225619Y-91560495D01*
X48564895Y-166723219D02*
X48564895Y-165723219D01*
X48564895Y-166199409D02*
X49136323Y-166199409D01*
X49136323Y-166723219D02*
X49136323Y-165723219D01*
X49517276Y-165723219D02*
X50136323Y-165723219D01*
X50136323Y-165723219D02*
X49802990Y-166104171D01*
X49802990Y-166104171D02*
X49945847Y-166104171D01*
X49945847Y-166104171D02*
X50041085Y-166151790D01*
X50041085Y-166151790D02*
X50088704Y-166199409D01*
X50088704Y-166199409D02*
X50136323Y-166294647D01*
X50136323Y-166294647D02*
X50136323Y-166532742D01*
X50136323Y-166532742D02*
X50088704Y-166627980D01*
X50088704Y-166627980D02*
X50041085Y-166675600D01*
X50041085Y-166675600D02*
X49945847Y-166723219D01*
X49945847Y-166723219D02*
X49660133Y-166723219D01*
X49660133Y-166723219D02*
X49564895Y-166675600D01*
X49564895Y-166675600D02*
X49517276Y-166627980D01*
X137255619Y-88955733D02*
X137969904Y-88955733D01*
X137969904Y-88955733D02*
X138112761Y-89003352D01*
X138112761Y-89003352D02*
X138208000Y-89098590D01*
X138208000Y-89098590D02*
X138255619Y-89241447D01*
X138255619Y-89241447D02*
X138255619Y-89336685D01*
X138255619Y-87955733D02*
X138255619Y-88527161D01*
X138255619Y-88241447D02*
X137255619Y-88241447D01*
X137255619Y-88241447D02*
X137398476Y-88336685D01*
X137398476Y-88336685D02*
X137493714Y-88431923D01*
X137493714Y-88431923D02*
X137541333Y-88527161D01*
X68368942Y-82553980D02*
X68321323Y-82601600D01*
X68321323Y-82601600D02*
X68178466Y-82649219D01*
X68178466Y-82649219D02*
X68083228Y-82649219D01*
X68083228Y-82649219D02*
X67940371Y-82601600D01*
X67940371Y-82601600D02*
X67845133Y-82506361D01*
X67845133Y-82506361D02*
X67797514Y-82411123D01*
X67797514Y-82411123D02*
X67749895Y-82220647D01*
X67749895Y-82220647D02*
X67749895Y-82077790D01*
X67749895Y-82077790D02*
X67797514Y-81887314D01*
X67797514Y-81887314D02*
X67845133Y-81792076D01*
X67845133Y-81792076D02*
X67940371Y-81696838D01*
X67940371Y-81696838D02*
X68083228Y-81649219D01*
X68083228Y-81649219D02*
X68178466Y-81649219D01*
X68178466Y-81649219D02*
X68321323Y-81696838D01*
X68321323Y-81696838D02*
X68368942Y-81744457D01*
X69321323Y-82649219D02*
X68749895Y-82649219D01*
X69035609Y-82649219D02*
X69035609Y-81649219D01*
X69035609Y-81649219D02*
X68940371Y-81792076D01*
X68940371Y-81792076D02*
X68845133Y-81887314D01*
X68845133Y-81887314D02*
X68749895Y-81934933D01*
X69654657Y-81649219D02*
X70321323Y-81649219D01*
X70321323Y-81649219D02*
X69892752Y-82649219D01*
X125743619Y-72589923D02*
X126457904Y-72589923D01*
X126457904Y-72589923D02*
X126600761Y-72637542D01*
X126600761Y-72637542D02*
X126696000Y-72732780D01*
X126696000Y-72732780D02*
X126743619Y-72875637D01*
X126743619Y-72875637D02*
X126743619Y-72970875D01*
X125743619Y-72208970D02*
X125743619Y-71589923D01*
X125743619Y-71589923D02*
X126124571Y-71923256D01*
X126124571Y-71923256D02*
X126124571Y-71780399D01*
X126124571Y-71780399D02*
X126172190Y-71685161D01*
X126172190Y-71685161D02*
X126219809Y-71637542D01*
X126219809Y-71637542D02*
X126315047Y-71589923D01*
X126315047Y-71589923D02*
X126553142Y-71589923D01*
X126553142Y-71589923D02*
X126648380Y-71637542D01*
X126648380Y-71637542D02*
X126696000Y-71685161D01*
X126696000Y-71685161D02*
X126743619Y-71780399D01*
X126743619Y-71780399D02*
X126743619Y-72066113D01*
X126743619Y-72066113D02*
X126696000Y-72161351D01*
X126696000Y-72161351D02*
X126648380Y-72208970D01*
X125838857Y-71208970D02*
X125791238Y-71161351D01*
X125791238Y-71161351D02*
X125743619Y-71066113D01*
X125743619Y-71066113D02*
X125743619Y-70828018D01*
X125743619Y-70828018D02*
X125791238Y-70732780D01*
X125791238Y-70732780D02*
X125838857Y-70685161D01*
X125838857Y-70685161D02*
X125934095Y-70637542D01*
X125934095Y-70637542D02*
X126029333Y-70637542D01*
X126029333Y-70637542D02*
X126172190Y-70685161D01*
X126172190Y-70685161D02*
X126743619Y-71256589D01*
X126743619Y-71256589D02*
X126743619Y-70637542D01*
X125614133Y-110335219D02*
X125280800Y-109859028D01*
X125042705Y-110335219D02*
X125042705Y-109335219D01*
X125042705Y-109335219D02*
X125423657Y-109335219D01*
X125423657Y-109335219D02*
X125518895Y-109382838D01*
X125518895Y-109382838D02*
X125566514Y-109430457D01*
X125566514Y-109430457D02*
X125614133Y-109525695D01*
X125614133Y-109525695D02*
X125614133Y-109668552D01*
X125614133Y-109668552D02*
X125566514Y-109763790D01*
X125566514Y-109763790D02*
X125518895Y-109811409D01*
X125518895Y-109811409D02*
X125423657Y-109859028D01*
X125423657Y-109859028D02*
X125042705Y-109859028D01*
X126471276Y-109335219D02*
X126280800Y-109335219D01*
X126280800Y-109335219D02*
X126185562Y-109382838D01*
X126185562Y-109382838D02*
X126137943Y-109430457D01*
X126137943Y-109430457D02*
X126042705Y-109573314D01*
X126042705Y-109573314D02*
X125995086Y-109763790D01*
X125995086Y-109763790D02*
X125995086Y-110144742D01*
X125995086Y-110144742D02*
X126042705Y-110239980D01*
X126042705Y-110239980D02*
X126090324Y-110287600D01*
X126090324Y-110287600D02*
X126185562Y-110335219D01*
X126185562Y-110335219D02*
X126376038Y-110335219D01*
X126376038Y-110335219D02*
X126471276Y-110287600D01*
X126471276Y-110287600D02*
X126518895Y-110239980D01*
X126518895Y-110239980D02*
X126566514Y-110144742D01*
X126566514Y-110144742D02*
X126566514Y-109906647D01*
X126566514Y-109906647D02*
X126518895Y-109811409D01*
X126518895Y-109811409D02*
X126471276Y-109763790D01*
X126471276Y-109763790D02*
X126376038Y-109716171D01*
X126376038Y-109716171D02*
X126185562Y-109716171D01*
X126185562Y-109716171D02*
X126090324Y-109763790D01*
X126090324Y-109763790D02*
X126042705Y-109811409D01*
X126042705Y-109811409D02*
X125995086Y-109906647D01*
X125614133Y-116939219D02*
X125280800Y-116463028D01*
X125042705Y-116939219D02*
X125042705Y-115939219D01*
X125042705Y-115939219D02*
X125423657Y-115939219D01*
X125423657Y-115939219D02*
X125518895Y-115986838D01*
X125518895Y-115986838D02*
X125566514Y-116034457D01*
X125566514Y-116034457D02*
X125614133Y-116129695D01*
X125614133Y-116129695D02*
X125614133Y-116272552D01*
X125614133Y-116272552D02*
X125566514Y-116367790D01*
X125566514Y-116367790D02*
X125518895Y-116415409D01*
X125518895Y-116415409D02*
X125423657Y-116463028D01*
X125423657Y-116463028D02*
X125042705Y-116463028D01*
X126185562Y-116367790D02*
X126090324Y-116320171D01*
X126090324Y-116320171D02*
X126042705Y-116272552D01*
X126042705Y-116272552D02*
X125995086Y-116177314D01*
X125995086Y-116177314D02*
X125995086Y-116129695D01*
X125995086Y-116129695D02*
X126042705Y-116034457D01*
X126042705Y-116034457D02*
X126090324Y-115986838D01*
X126090324Y-115986838D02*
X126185562Y-115939219D01*
X126185562Y-115939219D02*
X126376038Y-115939219D01*
X126376038Y-115939219D02*
X126471276Y-115986838D01*
X126471276Y-115986838D02*
X126518895Y-116034457D01*
X126518895Y-116034457D02*
X126566514Y-116129695D01*
X126566514Y-116129695D02*
X126566514Y-116177314D01*
X126566514Y-116177314D02*
X126518895Y-116272552D01*
X126518895Y-116272552D02*
X126471276Y-116320171D01*
X126471276Y-116320171D02*
X126376038Y-116367790D01*
X126376038Y-116367790D02*
X126185562Y-116367790D01*
X126185562Y-116367790D02*
X126090324Y-116415409D01*
X126090324Y-116415409D02*
X126042705Y-116463028D01*
X126042705Y-116463028D02*
X125995086Y-116558266D01*
X125995086Y-116558266D02*
X125995086Y-116748742D01*
X125995086Y-116748742D02*
X126042705Y-116843980D01*
X126042705Y-116843980D02*
X126090324Y-116891600D01*
X126090324Y-116891600D02*
X126185562Y-116939219D01*
X126185562Y-116939219D02*
X126376038Y-116939219D01*
X126376038Y-116939219D02*
X126471276Y-116891600D01*
X126471276Y-116891600D02*
X126518895Y-116843980D01*
X126518895Y-116843980D02*
X126566514Y-116748742D01*
X126566514Y-116748742D02*
X126566514Y-116558266D01*
X126566514Y-116558266D02*
X126518895Y-116463028D01*
X126518895Y-116463028D02*
X126471276Y-116415409D01*
X126471276Y-116415409D02*
X126376038Y-116367790D01*
X99444276Y-42914219D02*
X99444276Y-43628504D01*
X99444276Y-43628504D02*
X99396657Y-43771361D01*
X99396657Y-43771361D02*
X99301419Y-43866600D01*
X99301419Y-43866600D02*
X99158562Y-43914219D01*
X99158562Y-43914219D02*
X99063324Y-43914219D01*
X99872848Y-43009457D02*
X99920467Y-42961838D01*
X99920467Y-42961838D02*
X100015705Y-42914219D01*
X100015705Y-42914219D02*
X100253800Y-42914219D01*
X100253800Y-42914219D02*
X100349038Y-42961838D01*
X100349038Y-42961838D02*
X100396657Y-43009457D01*
X100396657Y-43009457D02*
X100444276Y-43104695D01*
X100444276Y-43104695D02*
X100444276Y-43199933D01*
X100444276Y-43199933D02*
X100396657Y-43342790D01*
X100396657Y-43342790D02*
X99825229Y-43914219D01*
X99825229Y-43914219D02*
X100444276Y-43914219D01*
X100777610Y-42914219D02*
X101444276Y-42914219D01*
X101444276Y-42914219D02*
X101015705Y-43914219D01*
D16*
X70244702Y-106184351D02*
X70625655Y-106184351D01*
X69825655Y-106451018D02*
X70244702Y-106184351D01*
X70244702Y-106184351D02*
X69825655Y-105917685D01*
X69901845Y-105689114D02*
X69863750Y-105651018D01*
X69863750Y-105651018D02*
X69825655Y-105574828D01*
X69825655Y-105574828D02*
X69825655Y-105384352D01*
X69825655Y-105384352D02*
X69863750Y-105308161D01*
X69863750Y-105308161D02*
X69901845Y-105270066D01*
X69901845Y-105270066D02*
X69978036Y-105231971D01*
X69978036Y-105231971D02*
X70054226Y-105231971D01*
X70054226Y-105231971D02*
X70168512Y-105270066D01*
X70168512Y-105270066D02*
X70625655Y-105727209D01*
X70625655Y-105727209D02*
X70625655Y-105231971D01*
D13*
X118280857Y-82467638D02*
X118233238Y-82562876D01*
X118233238Y-82562876D02*
X118138000Y-82658114D01*
X118138000Y-82658114D02*
X117995142Y-82800971D01*
X117995142Y-82800971D02*
X117947523Y-82896209D01*
X117947523Y-82896209D02*
X117947523Y-82991447D01*
X118185619Y-82943828D02*
X118138000Y-83039066D01*
X118138000Y-83039066D02*
X118042761Y-83134304D01*
X118042761Y-83134304D02*
X117852285Y-83181923D01*
X117852285Y-83181923D02*
X117518952Y-83181923D01*
X117518952Y-83181923D02*
X117328476Y-83134304D01*
X117328476Y-83134304D02*
X117233238Y-83039066D01*
X117233238Y-83039066D02*
X117185619Y-82943828D01*
X117185619Y-82943828D02*
X117185619Y-82753352D01*
X117185619Y-82753352D02*
X117233238Y-82658114D01*
X117233238Y-82658114D02*
X117328476Y-82562876D01*
X117328476Y-82562876D02*
X117518952Y-82515257D01*
X117518952Y-82515257D02*
X117852285Y-82515257D01*
X117852285Y-82515257D02*
X118042761Y-82562876D01*
X118042761Y-82562876D02*
X118138000Y-82658114D01*
X118138000Y-82658114D02*
X118185619Y-82753352D01*
X118185619Y-82753352D02*
X118185619Y-82943828D01*
X118185619Y-81562876D02*
X118185619Y-82134304D01*
X118185619Y-81848590D02*
X117185619Y-81848590D01*
X117185619Y-81848590D02*
X117328476Y-81943828D01*
X117328476Y-81943828D02*
X117423714Y-82039066D01*
X117423714Y-82039066D02*
X117471333Y-82134304D01*
X82335467Y-67905600D02*
X82478324Y-67953219D01*
X82478324Y-67953219D02*
X82716419Y-67953219D01*
X82716419Y-67953219D02*
X82811657Y-67905600D01*
X82811657Y-67905600D02*
X82859276Y-67857980D01*
X82859276Y-67857980D02*
X82906895Y-67762742D01*
X82906895Y-67762742D02*
X82906895Y-67667504D01*
X82906895Y-67667504D02*
X82859276Y-67572266D01*
X82859276Y-67572266D02*
X82811657Y-67524647D01*
X82811657Y-67524647D02*
X82716419Y-67477028D01*
X82716419Y-67477028D02*
X82525943Y-67429409D01*
X82525943Y-67429409D02*
X82430705Y-67381790D01*
X82430705Y-67381790D02*
X82383086Y-67334171D01*
X82383086Y-67334171D02*
X82335467Y-67238933D01*
X82335467Y-67238933D02*
X82335467Y-67143695D01*
X82335467Y-67143695D02*
X82383086Y-67048457D01*
X82383086Y-67048457D02*
X82430705Y-67000838D01*
X82430705Y-67000838D02*
X82525943Y-66953219D01*
X82525943Y-66953219D02*
X82764038Y-66953219D01*
X82764038Y-66953219D02*
X82906895Y-67000838D01*
X83240229Y-66953219D02*
X83478324Y-67953219D01*
X83478324Y-67953219D02*
X83668800Y-67238933D01*
X83668800Y-67238933D02*
X83859276Y-67953219D01*
X83859276Y-67953219D02*
X84097372Y-66953219D01*
X85002133Y-67953219D02*
X84430705Y-67953219D01*
X84716419Y-67953219D02*
X84716419Y-66953219D01*
X84716419Y-66953219D02*
X84621181Y-67096076D01*
X84621181Y-67096076D02*
X84525943Y-67191314D01*
X84525943Y-67191314D02*
X84430705Y-67238933D01*
X133871619Y-156409923D02*
X134585904Y-156409923D01*
X134585904Y-156409923D02*
X134728761Y-156457542D01*
X134728761Y-156457542D02*
X134824000Y-156552780D01*
X134824000Y-156552780D02*
X134871619Y-156695637D01*
X134871619Y-156695637D02*
X134871619Y-156790875D01*
X134871619Y-155409923D02*
X134871619Y-155981351D01*
X134871619Y-155695637D02*
X133871619Y-155695637D01*
X133871619Y-155695637D02*
X134014476Y-155790875D01*
X134014476Y-155790875D02*
X134109714Y-155886113D01*
X134109714Y-155886113D02*
X134157333Y-155981351D01*
X134300190Y-154838494D02*
X134252571Y-154933732D01*
X134252571Y-154933732D02*
X134204952Y-154981351D01*
X134204952Y-154981351D02*
X134109714Y-155028970D01*
X134109714Y-155028970D02*
X134062095Y-155028970D01*
X134062095Y-155028970D02*
X133966857Y-154981351D01*
X133966857Y-154981351D02*
X133919238Y-154933732D01*
X133919238Y-154933732D02*
X133871619Y-154838494D01*
X133871619Y-154838494D02*
X133871619Y-154648018D01*
X133871619Y-154648018D02*
X133919238Y-154552780D01*
X133919238Y-154552780D02*
X133966857Y-154505161D01*
X133966857Y-154505161D02*
X134062095Y-154457542D01*
X134062095Y-154457542D02*
X134109714Y-154457542D01*
X134109714Y-154457542D02*
X134204952Y-154505161D01*
X134204952Y-154505161D02*
X134252571Y-154552780D01*
X134252571Y-154552780D02*
X134300190Y-154648018D01*
X134300190Y-154648018D02*
X134300190Y-154838494D01*
X134300190Y-154838494D02*
X134347809Y-154933732D01*
X134347809Y-154933732D02*
X134395428Y-154981351D01*
X134395428Y-154981351D02*
X134490666Y-155028970D01*
X134490666Y-155028970D02*
X134681142Y-155028970D01*
X134681142Y-155028970D02*
X134776380Y-154981351D01*
X134776380Y-154981351D02*
X134824000Y-154933732D01*
X134824000Y-154933732D02*
X134871619Y-154838494D01*
X134871619Y-154838494D02*
X134871619Y-154648018D01*
X134871619Y-154648018D02*
X134824000Y-154552780D01*
X134824000Y-154552780D02*
X134776380Y-154505161D01*
X134776380Y-154505161D02*
X134681142Y-154457542D01*
X134681142Y-154457542D02*
X134490666Y-154457542D01*
X134490666Y-154457542D02*
X134395428Y-154505161D01*
X134395428Y-154505161D02*
X134347809Y-154552780D01*
X134347809Y-154552780D02*
X134300190Y-154648018D01*
D17*
X94428632Y-152860066D02*
X94447680Y-152879114D01*
X94447680Y-152879114D02*
X94466727Y-152936256D01*
X94466727Y-152936256D02*
X94466727Y-152974352D01*
X94466727Y-152974352D02*
X94447680Y-153031495D01*
X94447680Y-153031495D02*
X94409584Y-153069590D01*
X94409584Y-153069590D02*
X94371489Y-153088637D01*
X94371489Y-153088637D02*
X94295299Y-153107685D01*
X94295299Y-153107685D02*
X94238156Y-153107685D01*
X94238156Y-153107685D02*
X94161965Y-153088637D01*
X94161965Y-153088637D02*
X94123870Y-153069590D01*
X94123870Y-153069590D02*
X94085775Y-153031495D01*
X94085775Y-153031495D02*
X94066727Y-152974352D01*
X94066727Y-152974352D02*
X94066727Y-152936256D01*
X94066727Y-152936256D02*
X94085775Y-152879114D01*
X94085775Y-152879114D02*
X94104822Y-152860066D01*
X94466727Y-152479114D02*
X94466727Y-152707685D01*
X94466727Y-152593399D02*
X94066727Y-152593399D01*
X94066727Y-152593399D02*
X94123870Y-152631495D01*
X94123870Y-152631495D02*
X94161965Y-152669590D01*
X94161965Y-152669590D02*
X94181013Y-152707685D01*
D13*
X124219276Y-39206219D02*
X124219276Y-39920504D01*
X124219276Y-39920504D02*
X124171657Y-40063361D01*
X124171657Y-40063361D02*
X124076419Y-40158600D01*
X124076419Y-40158600D02*
X123933562Y-40206219D01*
X123933562Y-40206219D02*
X123838324Y-40206219D01*
X125219276Y-40206219D02*
X124647848Y-40206219D01*
X124933562Y-40206219D02*
X124933562Y-39206219D01*
X124933562Y-39206219D02*
X124838324Y-39349076D01*
X124838324Y-39349076D02*
X124743086Y-39444314D01*
X124743086Y-39444314D02*
X124647848Y-39491933D01*
X126076419Y-39539552D02*
X126076419Y-40206219D01*
X125838324Y-39158600D02*
X125600229Y-39872885D01*
X125600229Y-39872885D02*
X126219276Y-39872885D01*
X63503276Y-49391219D02*
X63503276Y-50105504D01*
X63503276Y-50105504D02*
X63455657Y-50248361D01*
X63455657Y-50248361D02*
X63360419Y-50343600D01*
X63360419Y-50343600D02*
X63217562Y-50391219D01*
X63217562Y-50391219D02*
X63122324Y-50391219D01*
X63931848Y-49486457D02*
X63979467Y-49438838D01*
X63979467Y-49438838D02*
X64074705Y-49391219D01*
X64074705Y-49391219D02*
X64312800Y-49391219D01*
X64312800Y-49391219D02*
X64408038Y-49438838D01*
X64408038Y-49438838D02*
X64455657Y-49486457D01*
X64455657Y-49486457D02*
X64503276Y-49581695D01*
X64503276Y-49581695D02*
X64503276Y-49676933D01*
X64503276Y-49676933D02*
X64455657Y-49819790D01*
X64455657Y-49819790D02*
X63884229Y-50391219D01*
X63884229Y-50391219D02*
X64503276Y-50391219D01*
X65074705Y-49819790D02*
X64979467Y-49772171D01*
X64979467Y-49772171D02*
X64931848Y-49724552D01*
X64931848Y-49724552D02*
X64884229Y-49629314D01*
X64884229Y-49629314D02*
X64884229Y-49581695D01*
X64884229Y-49581695D02*
X64931848Y-49486457D01*
X64931848Y-49486457D02*
X64979467Y-49438838D01*
X64979467Y-49438838D02*
X65074705Y-49391219D01*
X65074705Y-49391219D02*
X65265181Y-49391219D01*
X65265181Y-49391219D02*
X65360419Y-49438838D01*
X65360419Y-49438838D02*
X65408038Y-49486457D01*
X65408038Y-49486457D02*
X65455657Y-49581695D01*
X65455657Y-49581695D02*
X65455657Y-49629314D01*
X65455657Y-49629314D02*
X65408038Y-49724552D01*
X65408038Y-49724552D02*
X65360419Y-49772171D01*
X65360419Y-49772171D02*
X65265181Y-49819790D01*
X65265181Y-49819790D02*
X65074705Y-49819790D01*
X65074705Y-49819790D02*
X64979467Y-49867409D01*
X64979467Y-49867409D02*
X64931848Y-49915028D01*
X64931848Y-49915028D02*
X64884229Y-50010266D01*
X64884229Y-50010266D02*
X64884229Y-50200742D01*
X64884229Y-50200742D02*
X64931848Y-50295980D01*
X64931848Y-50295980D02*
X64979467Y-50343600D01*
X64979467Y-50343600D02*
X65074705Y-50391219D01*
X65074705Y-50391219D02*
X65265181Y-50391219D01*
X65265181Y-50391219D02*
X65360419Y-50343600D01*
X65360419Y-50343600D02*
X65408038Y-50295980D01*
X65408038Y-50295980D02*
X65455657Y-50200742D01*
X65455657Y-50200742D02*
X65455657Y-50010266D01*
X65455657Y-50010266D02*
X65408038Y-49915028D01*
X65408038Y-49915028D02*
X65360419Y-49867409D01*
X65360419Y-49867409D02*
X65265181Y-49819790D01*
X117361619Y-69795923D02*
X118075904Y-69795923D01*
X118075904Y-69795923D02*
X118218761Y-69843542D01*
X118218761Y-69843542D02*
X118314000Y-69938780D01*
X118314000Y-69938780D02*
X118361619Y-70081637D01*
X118361619Y-70081637D02*
X118361619Y-70176875D01*
X117361619Y-69414970D02*
X117361619Y-68795923D01*
X117361619Y-68795923D02*
X117742571Y-69129256D01*
X117742571Y-69129256D02*
X117742571Y-68986399D01*
X117742571Y-68986399D02*
X117790190Y-68891161D01*
X117790190Y-68891161D02*
X117837809Y-68843542D01*
X117837809Y-68843542D02*
X117933047Y-68795923D01*
X117933047Y-68795923D02*
X118171142Y-68795923D01*
X118171142Y-68795923D02*
X118266380Y-68843542D01*
X118266380Y-68843542D02*
X118314000Y-68891161D01*
X118314000Y-68891161D02*
X118361619Y-68986399D01*
X118361619Y-68986399D02*
X118361619Y-69272113D01*
X118361619Y-69272113D02*
X118314000Y-69367351D01*
X118314000Y-69367351D02*
X118266380Y-69414970D01*
X117694952Y-67938780D02*
X118361619Y-67938780D01*
X117314000Y-68176875D02*
X118028285Y-68414970D01*
X118028285Y-68414970D02*
X118028285Y-67795923D01*
X80148133Y-131925219D02*
X79814800Y-131449028D01*
X79576705Y-131925219D02*
X79576705Y-130925219D01*
X79576705Y-130925219D02*
X79957657Y-130925219D01*
X79957657Y-130925219D02*
X80052895Y-130972838D01*
X80052895Y-130972838D02*
X80100514Y-131020457D01*
X80100514Y-131020457D02*
X80148133Y-131115695D01*
X80148133Y-131115695D02*
X80148133Y-131258552D01*
X80148133Y-131258552D02*
X80100514Y-131353790D01*
X80100514Y-131353790D02*
X80052895Y-131401409D01*
X80052895Y-131401409D02*
X79957657Y-131449028D01*
X79957657Y-131449028D02*
X79576705Y-131449028D01*
X81005276Y-131258552D02*
X81005276Y-131925219D01*
X80767181Y-130877600D02*
X80529086Y-131591885D01*
X80529086Y-131591885D02*
X81148133Y-131591885D01*
D14*
X135370324Y-111510095D02*
X135370324Y-110710095D01*
X135370324Y-110710095D02*
X135560800Y-110710095D01*
X135560800Y-110710095D02*
X135675086Y-110748190D01*
X135675086Y-110748190D02*
X135751276Y-110824380D01*
X135751276Y-110824380D02*
X135789371Y-110900571D01*
X135789371Y-110900571D02*
X135827467Y-111052952D01*
X135827467Y-111052952D02*
X135827467Y-111167238D01*
X135827467Y-111167238D02*
X135789371Y-111319619D01*
X135789371Y-111319619D02*
X135751276Y-111395809D01*
X135751276Y-111395809D02*
X135675086Y-111472000D01*
X135675086Y-111472000D02*
X135560800Y-111510095D01*
X135560800Y-111510095D02*
X135370324Y-111510095D01*
X136132228Y-110786285D02*
X136170324Y-110748190D01*
X136170324Y-110748190D02*
X136246514Y-110710095D01*
X136246514Y-110710095D02*
X136436990Y-110710095D01*
X136436990Y-110710095D02*
X136513181Y-110748190D01*
X136513181Y-110748190D02*
X136551276Y-110786285D01*
X136551276Y-110786285D02*
X136589371Y-110862476D01*
X136589371Y-110862476D02*
X136589371Y-110938666D01*
X136589371Y-110938666D02*
X136551276Y-111052952D01*
X136551276Y-111052952D02*
X136094133Y-111510095D01*
X136094133Y-111510095D02*
X136589371Y-111510095D01*
D13*
X117091619Y-82869066D02*
X116615428Y-83202399D01*
X117091619Y-83440494D02*
X116091619Y-83440494D01*
X116091619Y-83440494D02*
X116091619Y-83059542D01*
X116091619Y-83059542D02*
X116139238Y-82964304D01*
X116139238Y-82964304D02*
X116186857Y-82916685D01*
X116186857Y-82916685D02*
X116282095Y-82869066D01*
X116282095Y-82869066D02*
X116424952Y-82869066D01*
X116424952Y-82869066D02*
X116520190Y-82916685D01*
X116520190Y-82916685D02*
X116567809Y-82964304D01*
X116567809Y-82964304D02*
X116615428Y-83059542D01*
X116615428Y-83059542D02*
X116615428Y-83440494D01*
X117091619Y-82392875D02*
X117091619Y-82202399D01*
X117091619Y-82202399D02*
X117044000Y-82107161D01*
X117044000Y-82107161D02*
X116996380Y-82059542D01*
X116996380Y-82059542D02*
X116853523Y-81964304D01*
X116853523Y-81964304D02*
X116663047Y-81916685D01*
X116663047Y-81916685D02*
X116282095Y-81916685D01*
X116282095Y-81916685D02*
X116186857Y-81964304D01*
X116186857Y-81964304D02*
X116139238Y-82011923D01*
X116139238Y-82011923D02*
X116091619Y-82107161D01*
X116091619Y-82107161D02*
X116091619Y-82297637D01*
X116091619Y-82297637D02*
X116139238Y-82392875D01*
X116139238Y-82392875D02*
X116186857Y-82440494D01*
X116186857Y-82440494D02*
X116282095Y-82488113D01*
X116282095Y-82488113D02*
X116520190Y-82488113D01*
X116520190Y-82488113D02*
X116615428Y-82440494D01*
X116615428Y-82440494D02*
X116663047Y-82392875D01*
X116663047Y-82392875D02*
X116710666Y-82297637D01*
X116710666Y-82297637D02*
X116710666Y-82107161D01*
X116710666Y-82107161D02*
X116663047Y-82011923D01*
X116663047Y-82011923D02*
X116615428Y-81964304D01*
X116615428Y-81964304D02*
X116520190Y-81916685D01*
X119549942Y-90523219D02*
X119216609Y-90047028D01*
X118978514Y-90523219D02*
X118978514Y-89523219D01*
X118978514Y-89523219D02*
X119359466Y-89523219D01*
X119359466Y-89523219D02*
X119454704Y-89570838D01*
X119454704Y-89570838D02*
X119502323Y-89618457D01*
X119502323Y-89618457D02*
X119549942Y-89713695D01*
X119549942Y-89713695D02*
X119549942Y-89856552D01*
X119549942Y-89856552D02*
X119502323Y-89951790D01*
X119502323Y-89951790D02*
X119454704Y-89999409D01*
X119454704Y-89999409D02*
X119359466Y-90047028D01*
X119359466Y-90047028D02*
X118978514Y-90047028D01*
X120502323Y-90523219D02*
X119930895Y-90523219D01*
X120216609Y-90523219D02*
X120216609Y-89523219D01*
X120216609Y-89523219D02*
X120121371Y-89666076D01*
X120121371Y-89666076D02*
X120026133Y-89761314D01*
X120026133Y-89761314D02*
X119930895Y-89808933D01*
X121359466Y-89856552D02*
X121359466Y-90523219D01*
X121121371Y-89475600D02*
X120883276Y-90189885D01*
X120883276Y-90189885D02*
X121502323Y-90189885D01*
X55795942Y-150721219D02*
X55462609Y-150245028D01*
X55224514Y-150721219D02*
X55224514Y-149721219D01*
X55224514Y-149721219D02*
X55605466Y-149721219D01*
X55605466Y-149721219D02*
X55700704Y-149768838D01*
X55700704Y-149768838D02*
X55748323Y-149816457D01*
X55748323Y-149816457D02*
X55795942Y-149911695D01*
X55795942Y-149911695D02*
X55795942Y-150054552D01*
X55795942Y-150054552D02*
X55748323Y-150149790D01*
X55748323Y-150149790D02*
X55700704Y-150197409D01*
X55700704Y-150197409D02*
X55605466Y-150245028D01*
X55605466Y-150245028D02*
X55224514Y-150245028D01*
X56748323Y-150721219D02*
X56176895Y-150721219D01*
X56462609Y-150721219D02*
X56462609Y-149721219D01*
X56462609Y-149721219D02*
X56367371Y-149864076D01*
X56367371Y-149864076D02*
X56272133Y-149959314D01*
X56272133Y-149959314D02*
X56176895Y-150006933D01*
X57367371Y-149721219D02*
X57462609Y-149721219D01*
X57462609Y-149721219D02*
X57557847Y-149768838D01*
X57557847Y-149768838D02*
X57605466Y-149816457D01*
X57605466Y-149816457D02*
X57653085Y-149911695D01*
X57653085Y-149911695D02*
X57700704Y-150102171D01*
X57700704Y-150102171D02*
X57700704Y-150340266D01*
X57700704Y-150340266D02*
X57653085Y-150530742D01*
X57653085Y-150530742D02*
X57605466Y-150625980D01*
X57605466Y-150625980D02*
X57557847Y-150673600D01*
X57557847Y-150673600D02*
X57462609Y-150721219D01*
X57462609Y-150721219D02*
X57367371Y-150721219D01*
X57367371Y-150721219D02*
X57272133Y-150673600D01*
X57272133Y-150673600D02*
X57224514Y-150625980D01*
X57224514Y-150625980D02*
X57176895Y-150530742D01*
X57176895Y-150530742D02*
X57129276Y-150340266D01*
X57129276Y-150340266D02*
X57129276Y-150102171D01*
X57129276Y-150102171D02*
X57176895Y-149911695D01*
X57176895Y-149911695D02*
X57224514Y-149816457D01*
X57224514Y-149816457D02*
X57272133Y-149768838D01*
X57272133Y-149768838D02*
X57367371Y-149721219D01*
X53771895Y-103821219D02*
X54343323Y-103821219D01*
X54057609Y-104821219D02*
X54057609Y-103821219D01*
X55105228Y-104154552D02*
X55105228Y-104821219D01*
X54867133Y-103773600D02*
X54629038Y-104487885D01*
X54629038Y-104487885D02*
X55248085Y-104487885D01*
X71270619Y-91296494D02*
X72080142Y-91296494D01*
X72080142Y-91296494D02*
X72175380Y-91248875D01*
X72175380Y-91248875D02*
X72223000Y-91201256D01*
X72223000Y-91201256D02*
X72270619Y-91106018D01*
X72270619Y-91106018D02*
X72270619Y-90915542D01*
X72270619Y-90915542D02*
X72223000Y-90820304D01*
X72223000Y-90820304D02*
X72175380Y-90772685D01*
X72175380Y-90772685D02*
X72080142Y-90725066D01*
X72080142Y-90725066D02*
X71270619Y-90725066D01*
X72270619Y-89725066D02*
X72270619Y-90296494D01*
X72270619Y-90010780D02*
X71270619Y-90010780D01*
X71270619Y-90010780D02*
X71413476Y-90106018D01*
X71413476Y-90106018D02*
X71508714Y-90201256D01*
X71508714Y-90201256D02*
X71556333Y-90296494D01*
X71603952Y-88867923D02*
X72270619Y-88867923D01*
X71223000Y-89106018D02*
X71937285Y-89344113D01*
X71937285Y-89344113D02*
X71937285Y-88725066D01*
X99930466Y-38063219D02*
X99930466Y-38777504D01*
X99930466Y-38777504D02*
X99882847Y-38920361D01*
X99882847Y-38920361D02*
X99787609Y-39015600D01*
X99787609Y-39015600D02*
X99644752Y-39063219D01*
X99644752Y-39063219D02*
X99549514Y-39063219D01*
X100359038Y-38158457D02*
X100406657Y-38110838D01*
X100406657Y-38110838D02*
X100501895Y-38063219D01*
X100501895Y-38063219D02*
X100739990Y-38063219D01*
X100739990Y-38063219D02*
X100835228Y-38110838D01*
X100835228Y-38110838D02*
X100882847Y-38158457D01*
X100882847Y-38158457D02*
X100930466Y-38253695D01*
X100930466Y-38253695D02*
X100930466Y-38348933D01*
X100930466Y-38348933D02*
X100882847Y-38491790D01*
X100882847Y-38491790D02*
X100311419Y-39063219D01*
X100311419Y-39063219D02*
X100930466Y-39063219D01*
D15*
%TO.C,R7*%
X121970800Y-113182400D02*
X122630800Y-113182400D01*
X122630800Y-111932400D02*
X122630800Y-114432400D01*
X122630800Y-114432400D02*
X128930800Y-114432400D01*
X128930800Y-111932400D02*
X122630800Y-111932400D01*
X128930800Y-114432400D02*
X128930800Y-111932400D01*
X129590800Y-113182400D02*
X128930800Y-113182400D01*
%TO.C,J25*%
X56463800Y-56565400D02*
X58368800Y-56565400D01*
X56463800Y-71805400D02*
X56463800Y-56565400D01*
X58368800Y-56565400D02*
X59003800Y-57200400D01*
X59003800Y-57200400D02*
X59003800Y-71805400D01*
X59003800Y-71805400D02*
X56463800Y-71805400D01*
%TO.C,RV1*%
X39162800Y-81400400D02*
X39162800Y-87400400D01*
X39162800Y-87400400D02*
X49162800Y-87400400D01*
X49162800Y-80900400D02*
X49162800Y-87900400D01*
X49162800Y-81400400D02*
X39162800Y-81400400D01*
X49162800Y-87900400D02*
X54162800Y-87900400D01*
X54162800Y-75450400D02*
X54162800Y-93350400D01*
X54162800Y-80900400D02*
X49162800Y-80900400D01*
X54162800Y-93350400D02*
X64662800Y-93350400D01*
X64662800Y-75450400D02*
X54162800Y-75450400D01*
X64662800Y-93350400D02*
X64662800Y-75450400D01*
%TO.C,J30*%
X120954800Y-68366400D02*
X121589800Y-67731400D01*
X120954800Y-75351400D02*
X120954800Y-68366400D01*
X121589800Y-67731400D02*
X123494800Y-67731400D01*
X123494800Y-67731400D02*
X123494800Y-75351400D01*
X123494800Y-75351400D02*
X120954800Y-75351400D01*
%TO.C,D3*%
X138440800Y-119224094D02*
X138440800Y-116284706D01*
X138440800Y-119224094D02*
G75*
G02*
X138440816Y-116284734I-2500000J1469694D01*
G01*
X138440800Y-117754400D02*
G75*
G02*
X133440800Y-117754400I-2500000J0D01*
G01*
X133440800Y-117754400D02*
G75*
G02*
X138440800Y-117754400I2500000J0D01*
G01*
%TO.C,SW4*%
X90522800Y-72336400D02*
X93522800Y-72336400D01*
X90522800Y-78336400D02*
X90522800Y-72336400D01*
X93522800Y-72336400D02*
X96522800Y-72336400D01*
X96522800Y-72336400D02*
X96522800Y-78336400D01*
X96522800Y-78336400D02*
X90522800Y-78336400D01*
X95538364Y-75336400D02*
G75*
G02*
X91507236Y-75336400I-2015564J0D01*
G01*
X91507236Y-75336400D02*
G75*
G02*
X95538364Y-75336400I2015564J0D01*
G01*
%TO.C,J4*%
X61010800Y-107340400D02*
X66090800Y-107340400D01*
X61010800Y-144440400D02*
X61010800Y-107340400D01*
X62010800Y-145440400D02*
X61010800Y-144440400D01*
X66090800Y-107340400D02*
X66090800Y-145440400D01*
X66090800Y-145440400D02*
X62010800Y-145440400D01*
%TO.C,R27*%
X78790800Y-89687400D02*
X79450800Y-89687400D01*
X79450800Y-88437400D02*
X79450800Y-90937400D01*
X79450800Y-90937400D02*
X85750800Y-90937400D01*
X85750800Y-88437400D02*
X79450800Y-88437400D01*
X85750800Y-90937400D02*
X85750800Y-88437400D01*
X86410800Y-89687400D02*
X85750800Y-89687400D01*
%TO.C,J16*%
X103682800Y-48920400D02*
X111302800Y-48920400D01*
X103682800Y-52730400D02*
X103682800Y-48920400D01*
X104952800Y-54000400D02*
X103682800Y-52730400D01*
X111302800Y-48920400D02*
X111302800Y-54000400D01*
X111302800Y-54000400D02*
X104952800Y-54000400D01*
%TO.C,J22*%
X119948800Y-39116400D02*
X120583800Y-38481400D01*
X119948800Y-41021400D02*
X119948800Y-39116400D01*
X120583800Y-38481400D02*
X130108800Y-38481400D01*
X130108800Y-38481400D02*
X130108800Y-41021400D01*
X130108800Y-41021400D02*
X119948800Y-41021400D01*
%TO.C,J6*%
X93776800Y-107340400D02*
X98856800Y-107340400D01*
X93776800Y-145440400D02*
X93776800Y-107340400D01*
X97586800Y-145440400D02*
X93776800Y-145440400D01*
X98856800Y-107340400D02*
X98856800Y-144170400D01*
X98856800Y-144170400D02*
X97586800Y-145440400D01*
%TO.C,J7*%
X53644800Y-107340400D02*
X58724800Y-107340400D01*
X53644800Y-145440400D02*
X53644800Y-107340400D01*
X57454800Y-145440400D02*
X53644800Y-145440400D01*
X58724800Y-107340400D02*
X58724800Y-144170400D01*
X58724800Y-144170400D02*
X57454800Y-145440400D01*
%TO.C,JP7*%
X78155800Y-91973400D02*
X83235800Y-91973400D01*
X78155800Y-93878400D02*
X78155800Y-91973400D01*
X78790800Y-94513400D02*
X78155800Y-93878400D01*
X83235800Y-91973400D02*
X83235800Y-94513400D01*
X83235800Y-94513400D02*
X78790800Y-94513400D01*
%TO.C,J33*%
X129470800Y-67248400D02*
X139270800Y-67248400D01*
X129470800Y-77248400D02*
X129470800Y-67248400D01*
X132370800Y-77248400D02*
X132370800Y-67248400D01*
X133532800Y-68793400D02*
X135625800Y-70885400D01*
X133532800Y-73793400D02*
X135625800Y-75886400D01*
X133715800Y-68610400D02*
X135808800Y-70702400D01*
X133715800Y-73610400D02*
X135808800Y-75703400D01*
X137270800Y-77248400D02*
X137270800Y-67248400D01*
X138770800Y-77248400D02*
X129470800Y-77248400D01*
X138770800Y-77248400D02*
X138770800Y-67248400D01*
X139270800Y-67248400D02*
X139270800Y-76748400D01*
X139270800Y-76748400D02*
X138770800Y-77248400D01*
X136170800Y-69748400D02*
G75*
G02*
X133170800Y-69748400I-1500000J0D01*
G01*
X133170800Y-69748400D02*
G75*
G02*
X136170800Y-69748400I1500000J0D01*
G01*
X136170800Y-74748400D02*
G75*
G02*
X133170800Y-74748400I-1500000J0D01*
G01*
X133170800Y-74748400D02*
G75*
G02*
X136170800Y-74748400I1500000J0D01*
G01*
%TO.C,SW2*%
X90522800Y-56588400D02*
X93522800Y-56588400D01*
X90522800Y-62588400D02*
X90522800Y-56588400D01*
X93522800Y-56588400D02*
X96522800Y-56588400D01*
X96522800Y-56588400D02*
X96522800Y-62588400D01*
X96522800Y-62588400D02*
X90522800Y-62588400D01*
X95538364Y-59588400D02*
G75*
G02*
X91507236Y-59588400I-2015564J0D01*
G01*
X91507236Y-59588400D02*
G75*
G02*
X95538364Y-59588400I2015564J0D01*
G01*
%TO.C,R1*%
X76504800Y-134772400D02*
X77164800Y-134772400D01*
X77164800Y-133522400D02*
X77164800Y-136022400D01*
X77164800Y-136022400D02*
X83464800Y-136022400D01*
X83464800Y-133522400D02*
X77164800Y-133522400D01*
X83464800Y-136022400D02*
X83464800Y-133522400D01*
X84124800Y-134772400D02*
X83464800Y-134772400D01*
%TO.C,J23*%
X95173800Y-37998400D02*
X95808800Y-37363400D01*
X95173800Y-39903400D02*
X95173800Y-37998400D01*
X95808800Y-37363400D02*
X105333800Y-37363400D01*
X105333800Y-37363400D02*
X105333800Y-39903400D01*
X105333800Y-39903400D02*
X95173800Y-39903400D01*
%TO.C,D1*%
X138440800Y-106016094D02*
X138440800Y-103076706D01*
X138440800Y-106016094D02*
G75*
G02*
X138440816Y-103076734I-2500000J1469694D01*
G01*
X138440800Y-104546400D02*
G75*
G02*
X133440800Y-104546400I-2500000J0D01*
G01*
X133440800Y-104546400D02*
G75*
G02*
X138440800Y-104546400I2500000J0D01*
G01*
%TO.C,U2*%
X119425800Y-94592400D02*
X120425800Y-93592400D01*
X119425800Y-98672400D02*
X119425800Y-94592400D01*
X120425800Y-93592400D02*
X125775800Y-93592400D01*
X125775800Y-93592400D02*
X125775800Y-98672400D01*
X125775800Y-98672400D02*
X119425800Y-98672400D01*
%TO.C,J35*%
X49834800Y-120939400D02*
X50469800Y-120304400D01*
X49834800Y-130464400D02*
X49834800Y-120939400D01*
X50469800Y-120304400D02*
X52374800Y-120304400D01*
X52374800Y-120304400D02*
X52374800Y-130464400D01*
X52374800Y-130464400D02*
X49834800Y-130464400D01*
%TO.C,J5*%
X86410800Y-107340400D02*
X91490800Y-107340400D01*
X86410800Y-144440400D02*
X86410800Y-107340400D01*
X87410800Y-145440400D02*
X86410800Y-144440400D01*
X91490800Y-107340400D02*
X91490800Y-145440400D01*
X91490800Y-145440400D02*
X87410800Y-145440400D01*
%TO.C,SW3*%
X100480800Y-64426400D02*
X103480800Y-64426400D01*
X100480800Y-70426400D02*
X100480800Y-64426400D01*
X103480800Y-64426400D02*
X106480800Y-64426400D01*
X106480800Y-64426400D02*
X106480800Y-70426400D01*
X106480800Y-70426400D02*
X100480800Y-70426400D01*
X105496364Y-67426400D02*
G75*
G02*
X101465236Y-67426400I-2015564J0D01*
G01*
X101465236Y-67426400D02*
G75*
G02*
X105496364Y-67426400I2015564J0D01*
G01*
%TO.C,D12*%
X73765106Y-84186400D02*
X76704494Y-84186400D01*
X73765106Y-84186400D02*
G75*
G02*
X76704466Y-84186416I1469694J2500000D01*
G01*
X77734800Y-81686400D02*
G75*
G02*
X72734800Y-81686400I-2500000J0D01*
G01*
X72734800Y-81686400D02*
G75*
G02*
X77734800Y-81686400I2500000J0D01*
G01*
%TO.C,D5*%
X125700800Y-83912400D02*
X125700800Y-89112400D01*
X125700800Y-88232400D02*
X128400800Y-88232400D01*
X125700800Y-88332400D02*
X128400800Y-88332400D01*
X125700800Y-88432400D02*
X128400800Y-88432400D01*
X125700800Y-89112400D02*
X128400800Y-89112400D01*
X127050800Y-82702400D02*
X127050800Y-83912400D01*
X127050800Y-90322400D02*
X127050800Y-89112400D01*
X128400800Y-83912400D02*
X125700800Y-83912400D01*
X128400800Y-89112400D02*
X128400800Y-83912400D01*
%TO.C,R2*%
X76504800Y-124866400D02*
X77164800Y-124866400D01*
X77164800Y-123616400D02*
X77164800Y-126116400D01*
X77164800Y-126116400D02*
X83464800Y-126116400D01*
X83464800Y-123616400D02*
X77164800Y-123616400D01*
X83464800Y-126116400D02*
X83464800Y-123616400D01*
X84124800Y-124866400D02*
X83464800Y-124866400D01*
%TO.C,J17*%
X131788800Y-137820400D02*
X133058800Y-136550400D01*
X131788800Y-146710400D02*
X131788800Y-137820400D01*
X133058800Y-136550400D02*
X136868800Y-136550400D01*
X136868800Y-136550400D02*
X136868800Y-146710400D01*
X136868800Y-146710400D02*
X131788800Y-146710400D01*
%TO.C,J3*%
X131876800Y-124104400D02*
X133146800Y-122834400D01*
X131876800Y-132994400D02*
X131876800Y-124104400D01*
X133146800Y-122834400D02*
X136956800Y-122834400D01*
X136956800Y-122834400D02*
X136956800Y-132994400D01*
X136956800Y-132994400D02*
X131876800Y-132994400D01*
%TO.C,U1*%
X95848800Y-149918400D02*
X98848800Y-149918400D01*
X95848800Y-151918400D02*
X95848800Y-149918400D01*
X96848800Y-152918400D02*
X95848800Y-151918400D01*
X98848800Y-149918400D02*
X98848800Y-152918400D01*
X98848800Y-152918400D02*
X96848800Y-152918400D01*
%TO.C,J29*%
X59232800Y-44856400D02*
X74472800Y-44856400D01*
X59232800Y-47396400D02*
X59232800Y-44856400D01*
X73837800Y-47396400D02*
X59232800Y-47396400D01*
X74472800Y-44856400D02*
X74472800Y-46761400D01*
X74472800Y-46761400D02*
X73837800Y-47396400D01*
%TO.C,D4*%
X143647800Y-154784094D02*
X143647800Y-151844706D01*
X143647800Y-154784094D02*
G75*
G02*
X143647816Y-151844734I-2500000J1469694D01*
G01*
X143647800Y-153314400D02*
G75*
G02*
X138647800Y-153314400I-2500000J0D01*
G01*
X138647800Y-153314400D02*
G75*
G02*
X143647800Y-153314400I2500000J0D01*
G01*
%TO.C,J36*%
X72186800Y-69875400D02*
X72821800Y-69240400D01*
X72186800Y-76860400D02*
X72186800Y-69875400D01*
X72821800Y-69240400D02*
X74726800Y-69240400D01*
X74726800Y-69240400D02*
X74726800Y-76860400D01*
X74726800Y-76860400D02*
X72186800Y-76860400D01*
%TO.C,R3*%
X76504800Y-128168400D02*
X77164800Y-128168400D01*
X77164800Y-126918400D02*
X77164800Y-129418400D01*
X77164800Y-129418400D02*
X83464800Y-129418400D01*
X83464800Y-126918400D02*
X77164800Y-126918400D01*
X83464800Y-129418400D02*
X83464800Y-126918400D01*
X84124800Y-128168400D02*
X83464800Y-128168400D01*
%TO.C,R5*%
X128701800Y-164617400D02*
X129361800Y-164617400D01*
X129361800Y-163367400D02*
X129361800Y-165867400D01*
X129361800Y-165867400D02*
X135661800Y-165867400D01*
X135661800Y-163367400D02*
X129361800Y-163367400D01*
X135661800Y-165867400D02*
X135661800Y-163367400D01*
X136321800Y-164617400D02*
X135661800Y-164617400D01*
%TO.C,J24*%
X56438800Y-56667400D02*
X58343800Y-56667400D01*
X56438800Y-71907400D02*
X56438800Y-56667400D01*
X58343800Y-56667400D02*
X58978800Y-57302400D01*
X58978800Y-57302400D02*
X58978800Y-71907400D01*
X58978800Y-71907400D02*
X56438800Y-71907400D01*
%TO.C,J26*%
X48056800Y-149885400D02*
X48691800Y-149250400D01*
X48056800Y-156870400D02*
X48056800Y-149885400D01*
X48691800Y-149250400D02*
X50596800Y-149250400D01*
X50596800Y-149250400D02*
X50596800Y-156870400D01*
X50596800Y-156870400D02*
X48056800Y-156870400D01*
%TO.C,J37*%
X117398800Y-100863400D02*
X118033800Y-100228400D01*
X117398800Y-102768400D02*
X117398800Y-100863400D01*
X118033800Y-100228400D02*
X119938800Y-100228400D01*
X119938800Y-100228400D02*
X119938800Y-102768400D01*
X119938800Y-102768400D02*
X117398800Y-102768400D01*
%TO.C,J31*%
X61772800Y-45491400D02*
X62407800Y-44856400D01*
X61772800Y-47396400D02*
X61772800Y-45491400D01*
X62407800Y-44856400D02*
X71932800Y-44856400D01*
X71932800Y-44856400D02*
X71932800Y-47396400D01*
X71932800Y-47396400D02*
X61772800Y-47396400D01*
%TO.C,R16*%
X52628800Y-155600400D02*
X53288800Y-155600400D01*
X53288800Y-154350400D02*
X53288800Y-156850400D01*
X53288800Y-156850400D02*
X59588800Y-156850400D01*
X59588800Y-154350400D02*
X53288800Y-154350400D01*
X59588800Y-156850400D02*
X59588800Y-154350400D01*
X60248800Y-155600400D02*
X59588800Y-155600400D01*
%TO.C,R15*%
X61518800Y-160680400D02*
X62178800Y-160680400D01*
X62178800Y-159430400D02*
X62178800Y-161930400D01*
X62178800Y-161930400D02*
X68478800Y-161930400D01*
X68478800Y-159430400D02*
X62178800Y-159430400D01*
X68478800Y-161930400D02*
X68478800Y-159430400D01*
X69138800Y-160680400D02*
X68478800Y-160680400D01*
%TO.C,R12*%
X112520800Y-89672400D02*
X112520800Y-95972400D01*
X112520800Y-95972400D02*
X115020800Y-95972400D01*
X113770800Y-89012400D02*
X113770800Y-89672400D01*
X113770800Y-96632400D02*
X113770800Y-95972400D01*
X115020800Y-89672400D02*
X112520800Y-89672400D01*
X115020800Y-95972400D02*
X115020800Y-89672400D01*
%TO.C,J1*%
X129400800Y-78462400D02*
X139200800Y-78462400D01*
X129400800Y-98782400D02*
X129400800Y-78462400D01*
X132300800Y-98782400D02*
X132300800Y-78462400D01*
X133462800Y-80047400D02*
X135555800Y-82139400D01*
X133462800Y-85127400D02*
X135555800Y-87219400D01*
X133462800Y-90207400D02*
X135555800Y-92299400D01*
X133462800Y-95287400D02*
X135555800Y-97380400D01*
X133645800Y-79864400D02*
X135738800Y-81956400D01*
X133645800Y-84944400D02*
X135738800Y-87036400D01*
X133645800Y-90024400D02*
X135738800Y-92116400D01*
X133645800Y-95104400D02*
X135738800Y-97197400D01*
X137200800Y-98782400D02*
X137200800Y-78462400D01*
X138700800Y-98782400D02*
X129400800Y-98782400D01*
X138700800Y-98782400D02*
X138700800Y-78462400D01*
X139200800Y-78462400D02*
X139200800Y-98282400D01*
X139200800Y-98282400D02*
X138700800Y-98782400D01*
X136100800Y-81002400D02*
G75*
G02*
X133100800Y-81002400I-1500000J0D01*
G01*
X133100800Y-81002400D02*
G75*
G02*
X136100800Y-81002400I1500000J0D01*
G01*
X136100800Y-86082400D02*
G75*
G02*
X133100800Y-86082400I-1500000J0D01*
G01*
X133100800Y-86082400D02*
G75*
G02*
X136100800Y-86082400I1500000J0D01*
G01*
X136100800Y-91162400D02*
G75*
G02*
X133100800Y-91162400I-1500000J0D01*
G01*
X133100800Y-91162400D02*
G75*
G02*
X136100800Y-91162400I1500000J0D01*
G01*
X136100800Y-96242400D02*
G75*
G02*
X133100800Y-96242400I-1500000J0D01*
G01*
X133100800Y-96242400D02*
G75*
G02*
X136100800Y-96242400I1500000J0D01*
G01*
%TO.C,C17*%
X71511800Y-82194400D02*
G75*
G02*
X66511800Y-82194400I-2500000J0D01*
G01*
X66511800Y-82194400D02*
G75*
G02*
X71511800Y-82194400I2500000J0D01*
G01*
%TO.C,J32*%
X125018800Y-68605400D02*
X125653800Y-67970400D01*
X125018800Y-75590400D02*
X125018800Y-68605400D01*
X125653800Y-67970400D02*
X127558800Y-67970400D01*
X127558800Y-67970400D02*
X127558800Y-75590400D01*
X127558800Y-75590400D02*
X125018800Y-75590400D01*
%TO.C,R6*%
X121970800Y-109880400D02*
X122630800Y-109880400D01*
X122630800Y-108630400D02*
X122630800Y-111130400D01*
X122630800Y-111130400D02*
X128930800Y-111130400D01*
X128930800Y-108630400D02*
X122630800Y-108630400D01*
X128930800Y-111130400D02*
X128930800Y-108630400D01*
X129590800Y-109880400D02*
X128930800Y-109880400D01*
%TO.C,R8*%
X121970800Y-116484400D02*
X122630800Y-116484400D01*
X122630800Y-115234400D02*
X122630800Y-117734400D01*
X122630800Y-117734400D02*
X128930800Y-117734400D01*
X128930800Y-115234400D02*
X122630800Y-115234400D01*
X128930800Y-117734400D02*
X128930800Y-115234400D01*
X129590800Y-116484400D02*
X128930800Y-116484400D01*
%TO.C,J27*%
X97713800Y-42189400D02*
X102793800Y-42189400D01*
X97713800Y-44094400D02*
X97713800Y-42189400D01*
X98348800Y-44729400D02*
X97713800Y-44094400D01*
X102793800Y-42189400D02*
X102793800Y-44729400D01*
X102793800Y-44729400D02*
X98348800Y-44729400D01*
%TO.C,Y2*%
X68781800Y-100053400D02*
X68781800Y-110553400D01*
X68781800Y-110553400D02*
X71781800Y-110553400D01*
X69011800Y-98553400D02*
X69011800Y-97053400D01*
X69681800Y-100053400D02*
X69011800Y-98553400D01*
X70881800Y-100053400D02*
X71551800Y-98553400D01*
X71551800Y-98553400D02*
X71551800Y-97053400D01*
X71781800Y-100053400D02*
X68781800Y-100053400D01*
X71781800Y-110553400D02*
X71781800Y-100053400D01*
%TO.C,Q1*%
X118850800Y-77372400D02*
X118850800Y-87372400D01*
X118850800Y-80522400D02*
X120120800Y-80522400D01*
X118850800Y-84222400D02*
X120120800Y-84222400D01*
X118850800Y-87372400D02*
X123250800Y-87372400D01*
X120120800Y-87372400D02*
X120120800Y-77372400D01*
X123250800Y-77372400D02*
X118850800Y-77372400D01*
X123250800Y-87372400D02*
X123250800Y-77372400D01*
%TO.C,SW1*%
X80668800Y-64498400D02*
X83668800Y-64498400D01*
X80668800Y-70498400D02*
X80668800Y-64498400D01*
X83668800Y-64498400D02*
X86668800Y-64498400D01*
X86668800Y-64498400D02*
X86668800Y-70498400D01*
X86668800Y-70498400D02*
X80668800Y-70498400D01*
X85684364Y-67498400D02*
G75*
G02*
X81653236Y-67498400I-2015564J0D01*
G01*
X81653236Y-67498400D02*
G75*
G02*
X85684364Y-67498400I2015564J0D01*
G01*
%TO.C,J18*%
X131876800Y-151790400D02*
X133146800Y-150520400D01*
X131876800Y-160680400D02*
X131876800Y-151790400D01*
X133146800Y-150520400D02*
X136956800Y-150520400D01*
X136956800Y-150520400D02*
X136956800Y-160680400D01*
X136956800Y-160680400D02*
X131876800Y-160680400D01*
%TO.C,C1*%
X93884800Y-151993400D02*
X94684800Y-151993400D01*
X93884800Y-153593400D02*
X93884800Y-151993400D01*
X94684800Y-151993400D02*
X94684800Y-153593400D01*
X94684800Y-153593400D02*
X93884800Y-153593400D01*
%TO.C,J14*%
X119948800Y-39116400D02*
X120583800Y-38481400D01*
X119948800Y-41021400D02*
X119948800Y-39116400D01*
X120583800Y-38481400D02*
X130108800Y-38481400D01*
X130108800Y-38481400D02*
X130108800Y-41021400D01*
X130108800Y-41021400D02*
X119948800Y-41021400D01*
%TO.C,J28*%
X61772800Y-48666400D02*
X66217800Y-48666400D01*
X61772800Y-51206400D02*
X61772800Y-48666400D01*
X66217800Y-48666400D02*
X66852800Y-49301400D01*
X66852800Y-49301400D02*
X66852800Y-51206400D01*
X66852800Y-51206400D02*
X61772800Y-51206400D01*
%TO.C,R11*%
X54338800Y-163528400D02*
X54338800Y-160528400D01*
X54638800Y-161128400D02*
X54638800Y-162928400D01*
X55238800Y-161128400D02*
X54638800Y-161128400D01*
X55238800Y-162928400D02*
X55238800Y-161128400D01*
X55838800Y-162928400D02*
X55238800Y-162928400D01*
X55838800Y-162928400D02*
X55838800Y-161328400D01*
X56438800Y-161328400D02*
X55838800Y-161328400D01*
X56438800Y-161328400D02*
X56438800Y-162628400D01*
X56438800Y-162628400D02*
X57038800Y-162628400D01*
X57038800Y-162628400D02*
X57038800Y-161128400D01*
X57638800Y-161128400D02*
X57038800Y-161128400D01*
X57638800Y-162928400D02*
X57638800Y-161128400D01*
X58238800Y-161128400D02*
X58238800Y-162928400D01*
X58238800Y-162928400D02*
X57638800Y-162928400D01*
X58538800Y-160528400D02*
X58538800Y-163528400D01*
X54338800Y-160528400D02*
G75*
G02*
X58540770Y-160531163I2100000J-1500000D01*
G01*
X58538800Y-163528400D02*
G75*
G02*
X54336830Y-163525637I-2100000J1500000D01*
G01*
%TO.C,J34*%
X116636800Y-68351400D02*
X117271800Y-67716400D01*
X116636800Y-70256400D02*
X116636800Y-68351400D01*
X117271800Y-67716400D02*
X119176800Y-67716400D01*
X119176800Y-67716400D02*
X119176800Y-70256400D01*
X119176800Y-70256400D02*
X116636800Y-70256400D01*
%TO.C,R4*%
X76504800Y-131470400D02*
X77164800Y-131470400D01*
X77164800Y-130220400D02*
X77164800Y-132720400D01*
X77164800Y-132720400D02*
X83464800Y-132720400D01*
X83464800Y-130220400D02*
X77164800Y-130220400D01*
X83464800Y-132720400D02*
X83464800Y-130220400D01*
X84124800Y-131470400D02*
X83464800Y-131470400D01*
%TO.C,D2*%
X138440800Y-112620094D02*
X138440800Y-109680706D01*
X138440800Y-112620094D02*
G75*
G02*
X138440816Y-109680734I-2500000J1469694D01*
G01*
X138440800Y-111150400D02*
G75*
G02*
X133440800Y-111150400I-2500000J0D01*
G01*
X133440800Y-111150400D02*
G75*
G02*
X138440800Y-111150400I2500000J0D01*
G01*
%TO.C,R9*%
X115386800Y-79552400D02*
X115386800Y-85852400D01*
X115386800Y-85852400D02*
X117886800Y-85852400D01*
X116636800Y-78892400D02*
X116636800Y-79552400D01*
X116636800Y-86512400D02*
X116636800Y-85852400D01*
X117886800Y-79552400D02*
X115386800Y-79552400D01*
X117886800Y-85852400D02*
X117886800Y-79552400D01*
%TO.C,R14*%
X116382800Y-90068400D02*
X117042800Y-90068400D01*
X117042800Y-88818400D02*
X117042800Y-91318400D01*
X117042800Y-91318400D02*
X123342800Y-91318400D01*
X123342800Y-88818400D02*
X117042800Y-88818400D01*
X123342800Y-91318400D02*
X123342800Y-88818400D01*
X124002800Y-90068400D02*
X123342800Y-90068400D01*
%TO.C,R10*%
X52628800Y-150266400D02*
X53288800Y-150266400D01*
X53288800Y-149016400D02*
X53288800Y-151516400D01*
X53288800Y-151516400D02*
X59588800Y-151516400D01*
X59588800Y-149016400D02*
X53288800Y-149016400D01*
X59588800Y-151516400D02*
X59588800Y-149016400D01*
X60248800Y-150266400D02*
X59588800Y-150266400D01*
%TO.C,U14*%
X66735800Y-86883400D02*
X76895800Y-86883400D01*
X66735800Y-92233400D02*
X66735800Y-86883400D01*
X67735800Y-93233400D02*
X66735800Y-92233400D01*
X76895800Y-86883400D02*
X76895800Y-93233400D01*
X76895800Y-93233400D02*
X67735800Y-93233400D01*
%TO.C,J2*%
X95173800Y-37363400D02*
X105333800Y-37363400D01*
X95173800Y-39903400D02*
X95173800Y-37363400D01*
X104698800Y-39903400D02*
X95173800Y-39903400D01*
X105333800Y-37363400D02*
X105333800Y-39268400D01*
X105333800Y-39268400D02*
X104698800Y-39903400D01*
%TD*%
D18*
X88199406Y-31393411D02*
X112329406Y-31647411D01*
X112583406Y-31647411D01*
X146619406Y-31647411D01*
X145857406Y-170331411D01*
X45019406Y-170585411D01*
X44765406Y-31139411D01*
X88199406Y-31393411D01*
M02*
