M48
; DRILL file {KiCad 8.0.1} date 2024-10-07T23:17:00+0200
; FORMAT={-:-/ absolute / metric / decimal}
; #@! TF.CreationDate,2024-10-07T23:17:00+02:00
; #@! TF.GenerationSoftware,Kicad,Pcbnew,8.0.1
; #@! TF.FileFunction,Plated,1,2,PTH
FMAT,2
METRIC
; #@! TA.AperFunction,Plated,PTH,ViaDrill
T1C0.300
; #@! TA.AperFunction,Plated,PTH,ComponentDrill
T2C0.500
; #@! TA.AperFunction,Plated,PTH,ComponentDrill
T3C0.750
; #@! TA.AperFunction,Plated,PTH,ComponentDrill
T4C0.800
; #@! TA.AperFunction,Plated,PTH,ComponentDrill
T5C0.900
; #@! TA.AperFunction,Plated,PTH,ComponentDrill
T6C1.000
; #@! TA.AperFunction,Plated,PTH,ComponentDrill
T7C1.100
; #@! TA.AperFunction,Plated,PTH,ComponentDrill
T8C1.200
; #@! TA.AperFunction,Plated,PTH,ComponentDrill
T9C1.300
%
G90
G05
T1
X102.929Y-18.292
X102.929Y-20.832
X102.929Y-23.372
X102.929Y-25.912
X102.929Y-28.452
X102.929Y-142.752
X102.929Y-152.912
X105.469Y-18.292
X105.469Y-25.912
X105.469Y-38.612
X105.469Y-41.152
X105.469Y-43.692
X105.469Y-46.232
X105.469Y-48.772
X105.469Y-51.312
X105.469Y-53.852
X105.469Y-56.392
X105.469Y-58.932
X105.469Y-64.012
X105.469Y-66.552
X105.469Y-69.092
X105.469Y-71.632
X105.469Y-74.172
X105.469Y-76.712
X105.469Y-79.252
X105.469Y-81.792
X105.469Y-84.332
X105.469Y-86.872
X105.469Y-89.412
X105.469Y-142.752
X105.469Y-152.912
X106.466Y-126.239
X106.466Y-130.049
X108.009Y-18.292
X108.009Y-20.832
X108.009Y-25.912
X108.009Y-36.072
X108.009Y-38.612
X108.009Y-41.152
X108.009Y-43.692
X108.009Y-46.232
X108.009Y-48.772
X108.009Y-51.312
X108.009Y-53.852
X108.009Y-56.392
X108.009Y-61.472
X108.009Y-64.012
X108.009Y-66.552
X108.009Y-69.092
X108.009Y-71.632
X108.009Y-74.172
X108.009Y-76.712
X108.009Y-81.792
X108.009Y-84.332
X108.009Y-86.872
X108.009Y-142.752
X108.009Y-145.292
X108.009Y-152.912
X110.549Y-18.292
X110.549Y-20.832
X110.549Y-23.372
X110.549Y-30.992
X110.549Y-36.072
X110.549Y-38.612
X110.549Y-41.152
X110.549Y-43.692
X110.549Y-46.232
X110.549Y-48.772
X110.549Y-51.312
X110.549Y-53.852
X110.549Y-56.392
X110.549Y-66.552
X110.549Y-76.712
X110.549Y-81.792
X110.549Y-84.332
X110.549Y-86.872
X110.549Y-89.412
X110.549Y-130.052
X110.549Y-135.132
X110.549Y-140.212
X110.549Y-152.912
X113.089Y-18.292
X113.089Y-20.832
X113.089Y-23.372
X113.089Y-30.992
X113.089Y-36.072
X113.089Y-38.612
X113.089Y-84.332
X113.089Y-86.872
X113.089Y-89.412
X113.089Y-130.052
X113.089Y-135.132
X113.089Y-140.212
X113.089Y-142.752
X113.089Y-147.832
X113.089Y-152.912
X115.629Y-18.292
X115.629Y-20.832
X115.629Y-23.372
X115.629Y-36.072
X115.629Y-41.152
X115.629Y-61.472
X115.629Y-64.012
X115.629Y-66.552
X115.629Y-69.092
X115.629Y-71.632
X115.629Y-74.172
X115.629Y-76.712
X115.629Y-79.252
X115.629Y-86.872
X115.629Y-89.412
X115.629Y-130.052
X115.629Y-142.752
X115.629Y-147.832
X115.629Y-152.912
X117.388Y-49.785
X118.169Y-18.292
X118.169Y-20.832
X118.169Y-23.372
X118.169Y-41.152
X118.169Y-46.232
X118.169Y-61.472
X118.169Y-64.012
X118.169Y-66.552
X118.169Y-69.092
X118.169Y-71.632
X118.169Y-74.172
X118.169Y-76.712
X118.169Y-79.252
X118.169Y-81.792
X118.169Y-89.412
X118.169Y-130.052
X118.169Y-142.752
X118.169Y-147.832
X118.169Y-150.372
X120.709Y-18.292
X120.709Y-20.832
X120.709Y-23.372
X120.709Y-25.912
X120.709Y-41.152
X120.709Y-46.232
X120.709Y-48.772
X120.709Y-61.472
X120.709Y-64.012
X120.709Y-66.552
X120.709Y-69.092
X120.709Y-74.172
X120.709Y-76.712
X120.709Y-81.792
X120.709Y-84.332
X120.709Y-130.052
X120.709Y-142.752
X120.709Y-145.292
X120.709Y-150.372
X120.817Y-115.317
X123.249Y-18.292
X123.249Y-20.832
X123.249Y-23.372
X123.249Y-33.532
X123.249Y-36.072
X123.249Y-41.152
X123.249Y-46.232
X123.249Y-48.772
X123.249Y-71.632
X123.249Y-74.172
X123.249Y-84.332
X123.249Y-86.872
X123.249Y-94.492
X123.249Y-97.032
X123.249Y-99.572
X123.249Y-102.112
X123.249Y-104.652
X123.249Y-107.192
X123.249Y-109.732
X123.249Y-112.272
X123.249Y-114.812
X123.249Y-117.352
X123.249Y-119.892
X123.249Y-122.432
X123.249Y-124.972
X123.249Y-127.512
X123.249Y-130.052
X123.249Y-135.132
X123.249Y-137.672
X123.249Y-150.372
X125.789Y-18.292
X125.789Y-20.832
X125.789Y-23.372
X125.789Y-33.532
X125.789Y-36.072
X125.789Y-38.612
X125.789Y-41.152
X125.789Y-46.232
X125.789Y-48.772
X125.789Y-74.172
X125.789Y-84.332
X125.789Y-86.872
X125.789Y-89.412
X125.789Y-97.032
X125.789Y-99.572
X125.789Y-102.112
X125.789Y-104.652
X125.789Y-107.192
X125.789Y-109.732
X125.789Y-112.272
X125.789Y-114.812
X125.789Y-117.352
X125.789Y-119.892
X125.789Y-122.432
X125.789Y-124.972
X125.789Y-127.512
X125.789Y-130.052
X125.789Y-135.132
X125.789Y-137.672
X125.789Y-142.752
X125.789Y-145.292
X125.789Y-150.372
X128.329Y-18.292
X128.329Y-20.832
X128.329Y-23.372
X128.329Y-33.532
X128.329Y-36.072
X128.329Y-79.252
X128.329Y-81.792
X128.329Y-84.332
X128.329Y-86.872
X128.329Y-89.412
X128.329Y-91.952
X128.329Y-99.572
X128.329Y-102.112
X128.329Y-104.652
X128.329Y-107.192
X128.329Y-109.732
X128.329Y-117.352
X128.329Y-119.892
X128.329Y-122.432
X128.329Y-124.972
X128.329Y-127.512
X128.329Y-130.052
X128.329Y-135.132
X128.329Y-137.672
X128.329Y-142.752
X128.329Y-147.832
X128.329Y-150.372
X129.834Y-42.927
X130.342Y-72.899
X130.85Y-45.467
X130.869Y-18.292
X130.869Y-20.832
X130.869Y-23.372
X130.869Y-30.992
X130.869Y-33.532
X130.869Y-51.312
X130.869Y-56.392
X130.869Y-58.932
X130.869Y-61.472
X130.869Y-79.252
X130.869Y-84.332
X130.869Y-86.872
X130.869Y-89.412
X130.869Y-91.952
X130.869Y-94.492
X130.869Y-135.132
X130.869Y-137.672
X130.869Y-145.292
X130.869Y-147.832
X130.869Y-150.372
X133.409Y-18.292
X133.409Y-20.832
X133.409Y-23.372
X133.409Y-25.912
X133.409Y-28.452
X133.409Y-30.992
X133.409Y-41.152
X133.409Y-51.312
X133.409Y-56.392
X133.409Y-58.932
X133.409Y-61.472
X133.409Y-64.012
X133.409Y-66.552
X133.409Y-84.332
X133.409Y-86.872
X133.409Y-119.892
X133.409Y-122.432
X133.409Y-124.972
X133.409Y-127.512
X133.409Y-130.052
X133.409Y-135.132
X133.409Y-137.672
X133.409Y-142.752
X133.409Y-145.292
X133.409Y-147.832
X133.409Y-150.372
X135.949Y-18.292
X135.949Y-20.832
X135.949Y-23.372
X135.949Y-25.912
X135.949Y-28.452
X135.949Y-38.612
X135.949Y-43.692
X135.949Y-51.312
X135.949Y-56.392
X135.949Y-58.932
X135.949Y-61.472
X135.949Y-64.012
X135.949Y-66.552
X135.949Y-69.092
X135.949Y-79.252
X135.949Y-81.792
X135.949Y-84.332
X135.949Y-91.952
X135.949Y-94.492
X135.949Y-97.032
X135.949Y-99.572
X135.949Y-102.112
X135.949Y-104.652
X135.949Y-107.192
X135.949Y-114.812
X135.949Y-117.352
X135.949Y-119.892
X135.949Y-122.432
X135.949Y-124.972
X135.949Y-127.512
X135.949Y-130.052
X135.949Y-135.132
X135.949Y-137.672
X135.949Y-142.752
X135.949Y-145.292
X135.949Y-147.832
X135.949Y-150.372
X136.946Y-88.901
X138.489Y-18.292
X138.489Y-20.832
X138.489Y-23.372
X138.489Y-25.912
X138.489Y-33.532
X138.489Y-41.152
X138.489Y-43.692
X138.489Y-64.012
X138.489Y-66.552
X138.489Y-69.092
X138.489Y-71.632
X138.489Y-76.712
X138.489Y-79.252
X138.489Y-81.792
X138.489Y-122.432
X138.489Y-124.972
X138.489Y-127.512
X138.489Y-130.052
X138.489Y-135.132
X138.489Y-137.672
X138.489Y-142.752
X138.489Y-145.292
X138.489Y-147.832
X138.489Y-150.372
X141.029Y-18.292
X141.029Y-20.832
X141.029Y-23.372
X141.029Y-30.992
X141.029Y-33.532
X141.029Y-41.152
X141.029Y-43.692
X141.029Y-51.312
X141.029Y-56.392
X141.029Y-58.932
X141.029Y-61.472
X141.029Y-66.552
X141.029Y-69.092
X141.029Y-71.632
X141.029Y-79.252
X141.029Y-84.332
X141.029Y-130.052
X141.029Y-137.672
X141.029Y-142.752
X141.029Y-145.292
X141.029Y-147.832
X141.029Y-150.372
X141.061Y-106.884
X143.569Y-18.292
X143.569Y-20.832
X143.569Y-28.452
X143.569Y-30.992
X143.569Y-33.532
X143.569Y-43.692
X143.569Y-89.412
X143.569Y-130.052
X143.569Y-137.672
X143.569Y-142.752
X143.569Y-145.292
X143.569Y-147.832
X143.569Y-150.372
X144.566Y-87.631
X146.109Y-18.292
X146.109Y-25.912
X146.109Y-28.452
X146.109Y-30.992
X146.109Y-33.532
X146.109Y-43.692
X146.109Y-48.772
X146.109Y-51.312
X146.109Y-53.852
X146.109Y-58.932
X146.109Y-66.552
X146.109Y-69.092
X146.109Y-71.632
X146.109Y-74.172
X146.109Y-76.712
X146.109Y-79.252
X146.109Y-89.412
X146.109Y-130.052
X146.109Y-142.752
X146.109Y-145.292
X146.109Y-147.832
X146.109Y-150.372
X146.852Y-137.669
X148.649Y-18.292
X148.649Y-23.372
X148.649Y-28.452
X148.649Y-30.992
X148.649Y-33.532
X148.649Y-46.232
X148.649Y-48.772
X148.649Y-51.312
X148.649Y-53.852
X148.649Y-89.412
X148.649Y-130.052
X148.649Y-150.372
X150.154Y-134.367
X151.189Y-18.292
X151.189Y-28.452
X151.189Y-30.992
X151.189Y-33.532
X151.189Y-43.692
X151.189Y-48.772
X151.189Y-51.312
X151.189Y-53.852
X151.189Y-58.932
X151.189Y-66.552
X151.189Y-69.092
X151.189Y-71.632
X151.189Y-74.172
X151.189Y-76.712
X151.189Y-79.252
X151.189Y-84.332
X151.189Y-150.372
X151.424Y-131.827
X151.805Y-136.145
X152.059Y-135.383
X153.729Y-18.292
X153.729Y-30.992
X153.729Y-33.532
X153.729Y-43.692
X153.729Y-81.792
X153.729Y-84.332
X153.729Y-86.872
X153.729Y-150.372
X154.726Y-103.887
X156.25Y-105.411
X156.269Y-18.292
X156.269Y-30.992
X156.269Y-41.152
X156.269Y-43.692
X156.269Y-51.312
X156.269Y-56.392
X156.269Y-79.252
X156.269Y-86.872
X156.269Y-150.372
X157.52Y-99.315
X157.774Y-123.445
X158.195Y-120.397
X158.809Y-18.292
X158.809Y-25.912
X158.809Y-28.452
X158.809Y-41.152
X158.809Y-43.692
X158.809Y-51.312
X158.809Y-53.852
X158.809Y-56.392
X158.809Y-79.252
X158.809Y-86.872
X158.809Y-91.952
X158.809Y-109.732
X158.809Y-112.272
X158.809Y-114.812
X158.809Y-117.352
X158.809Y-135.132
X158.809Y-137.672
X158.809Y-142.752
X158.809Y-147.832
X158.809Y-150.372
X159.044Y-39.625
X159.298Y-103.633
X161.349Y-18.292
X161.349Y-23.372
X161.349Y-25.912
X161.349Y-28.452
X161.349Y-30.992
X161.349Y-41.152
X161.349Y-43.692
X161.349Y-51.312
X161.349Y-56.392
X161.349Y-79.252
X161.349Y-84.332
X161.349Y-86.872
X161.349Y-145.292
X161.349Y-147.832
X161.349Y-150.372
X163.889Y-18.292
X163.889Y-23.372
X163.889Y-25.912
X163.889Y-28.452
X163.889Y-43.692
X163.889Y-46.232
X163.889Y-48.772
X163.889Y-53.852
X163.889Y-56.392
X163.889Y-86.872
X163.889Y-145.292
X163.889Y-147.832
X163.889Y-150.372
X164.189Y-79.252
X166.429Y-18.292
X166.429Y-23.372
X166.429Y-25.912
X166.429Y-30.992
X166.429Y-38.612
X166.429Y-43.692
X166.429Y-46.232
X166.429Y-48.772
X166.429Y-86.872
X166.429Y-145.292
X166.429Y-147.832
X166.429Y-150.372
X168.969Y-18.292
X168.969Y-23.372
X168.969Y-28.452
X168.969Y-30.992
X168.969Y-38.612
X168.969Y-43.692
X168.969Y-46.232
X168.969Y-48.772
X168.969Y-84.332
X168.969Y-86.872
X168.969Y-145.292
X168.969Y-147.832
X168.969Y-150.372
X170.728Y-20.016
X170.982Y-66.077
X170.982Y-68.617
X171.509Y-18.292
X171.509Y-25.912
X171.509Y-28.452
X171.509Y-30.992
X171.509Y-33.532
X171.509Y-36.072
X171.509Y-41.152
X171.509Y-43.692
X171.509Y-46.232
X171.509Y-48.772
X171.509Y-84.332
X171.509Y-86.872
X171.509Y-102.112
X171.509Y-145.292
X171.509Y-147.832
X171.509Y-150.372
X173.522Y-66.077
X174.049Y-18.292
X174.049Y-25.912
X174.049Y-28.452
X174.049Y-30.992
X174.049Y-33.532
X174.049Y-38.612
X174.049Y-41.152
X174.049Y-43.692
X174.049Y-46.232
X174.049Y-48.772
X174.049Y-89.474
X174.049Y-104.652
X174.049Y-145.292
X174.049Y-147.832
X174.049Y-150.372
X176.062Y-73.697
X176.589Y-18.292
X176.589Y-28.452
X176.589Y-30.992
X176.589Y-36.072
X176.589Y-86.872
X176.589Y-91.952
X176.589Y-102.112
X176.589Y-104.652
X176.589Y-145.292
X176.589Y-147.832
X176.589Y-150.372
X178.602Y-68.617
X178.602Y-71.157
X178.602Y-81.317
X178.998Y-90.011
X179.129Y-18.292
X179.129Y-33.532
X179.129Y-36.072
X179.129Y-38.612
X179.129Y-41.152
X179.129Y-43.692
X179.129Y-46.232
X179.129Y-48.772
X179.129Y-86.872
X179.129Y-94.492
X179.129Y-97.032
X179.129Y-99.572
X179.129Y-102.112
X179.129Y-104.652
X179.129Y-145.292
X179.129Y-147.832
X179.129Y-150.372
X181.142Y-68.617
X181.142Y-71.157
X181.142Y-76.237
X181.188Y-90.011
X181.669Y-18.292
X181.669Y-20.832
X181.669Y-86.872
X181.669Y-94.492
X181.669Y-97.032
X181.669Y-99.572
X181.669Y-102.112
X181.669Y-145.292
X181.669Y-147.832
X181.669Y-150.372
X183.682Y-66.077
X183.682Y-71.157
X183.682Y-73.697
X183.682Y-76.237
X183.682Y-81.317
X184.209Y-18.292
X184.209Y-20.832
X184.209Y-30.992
X184.209Y-33.532
X184.209Y-36.072
X184.209Y-38.612
X184.209Y-41.152
X184.209Y-43.692
X184.209Y-46.232
X184.209Y-48.772
X184.209Y-86.872
X184.209Y-102.112
X184.209Y-145.292
X184.209Y-150.372
X186.222Y-71.157
X186.222Y-73.697
X186.222Y-76.237
X186.222Y-78.777
X186.222Y-81.317
X186.749Y-18.292
X186.749Y-20.832
X186.749Y-30.992
X186.749Y-33.532
X186.749Y-36.072
X186.749Y-38.612
X186.749Y-41.152
X186.749Y-43.692
X186.749Y-46.232
X186.749Y-48.772
X186.749Y-86.872
X186.749Y-94.492
X186.749Y-102.112
X186.749Y-104.652
X186.749Y-117.352
X186.749Y-132.592
X186.749Y-145.292
X187.746Y-148.972
X189.289Y-18.292
X189.289Y-20.832
X189.289Y-30.992
X189.289Y-33.532
X189.289Y-36.072
X189.289Y-38.612
X189.289Y-41.152
X189.289Y-43.692
X189.289Y-46.232
X189.289Y-48.772
X189.289Y-84.332
X189.289Y-91.952
X189.289Y-97.032
X189.289Y-99.572
X189.289Y-104.652
X189.289Y-117.352
X189.289Y-145.292
X189.289Y-147.832
X189.289Y-150.372
X191.302Y-63.537
X191.302Y-66.077
X191.302Y-68.617
X191.302Y-71.157
X191.302Y-73.697
X191.302Y-76.237
X191.302Y-78.777
X191.302Y-81.317
X191.829Y-18.292
X191.829Y-20.832
X191.829Y-23.372
X191.829Y-25.912
X191.829Y-30.992
X191.829Y-33.532
X191.829Y-36.072
X191.829Y-38.612
X191.829Y-41.152
X191.829Y-43.692
X191.829Y-46.232
X191.829Y-48.772
X191.829Y-84.332
X191.829Y-91.952
X191.829Y-97.032
X191.829Y-99.572
X191.829Y-104.652
X191.829Y-117.352
X191.829Y-145.292
X191.829Y-150.372
X191.829Y-152.912
X193.842Y-63.537
X193.842Y-66.077
X193.842Y-68.617
X193.842Y-71.157
X193.842Y-73.697
X193.842Y-76.237
X193.842Y-78.777
X193.842Y-81.317
X194.369Y-18.292
X194.369Y-28.452
X194.369Y-30.992
X194.369Y-33.532
X194.369Y-36.072
X194.369Y-38.612
X194.369Y-41.152
X194.369Y-43.692
X194.369Y-46.232
X194.369Y-48.772
X194.369Y-84.332
X194.369Y-86.872
X194.369Y-89.412
X194.369Y-104.652
X194.369Y-107.192
X194.369Y-109.732
X194.369Y-114.812
X194.369Y-117.352
X194.369Y-119.892
X194.369Y-122.432
X194.369Y-127.512
X194.369Y-130.052
X194.369Y-140.212
X194.369Y-147.832
X194.369Y-150.372
X194.369Y-152.912
X196.509Y-143.765
X196.909Y-18.292
X196.909Y-33.532
X196.909Y-36.072
X196.909Y-38.612
X196.909Y-41.152
X196.909Y-43.692
X196.909Y-46.232
X196.909Y-48.772
X196.909Y-84.332
X196.909Y-86.872
X196.909Y-91.952
X196.909Y-104.652
X196.909Y-107.192
X196.909Y-109.732
X196.909Y-112.272
X196.909Y-114.812
X196.909Y-117.352
X196.909Y-119.892
X196.909Y-122.432
X196.909Y-124.972
X196.909Y-127.512
X196.909Y-135.132
X196.909Y-152.912
X199.449Y-18.292
X199.449Y-28.452
X199.449Y-30.992
X199.449Y-33.532
X199.449Y-36.072
X199.449Y-38.612
X199.449Y-41.152
X199.449Y-43.692
X199.449Y-46.232
X199.449Y-48.772
X199.449Y-132.592
T2
X123.611Y-80.9
X126.151Y-80.9
T3
X165.547Y-83.969
X166.817Y-83.969
X168.087Y-83.969
T4
X107.228Y-134.113
X107.228Y-139.447
X111.038Y-144.226
X111.038Y-147.626
X114.848Y-134.113
X114.848Y-139.447
X116.118Y-144.527
X122.605Y-70.095
X122.605Y-77.715
X123.738Y-144.527
X125.145Y-70.095
X125.145Y-77.715
X127.685Y-70.095
X127.685Y-77.715
X130.225Y-70.095
X130.225Y-77.715
X131.104Y-108.713
X131.104Y-112.015
X131.104Y-115.317
X131.104Y-118.619
X133.39Y-73.534
X138.724Y-108.713
X138.724Y-112.015
X138.724Y-115.317
X138.724Y-118.619
X141.01Y-73.534
X157.317Y-77.674
X161.127Y-81.129
X161.127Y-88.749
X164.937Y-77.674
X168.29Y-72.95
X168.29Y-80.57
X170.982Y-73.915
X171.236Y-62.739
X171.236Y-70.359
X173.39Y-78.709
X173.39Y-81.249
X176.57Y-93.727
X176.57Y-97.029
X176.57Y-100.331
X178.602Y-73.915
X181.01Y-78.709
X181.01Y-81.249
X183.301Y-148.464
X184.19Y-93.727
X184.19Y-97.029
X184.19Y-100.331
X190.921Y-148.464
T5
X129.834Y-64.263
X129.834Y-66.803
X181.65Y-66.549
X181.65Y-74.169
X189.27Y-88.393
X189.27Y-94.997
X189.27Y-101.601
X191.81Y-88.393
X191.81Y-94.997
X191.81Y-101.601
X194.477Y-137.161
X197.017Y-137.161
T6
X103.926Y-134.367
X103.926Y-136.907
X103.926Y-139.447
X105.704Y-105.421
X105.704Y-107.961
X105.704Y-110.501
X105.704Y-113.041
X109.514Y-92.457
X109.514Y-94.997
X109.514Y-97.537
X109.514Y-100.077
X109.514Y-102.617
X109.514Y-105.157
X109.514Y-107.697
X109.514Y-110.237
X109.514Y-112.777
X109.514Y-115.317
X109.514Y-117.857
X109.514Y-120.397
X109.514Y-122.937
X109.514Y-125.477
X109.514Y-128.017
X112.054Y-92.457
X112.054Y-94.997
X112.054Y-97.537
X112.054Y-100.077
X112.054Y-102.617
X112.054Y-105.157
X112.054Y-107.697
X112.054Y-110.237
X112.054Y-112.777
X112.054Y-115.317
X112.054Y-117.857
X112.054Y-120.397
X112.054Y-122.937
X112.054Y-125.477
X112.054Y-128.017
X112.333Y-41.682
X112.333Y-44.222
X112.333Y-46.762
X112.333Y-49.302
X112.333Y-51.842
X112.333Y-54.382
X115.102Y-29.973
X116.88Y-92.457
X116.88Y-94.997
X116.88Y-97.537
X116.88Y-100.077
X116.88Y-102.617
X116.88Y-105.157
X116.88Y-107.697
X116.88Y-110.237
X116.88Y-112.777
X116.88Y-115.317
X116.88Y-117.857
X116.88Y-120.397
X116.88Y-122.937
X116.88Y-125.477
X116.88Y-128.017
X117.642Y-29.973
X117.642Y-33.783
X119.42Y-92.457
X119.42Y-94.997
X119.42Y-97.537
X119.42Y-100.077
X119.42Y-102.617
X119.42Y-105.157
X119.42Y-107.697
X119.42Y-110.237
X119.42Y-112.777
X119.42Y-115.317
X119.42Y-117.857
X119.42Y-120.397
X119.42Y-122.937
X119.42Y-125.477
X119.42Y-128.017
X120.182Y-29.973
X120.182Y-33.783
X122.722Y-29.973
X125.262Y-29.973
X127.802Y-29.973
X128.056Y-54.357
X128.056Y-56.897
X128.056Y-59.437
X134.051Y-77.166
X136.591Y-77.166
X142.28Y-92.457
X142.28Y-94.997
X142.28Y-97.537
X142.28Y-100.077
X142.28Y-102.617
X142.28Y-105.157
X142.28Y-107.697
X142.28Y-110.237
X142.28Y-112.777
X142.28Y-115.317
X142.28Y-117.857
X142.28Y-120.397
X142.28Y-122.937
X142.28Y-125.477
X142.28Y-128.017
X144.82Y-92.457
X144.82Y-94.997
X144.82Y-97.537
X144.82Y-100.077
X144.82Y-102.617
X144.82Y-105.157
X144.82Y-107.697
X144.82Y-110.237
X144.82Y-112.777
X144.82Y-115.317
X144.82Y-117.857
X144.82Y-120.397
X144.82Y-122.937
X144.82Y-125.477
X144.82Y-128.017
X147.868Y-141.479
X147.868Y-144.019
X147.868Y-146.559
X149.646Y-92.457
X149.646Y-94.997
X149.646Y-97.537
X149.646Y-100.077
X149.646Y-102.617
X149.646Y-105.157
X149.646Y-107.697
X149.646Y-110.237
X149.646Y-112.777
X149.646Y-115.317
X149.646Y-117.857
X149.646Y-120.397
X149.646Y-122.937
X149.646Y-125.477
X149.646Y-128.017
X150.408Y-141.479
X150.408Y-144.019
X150.408Y-146.559
X151.043Y-22.48
X152.186Y-92.457
X152.186Y-94.997
X152.186Y-97.537
X152.186Y-100.077
X152.186Y-102.617
X152.186Y-105.157
X152.186Y-107.697
X152.186Y-110.237
X152.186Y-112.777
X152.186Y-115.317
X152.186Y-117.857
X152.186Y-120.397
X152.186Y-122.937
X152.186Y-125.477
X152.186Y-128.017
X152.948Y-141.479
X152.948Y-144.019
X152.948Y-146.559
X153.583Y-22.48
X153.583Y-27.306
X155.488Y-141.479
X155.488Y-144.019
X155.488Y-146.559
X156.123Y-22.48
X156.123Y-27.306
X158.663Y-22.48
X159.552Y-34.037
X159.552Y-36.577
X160.568Y-92.203
X160.568Y-94.743
X160.568Y-97.283
X160.568Y-99.823
X160.568Y-107.951
X160.568Y-110.491
X160.568Y-113.031
X160.568Y-115.571
X160.568Y-118.111
X160.568Y-120.651
X160.568Y-123.191
X160.568Y-125.731
X160.568Y-128.271
X160.568Y-130.811
X160.568Y-133.351
X160.568Y-135.891
X160.568Y-138.431
X160.568Y-140.971
X160.568Y-143.511
X162.092Y-34.037
X162.092Y-36.577
X163.108Y-92.203
X163.108Y-94.743
X163.108Y-97.283
X163.108Y-99.823
X163.108Y-107.951
X163.108Y-110.491
X163.108Y-113.031
X163.108Y-115.571
X163.108Y-118.111
X163.108Y-120.651
X163.108Y-123.191
X163.108Y-125.731
X163.108Y-128.271
X163.108Y-130.811
X163.108Y-133.351
X163.108Y-135.891
X163.108Y-138.431
X163.108Y-140.971
X163.108Y-143.511
X164.632Y-34.037
X164.632Y-36.577
X165.648Y-92.203
X165.648Y-94.743
X165.648Y-97.283
X165.648Y-99.823
X165.648Y-107.951
X165.648Y-110.491
X165.648Y-113.031
X165.648Y-115.571
X165.648Y-118.111
X165.648Y-120.651
X165.648Y-123.191
X165.648Y-125.731
X165.648Y-128.271
X165.648Y-130.811
X165.648Y-133.351
X165.648Y-135.891
X165.648Y-138.431
X165.648Y-140.971
X165.648Y-143.511
X168.188Y-92.203
X168.188Y-94.743
X168.188Y-97.283
X168.188Y-99.823
X168.188Y-107.951
X168.188Y-110.491
X168.188Y-113.031
X168.188Y-115.571
X168.188Y-118.111
X168.188Y-120.651
X168.188Y-123.191
X168.188Y-125.731
X168.188Y-128.271
X168.188Y-130.811
X168.188Y-133.351
X168.188Y-135.891
X168.188Y-138.431
X168.188Y-140.971
X168.188Y-143.511
X170.728Y-107.951
X170.728Y-110.491
X170.728Y-113.031
X170.728Y-115.571
X170.728Y-118.111
X170.728Y-120.651
X170.728Y-123.191
X170.728Y-125.731
X170.728Y-128.271
X170.728Y-130.811
X170.728Y-133.351
X170.728Y-135.891
X170.728Y-138.431
X170.728Y-140.971
X170.728Y-143.511
X172.506Y-52.833
X173.268Y-85.345
X173.268Y-107.951
X173.268Y-110.491
X173.268Y-113.031
X173.268Y-115.571
X173.268Y-118.111
X173.268Y-120.651
X173.268Y-123.191
X173.268Y-125.731
X173.268Y-128.271
X173.268Y-130.811
X173.268Y-133.351
X173.268Y-135.891
X173.268Y-138.431
X173.268Y-140.971
X173.268Y-143.511
X175.808Y-107.951
X175.808Y-110.491
X175.808Y-113.031
X175.808Y-115.571
X175.808Y-118.111
X175.808Y-120.651
X175.808Y-123.191
X175.808Y-125.731
X175.808Y-128.271
X175.808Y-130.811
X175.808Y-133.351
X175.808Y-135.891
X175.808Y-138.431
X175.808Y-140.971
X175.808Y-143.511
X176.824Y-52.848
X176.824Y-55.388
X176.824Y-57.928
X178.348Y-107.951
X178.348Y-110.491
X178.348Y-113.031
X178.348Y-115.571
X178.348Y-118.111
X178.348Y-120.651
X178.348Y-123.191
X178.348Y-125.731
X178.348Y-128.271
X178.348Y-130.811
X178.348Y-133.351
X178.348Y-135.891
X178.348Y-138.431
X178.348Y-140.971
X178.348Y-143.511
X180.888Y-53.087
X180.888Y-55.627
X180.888Y-58.167
X180.888Y-107.951
X180.888Y-110.491
X180.888Y-113.031
X180.888Y-115.571
X180.888Y-118.111
X180.888Y-120.651
X180.888Y-123.191
X180.888Y-125.731
X180.888Y-128.271
X180.888Y-130.811
X180.888Y-133.351
X180.888Y-135.891
X180.888Y-138.431
X180.888Y-140.971
X180.888Y-143.511
X181.955Y-25.604
X183.428Y-107.951
X183.428Y-110.491
X183.428Y-113.031
X183.428Y-115.571
X183.428Y-118.111
X183.428Y-120.651
X183.428Y-123.191
X183.428Y-125.731
X183.428Y-128.271
X183.428Y-130.811
X183.428Y-133.351
X183.428Y-135.891
X183.428Y-138.431
X183.428Y-140.971
X183.428Y-143.511
X184.495Y-25.604
X187.035Y-25.604
X187.658Y-121.667
X187.658Y-124.207
X187.658Y-126.747
X187.658Y-129.287
X187.746Y-107.951
X187.746Y-110.491
X187.746Y-113.031
X187.746Y-115.571
X187.746Y-135.637
X187.746Y-138.177
X187.746Y-140.717
X187.746Y-143.257
X189.575Y-25.604
X190.198Y-121.667
X190.198Y-124.207
X190.198Y-126.747
X190.198Y-129.287
X190.286Y-107.951
X190.286Y-110.491
X190.286Y-113.031
X190.286Y-115.571
X190.286Y-135.637
X190.286Y-138.177
X190.286Y-140.717
X190.286Y-143.257
T7
X135.018Y-49.095
X135.018Y-53.595
X141.518Y-49.095
X141.518Y-53.595
X144.872Y-41.185
X144.872Y-45.685
X144.872Y-56.933
X144.872Y-61.433
X151.372Y-41.185
X151.372Y-45.685
X151.372Y-56.933
X151.372Y-61.433
X154.83Y-49.023
X154.83Y-53.523
X161.33Y-49.023
X161.33Y-53.523
X176.6Y-63.679
X176.6Y-66.219
X176.6Y-68.759
X177.436Y-84.786
X177.436Y-89.286
X183.936Y-84.786
X183.936Y-89.286
T8
X112.562Y-63.247
X112.562Y-68.247
X112.562Y-73.247
T9
X189.2Y-64.849
X189.2Y-69.929
X189.2Y-75.009
X189.2Y-80.089
X189.27Y-53.595
X189.27Y-58.595
M30
