M48
; DRILL file {KiCad 8.0.1} date 2024-10-06T13:50:58+0200
; FORMAT={-:-/ absolute / metric / decimal}
; #@! TF.CreationDate,2024-10-06T13:50:58+02:00
; #@! TF.GenerationSoftware,Kicad,Pcbnew,8.0.1
; #@! TF.FileFunction,Plated,1,2,PTH
FMAT,2
METRIC
; #@! TA.AperFunction,Plated,PTH,ViaDrill
T1C0.300
; #@! TA.AperFunction,Plated,PTH,ComponentDrill
T2C0.500
; #@! TA.AperFunction,Plated,PTH,ComponentDrill
T3C0.750
; #@! TA.AperFunction,Plated,PTH,ComponentDrill
T4C0.800
; #@! TA.AperFunction,Plated,PTH,ComponentDrill
T5C0.900
; #@! TA.AperFunction,Plated,PTH,ComponentDrill
T6C1.000
; #@! TA.AperFunction,Plated,PTH,ComponentDrill
T7C1.100
; #@! TA.AperFunction,Plated,PTH,ComponentDrill
T8C1.200
; #@! TA.AperFunction,Plated,PTH,ComponentDrill
T9C1.300
%
G90
G05
T1
X3.219Y136.09
X3.219Y133.55
X3.219Y131.01
X3.219Y128.47
X3.219Y125.93
X3.219Y11.63
X3.219Y1.47
X5.759Y136.09
X5.759Y128.47
X5.759Y115.77
X5.759Y113.23
X5.759Y110.69
X5.759Y108.15
X5.759Y105.61
X5.759Y103.07
X5.759Y100.53
X5.759Y97.99
X5.759Y95.45
X5.759Y90.37
X5.759Y87.83
X5.759Y85.29
X5.759Y82.75
X5.759Y80.21
X5.759Y77.67
X5.759Y75.13
X5.759Y72.59
X5.759Y70.05
X5.759Y67.51
X5.759Y64.97
X5.759Y11.63
X5.759Y1.47
X6.756Y28.143
X6.756Y24.333
X8.299Y136.09
X8.299Y133.55
X8.299Y128.47
X8.299Y118.31
X8.299Y115.77
X8.299Y113.23
X8.299Y110.69
X8.299Y108.15
X8.299Y105.61
X8.299Y103.07
X8.299Y100.53
X8.299Y97.99
X8.299Y92.91
X8.299Y90.37
X8.299Y87.83
X8.299Y85.29
X8.299Y82.75
X8.299Y80.21
X8.299Y77.67
X8.299Y72.59
X8.299Y70.05
X8.299Y67.51
X8.299Y11.63
X8.299Y9.09
X8.299Y1.47
X10.839Y136.09
X10.839Y133.55
X10.839Y131.01
X10.839Y123.39
X10.839Y118.31
X10.839Y115.77
X10.839Y113.23
X10.839Y110.69
X10.839Y108.15
X10.839Y105.61
X10.839Y103.07
X10.839Y100.53
X10.839Y97.99
X10.839Y87.83
X10.839Y77.67
X10.839Y72.59
X10.839Y70.05
X10.839Y67.51
X10.839Y64.97
X10.839Y24.33
X10.839Y19.25
X10.839Y14.17
X10.839Y1.47
X13.379Y136.09
X13.379Y133.55
X13.379Y131.01
X13.379Y123.39
X13.379Y118.31
X13.379Y115.77
X13.379Y70.05
X13.379Y67.51
X13.379Y64.97
X13.379Y24.33
X13.379Y19.25
X13.379Y14.17
X13.379Y11.63
X13.379Y6.55
X13.379Y1.47
X15.919Y136.09
X15.919Y133.55
X15.919Y131.01
X15.919Y118.31
X15.919Y113.23
X15.919Y92.91
X15.919Y90.37
X15.919Y87.83
X15.919Y85.29
X15.919Y82.75
X15.919Y80.21
X15.919Y77.67
X15.919Y75.13
X15.919Y67.51
X15.919Y64.97
X15.919Y24.33
X15.919Y11.63
X15.919Y6.55
X15.919Y1.47
X17.678Y104.597
X18.459Y136.09
X18.459Y133.55
X18.459Y131.01
X18.459Y113.23
X18.459Y108.15
X18.459Y92.91
X18.459Y90.37
X18.459Y87.83
X18.459Y85.29
X18.459Y82.75
X18.459Y80.21
X18.459Y77.67
X18.459Y75.13
X18.459Y72.59
X18.459Y64.97
X18.459Y24.33
X18.459Y11.63
X18.459Y6.55
X18.459Y4.01
X20.999Y136.09
X20.999Y133.55
X20.999Y131.01
X20.999Y128.47
X20.999Y113.23
X20.999Y108.15
X20.999Y105.61
X20.999Y92.91
X20.999Y90.37
X20.999Y87.83
X20.999Y85.29
X20.999Y80.21
X20.999Y77.67
X20.999Y72.59
X20.999Y70.05
X20.999Y24.33
X20.999Y11.63
X20.999Y9.09
X20.999Y4.01
X21.107Y39.065
X23.539Y136.09
X23.539Y133.55
X23.539Y131.01
X23.539Y120.85
X23.539Y118.31
X23.539Y113.23
X23.539Y108.15
X23.539Y105.61
X23.539Y82.75
X23.539Y80.21
X23.539Y70.05
X23.539Y67.51
X23.539Y59.89
X23.539Y57.35
X23.539Y54.81
X23.539Y52.27
X23.539Y49.73
X23.539Y47.19
X23.539Y44.65
X23.539Y42.11
X23.539Y39.57
X23.539Y37.03
X23.539Y34.49
X23.539Y31.95
X23.539Y29.41
X23.539Y26.87
X23.539Y24.33
X23.539Y19.25
X23.539Y16.71
X23.539Y4.01
X26.079Y136.09
X26.079Y133.55
X26.079Y131.01
X26.079Y120.85
X26.079Y118.31
X26.079Y115.77
X26.079Y113.23
X26.079Y108.15
X26.079Y105.61
X26.079Y80.21
X26.079Y70.05
X26.079Y67.51
X26.079Y64.97
X26.079Y57.35
X26.079Y54.81
X26.079Y52.27
X26.079Y49.73
X26.079Y47.19
X26.079Y44.65
X26.079Y42.11
X26.079Y39.57
X26.079Y37.03
X26.079Y34.49
X26.079Y31.95
X26.079Y29.41
X26.079Y26.87
X26.079Y24.33
X26.079Y19.25
X26.079Y16.71
X26.079Y11.63
X26.079Y9.09
X26.079Y4.01
X28.619Y136.09
X28.619Y133.55
X28.619Y131.01
X28.619Y120.85
X28.619Y118.31
X28.619Y75.13
X28.619Y72.59
X28.619Y70.05
X28.619Y67.51
X28.619Y64.97
X28.619Y62.43
X28.619Y54.81
X28.619Y52.27
X28.619Y49.73
X28.619Y47.19
X28.619Y44.65
X28.619Y37.03
X28.619Y34.49
X28.619Y31.95
X28.619Y29.41
X28.619Y26.87
X28.619Y24.33
X28.619Y19.25
X28.619Y16.71
X28.619Y11.63
X28.619Y6.55
X28.619Y4.01
X30.124Y111.455
X30.632Y81.483
X31.14Y108.915
X31.159Y136.09
X31.159Y133.55
X31.159Y131.01
X31.159Y123.39
X31.159Y120.85
X31.159Y103.07
X31.159Y97.99
X31.159Y95.45
X31.159Y92.91
X31.159Y75.13
X31.159Y70.05
X31.159Y67.51
X31.159Y64.97
X31.159Y62.43
X31.159Y59.89
X31.159Y19.25
X31.159Y16.71
X31.159Y9.09
X31.159Y6.55
X31.159Y4.01
X33.699Y136.09
X33.699Y133.55
X33.699Y131.01
X33.699Y128.47
X33.699Y125.93
X33.699Y123.39
X33.699Y113.23
X33.699Y103.07
X33.699Y97.99
X33.699Y95.45
X33.699Y92.91
X33.699Y90.37
X33.699Y87.83
X33.699Y70.05
X33.699Y67.51
X33.699Y34.49
X33.699Y31.95
X33.699Y29.41
X33.699Y26.87
X33.699Y24.33
X33.699Y19.25
X33.699Y16.71
X33.699Y11.63
X33.699Y9.09
X33.699Y6.55
X33.699Y4.01
X36.239Y136.09
X36.239Y133.55
X36.239Y131.01
X36.239Y128.47
X36.239Y125.93
X36.239Y115.77
X36.239Y110.69
X36.239Y103.07
X36.239Y97.99
X36.239Y95.45
X36.239Y92.91
X36.239Y90.37
X36.239Y87.83
X36.239Y85.29
X36.239Y75.13
X36.239Y72.59
X36.239Y70.05
X36.239Y62.43
X36.239Y59.89
X36.239Y57.35
X36.239Y54.81
X36.239Y52.27
X36.239Y49.73
X36.239Y47.19
X36.239Y39.57
X36.239Y37.03
X36.239Y34.49
X36.239Y31.95
X36.239Y29.41
X36.239Y26.87
X36.239Y24.33
X36.239Y19.25
X36.239Y16.71
X36.239Y11.63
X36.239Y9.09
X36.239Y6.55
X36.239Y4.01
X37.236Y65.481
X38.779Y136.09
X38.779Y133.55
X38.779Y131.01
X38.779Y128.47
X38.779Y120.85
X38.779Y113.23
X38.779Y110.69
X38.779Y90.37
X38.779Y87.83
X38.779Y85.29
X38.779Y82.75
X38.779Y77.67
X38.779Y75.13
X38.779Y72.59
X38.779Y31.95
X38.779Y29.41
X38.779Y26.87
X38.779Y24.33
X38.779Y19.25
X38.779Y16.71
X38.779Y11.63
X38.779Y9.09
X38.779Y6.55
X38.779Y4.01
X41.319Y136.09
X41.319Y133.55
X41.319Y131.01
X41.319Y123.39
X41.319Y120.85
X41.319Y113.23
X41.319Y110.69
X41.319Y103.07
X41.319Y97.99
X41.319Y95.45
X41.319Y92.91
X41.319Y87.83
X41.319Y85.29
X41.319Y82.75
X41.319Y75.13
X41.319Y70.05
X41.319Y24.33
X41.319Y16.71
X41.319Y11.63
X41.319Y9.09
X41.319Y6.55
X41.319Y4.01
X41.351Y47.498
X43.859Y136.09
X43.859Y133.55
X43.859Y125.93
X43.859Y123.39
X43.859Y120.85
X43.859Y110.69
X43.859Y64.97
X43.859Y24.33
X43.859Y16.71
X43.859Y11.63
X43.859Y9.09
X43.859Y6.55
X43.859Y4.01
X44.856Y66.751
X46.399Y136.09
X46.399Y128.47
X46.399Y125.93
X46.399Y123.39
X46.399Y120.85
X46.399Y110.69
X46.399Y105.61
X46.399Y103.07
X46.399Y100.53
X46.399Y95.45
X46.399Y87.83
X46.399Y85.29
X46.399Y82.75
X46.399Y80.21
X46.399Y77.67
X46.399Y75.13
X46.399Y64.97
X46.399Y24.33
X46.399Y11.63
X46.399Y9.09
X46.399Y6.55
X46.399Y4.01
X47.142Y16.713
X48.939Y136.09
X48.939Y131.01
X48.939Y125.93
X48.939Y123.39
X48.939Y120.85
X48.939Y108.15
X48.939Y105.61
X48.939Y103.07
X48.939Y100.53
X48.939Y64.97
X48.939Y24.33
X48.939Y4.01
X50.444Y20.015
X51.479Y136.09
X51.479Y125.93
X51.479Y123.39
X51.479Y120.85
X51.479Y110.69
X51.479Y105.61
X51.479Y103.07
X51.479Y100.53
X51.479Y95.45
X51.479Y87.83
X51.479Y85.29
X51.479Y82.75
X51.479Y80.21
X51.479Y77.67
X51.479Y75.13
X51.479Y70.05
X51.479Y4.01
X51.714Y22.555
X52.095Y18.237
X52.349Y18.999
X54.019Y136.09
X54.019Y123.39
X54.019Y120.85
X54.019Y110.69
X54.019Y72.59
X54.019Y70.05
X54.019Y67.51
X54.019Y4.01
X55.016Y50.495
X56.54Y48.971
X56.559Y136.09
X56.559Y123.39
X56.559Y113.23
X56.559Y110.69
X56.559Y103.07
X56.559Y97.99
X56.559Y75.13
X56.559Y67.51
X56.559Y4.01
X57.81Y55.067
X58.064Y30.937
X58.485Y33.985
X59.099Y136.09
X59.099Y128.47
X59.099Y125.93
X59.099Y113.23
X59.099Y110.69
X59.099Y103.07
X59.099Y100.53
X59.099Y97.99
X59.099Y75.13
X59.099Y67.51
X59.099Y62.43
X59.099Y44.65
X59.099Y42.11
X59.099Y39.57
X59.099Y37.03
X59.099Y19.25
X59.099Y16.71
X59.099Y11.63
X59.099Y6.55
X59.099Y4.01
X59.334Y114.757
X59.588Y50.749
X61.639Y136.09
X61.639Y131.01
X61.639Y128.47
X61.639Y125.93
X61.639Y123.39
X61.639Y113.23
X61.639Y110.69
X61.639Y103.07
X61.639Y97.99
X61.639Y75.13
X61.639Y70.05
X61.639Y67.51
X61.639Y9.09
X61.639Y6.55
X61.639Y4.01
X64.179Y136.09
X64.179Y131.01
X64.179Y128.47
X64.179Y125.93
X64.179Y110.69
X64.179Y108.15
X64.179Y105.61
X64.179Y100.53
X64.179Y97.99
X64.179Y67.51
X64.179Y9.09
X64.179Y6.55
X64.179Y4.01
X64.479Y75.13
X66.719Y136.09
X66.719Y131.01
X66.719Y128.47
X66.719Y123.39
X66.719Y115.77
X66.719Y110.69
X66.719Y108.15
X66.719Y105.61
X66.719Y67.51
X66.719Y9.09
X66.719Y6.55
X66.719Y4.01
X69.259Y136.09
X69.259Y131.01
X69.259Y125.93
X69.259Y123.39
X69.259Y115.77
X69.259Y110.69
X69.259Y108.15
X69.259Y105.61
X69.259Y70.05
X69.259Y67.51
X69.259Y9.09
X69.259Y6.55
X69.259Y4.01
X71.018Y134.366
X71.272Y88.305
X71.272Y85.765
X71.799Y136.09
X71.799Y128.47
X71.799Y125.93
X71.799Y123.39
X71.799Y120.85
X71.799Y118.31
X71.799Y113.23
X71.799Y110.69
X71.799Y108.15
X71.799Y105.61
X71.799Y70.05
X71.799Y67.51
X71.799Y52.27
X71.799Y9.09
X71.799Y6.55
X71.799Y4.01
X73.812Y88.305
X74.339Y136.09
X74.339Y128.47
X74.339Y125.93
X74.339Y123.39
X74.339Y120.85
X74.339Y115.77
X74.339Y113.23
X74.339Y110.69
X74.339Y108.15
X74.339Y105.61
X74.339Y64.909
X74.339Y49.73
X74.339Y9.09
X74.339Y6.55
X74.339Y4.01
X76.352Y80.685
X76.879Y136.09
X76.879Y125.93
X76.879Y123.39
X76.879Y118.31
X76.879Y67.51
X76.879Y62.43
X76.879Y52.27
X76.879Y49.73
X76.879Y9.09
X76.879Y6.55
X76.879Y4.01
X78.892Y85.765
X78.892Y83.225
X78.892Y73.065
X79.288Y64.371
X79.419Y136.09
X79.419Y120.85
X79.419Y118.31
X79.419Y115.77
X79.419Y113.23
X79.419Y110.69
X79.419Y108.15
X79.419Y105.61
X79.419Y67.51
X79.419Y59.89
X79.419Y57.35
X79.419Y54.81
X79.419Y52.27
X79.419Y49.73
X79.419Y9.09
X79.419Y6.55
X79.419Y4.01
X81.432Y85.765
X81.432Y83.225
X81.432Y78.145
X81.478Y64.371
X81.959Y136.09
X81.959Y133.55
X81.959Y67.51
X81.959Y59.89
X81.959Y57.35
X81.959Y54.81
X81.959Y52.27
X81.959Y9.09
X81.959Y6.55
X81.959Y4.01
X83.972Y88.305
X83.972Y83.225
X83.972Y80.685
X83.972Y78.145
X83.972Y73.065
X84.499Y136.09
X84.499Y133.55
X84.499Y123.39
X84.499Y120.85
X84.499Y118.31
X84.499Y115.77
X84.499Y113.23
X84.499Y110.69
X84.499Y108.15
X84.499Y105.61
X84.499Y67.51
X84.499Y52.27
X84.499Y9.09
X84.499Y4.01
X86.512Y83.225
X86.512Y80.685
X86.512Y78.145
X86.512Y75.605
X86.512Y73.065
X87.039Y136.09
X87.039Y133.55
X87.039Y123.39
X87.039Y120.85
X87.039Y118.31
X87.039Y115.77
X87.039Y113.23
X87.039Y110.69
X87.039Y108.15
X87.039Y105.61
X87.039Y67.51
X87.039Y59.89
X87.039Y52.27
X87.039Y49.73
X87.039Y37.03
X87.039Y21.79
X87.039Y9.09
X88.036Y5.41
X89.579Y136.09
X89.579Y133.55
X89.579Y123.39
X89.579Y120.85
X89.579Y118.31
X89.579Y115.77
X89.579Y113.23
X89.579Y110.69
X89.579Y108.15
X89.579Y105.61
X89.579Y70.05
X89.579Y62.43
X89.579Y57.35
X89.579Y54.81
X89.579Y49.73
X89.579Y37.03
X89.579Y9.09
X89.579Y6.55
X89.579Y4.01
X91.592Y90.845
X91.592Y88.305
X91.592Y85.765
X91.592Y83.225
X91.592Y80.685
X91.592Y78.145
X91.592Y75.605
X91.592Y73.065
X92.119Y136.09
X92.119Y133.55
X92.119Y131.01
X92.119Y128.47
X92.119Y123.39
X92.119Y120.85
X92.119Y118.31
X92.119Y115.77
X92.119Y113.23
X92.119Y110.69
X92.119Y108.15
X92.119Y105.61
X92.119Y70.05
X92.119Y62.43
X92.119Y57.35
X92.119Y54.81
X92.119Y49.73
X92.119Y37.03
X92.119Y9.09
X92.119Y4.01
X92.119Y1.47
X94.132Y90.845
X94.132Y88.305
X94.132Y85.765
X94.132Y83.225
X94.132Y80.685
X94.132Y78.145
X94.132Y75.605
X94.132Y73.065
X94.659Y136.09
X94.659Y125.93
X94.659Y123.39
X94.659Y120.85
X94.659Y118.31
X94.659Y115.77
X94.659Y113.23
X94.659Y110.69
X94.659Y108.15
X94.659Y105.61
X94.659Y70.05
X94.659Y67.51
X94.659Y64.97
X94.659Y49.73
X94.659Y47.19
X94.659Y44.65
X94.659Y39.57
X94.659Y37.03
X94.659Y34.49
X94.659Y31.95
X94.659Y26.87
X94.659Y24.33
X94.659Y14.17
X94.659Y6.55
X94.659Y4.01
X94.659Y1.47
X96.799Y10.617
X97.199Y136.09
X97.199Y120.85
X97.199Y118.31
X97.199Y115.77
X97.199Y113.23
X97.199Y110.69
X97.199Y108.15
X97.199Y105.61
X97.199Y70.05
X97.199Y67.51
X97.199Y62.43
X97.199Y49.73
X97.199Y47.19
X97.199Y44.65
X97.199Y42.11
X97.199Y39.57
X97.199Y37.03
X97.199Y34.49
X97.199Y31.95
X97.199Y29.41
X97.199Y26.87
X97.199Y19.25
X97.199Y1.47
X99.739Y136.09
X99.739Y125.93
X99.739Y123.39
X99.739Y120.85
X99.739Y118.31
X99.739Y115.77
X99.739Y113.23
X99.739Y110.69
X99.739Y108.15
X99.739Y105.61
X99.739Y21.79
T2
X23.901Y73.482
X26.441Y73.482
T3
X65.837Y70.413
X67.107Y70.413
X68.377Y70.413
T4
X7.518Y20.269
X7.518Y14.935
X11.328Y10.156
X11.328Y6.756
X15.138Y20.269
X15.138Y14.935
X16.408Y9.855
X22.895Y84.287
X22.895Y76.667
X24.028Y9.855
X25.435Y84.287
X25.435Y76.667
X27.975Y84.287
X27.975Y76.667
X30.515Y84.287
X30.515Y76.667
X31.394Y45.669
X31.394Y42.367
X31.394Y39.065
X31.394Y35.763
X33.68Y80.848
X39.014Y45.669
X39.014Y42.367
X39.014Y39.065
X39.014Y35.763
X41.3Y80.848
X57.607Y76.708
X61.417Y73.254
X61.417Y65.634
X65.227Y76.708
X68.58Y81.432
X68.58Y73.812
X71.272Y80.467
X71.526Y91.643
X71.526Y84.023
X73.68Y75.673
X73.68Y73.133
X76.86Y60.655
X76.86Y57.353
X76.86Y54.051
X78.892Y80.467
X81.3Y75.673
X81.3Y73.133
X83.591Y5.918
X84.48Y60.655
X84.48Y57.353
X84.48Y54.051
X91.211Y5.918
T5
X30.124Y90.119
X30.124Y87.579
X81.94Y87.833
X81.94Y80.213
X89.56Y65.989
X89.56Y59.385
X89.56Y52.781
X92.1Y65.989
X92.1Y59.385
X92.1Y52.781
X94.767Y17.221
X97.307Y17.221
T6
X4.216Y20.015
X4.216Y17.475
X4.216Y14.935
X5.994Y48.961
X5.994Y46.421
X5.994Y43.881
X5.994Y41.341
X9.804Y61.925
X9.804Y59.385
X9.804Y56.845
X9.804Y54.305
X9.804Y51.765
X9.804Y49.225
X9.804Y46.685
X9.804Y44.145
X9.804Y41.605
X9.804Y39.065
X9.804Y36.525
X9.804Y33.985
X9.804Y31.445
X9.804Y28.905
X9.804Y26.365
X12.344Y61.925
X12.344Y59.385
X12.344Y56.845
X12.344Y54.305
X12.344Y51.765
X12.344Y49.225
X12.344Y46.685
X12.344Y44.145
X12.344Y41.605
X12.344Y39.065
X12.344Y36.525
X12.344Y33.985
X12.344Y31.445
X12.344Y28.905
X12.344Y26.365
X12.623Y112.7
X12.623Y110.16
X12.623Y107.62
X12.623Y105.08
X12.623Y102.54
X12.623Y100.0
X15.392Y124.409
X17.17Y61.925
X17.17Y59.385
X17.17Y56.845
X17.17Y54.305
X17.17Y51.765
X17.17Y49.225
X17.17Y46.685
X17.17Y44.145
X17.17Y41.605
X17.17Y39.065
X17.17Y36.525
X17.17Y33.985
X17.17Y31.445
X17.17Y28.905
X17.17Y26.365
X17.932Y124.409
X17.932Y120.599
X19.71Y61.925
X19.71Y59.385
X19.71Y56.845
X19.71Y54.305
X19.71Y51.765
X19.71Y49.225
X19.71Y46.685
X19.71Y44.145
X19.71Y41.605
X19.71Y39.065
X19.71Y36.525
X19.71Y33.985
X19.71Y31.445
X19.71Y28.905
X19.71Y26.365
X20.472Y124.409
X20.472Y120.599
X23.012Y124.409
X25.552Y124.409
X28.092Y124.409
X28.346Y100.025
X28.346Y97.485
X28.346Y94.945
X34.341Y77.216
X36.881Y77.216
X42.57Y61.925
X42.57Y59.385
X42.57Y56.845
X42.57Y54.305
X42.57Y51.765
X42.57Y49.225
X42.57Y46.685
X42.57Y44.145
X42.57Y41.605
X42.57Y39.065
X42.57Y36.525
X42.57Y33.985
X42.57Y31.445
X42.57Y28.905
X42.57Y26.365
X45.11Y61.925
X45.11Y59.385
X45.11Y56.845
X45.11Y54.305
X45.11Y51.765
X45.11Y49.225
X45.11Y46.685
X45.11Y44.145
X45.11Y41.605
X45.11Y39.065
X45.11Y36.525
X45.11Y33.985
X45.11Y31.445
X45.11Y28.905
X45.11Y26.365
X48.158Y12.903
X48.158Y10.363
X48.158Y7.823
X49.936Y61.925
X49.936Y59.385
X49.936Y56.845
X49.936Y54.305
X49.936Y51.765
X49.936Y49.225
X49.936Y46.685
X49.936Y44.145
X49.936Y41.605
X49.936Y39.065
X49.936Y36.525
X49.936Y33.985
X49.936Y31.445
X49.936Y28.905
X49.936Y26.365
X50.698Y12.903
X50.698Y10.363
X50.698Y7.823
X51.333Y131.902
X52.476Y61.925
X52.476Y59.385
X52.476Y56.845
X52.476Y54.305
X52.476Y51.765
X52.476Y49.225
X52.476Y46.685
X52.476Y44.145
X52.476Y41.605
X52.476Y39.065
X52.476Y36.525
X52.476Y33.985
X52.476Y31.445
X52.476Y28.905
X52.476Y26.365
X53.238Y12.903
X53.238Y10.363
X53.238Y7.823
X53.873Y131.902
X53.873Y127.076
X55.778Y12.903
X55.778Y10.363
X55.778Y7.823
X56.413Y131.902
X56.413Y127.076
X58.953Y131.902
X59.842Y120.345
X59.842Y117.805
X60.858Y62.179
X60.858Y59.639
X60.858Y57.099
X60.858Y54.559
X60.858Y46.431
X60.858Y43.891
X60.858Y41.351
X60.858Y38.811
X60.858Y36.271
X60.858Y33.731
X60.858Y31.191
X60.858Y28.651
X60.858Y26.111
X60.858Y23.571
X60.858Y21.031
X60.858Y18.491
X60.858Y15.951
X60.858Y13.411
X60.858Y10.871
X62.382Y120.345
X62.382Y117.805
X63.398Y62.179
X63.398Y59.639
X63.398Y57.099
X63.398Y54.559
X63.398Y46.431
X63.398Y43.891
X63.398Y41.351
X63.398Y38.811
X63.398Y36.271
X63.398Y33.731
X63.398Y31.191
X63.398Y28.651
X63.398Y26.111
X63.398Y23.571
X63.398Y21.031
X63.398Y18.491
X63.398Y15.951
X63.398Y13.411
X63.398Y10.871
X64.922Y120.345
X64.922Y117.805
X65.938Y62.179
X65.938Y59.639
X65.938Y57.099
X65.938Y54.559
X65.938Y46.431
X65.938Y43.891
X65.938Y41.351
X65.938Y38.811
X65.938Y36.271
X65.938Y33.731
X65.938Y31.191
X65.938Y28.651
X65.938Y26.111
X65.938Y23.571
X65.938Y21.031
X65.938Y18.491
X65.938Y15.951
X65.938Y13.411
X65.938Y10.871
X68.478Y62.179
X68.478Y59.639
X68.478Y57.099
X68.478Y54.559
X68.478Y46.431
X68.478Y43.891
X68.478Y41.351
X68.478Y38.811
X68.478Y36.271
X68.478Y33.731
X68.478Y31.191
X68.478Y28.651
X68.478Y26.111
X68.478Y23.571
X68.478Y21.031
X68.478Y18.491
X68.478Y15.951
X68.478Y13.411
X68.478Y10.871
X71.018Y46.431
X71.018Y43.891
X71.018Y41.351
X71.018Y38.811
X71.018Y36.271
X71.018Y33.731
X71.018Y31.191
X71.018Y28.651
X71.018Y26.111
X71.018Y23.571
X71.018Y21.031
X71.018Y18.491
X71.018Y15.951
X71.018Y13.411
X71.018Y10.871
X72.796Y101.549
X73.558Y69.037
X73.558Y46.431
X73.558Y43.891
X73.558Y41.351
X73.558Y38.811
X73.558Y36.271
X73.558Y33.731
X73.558Y31.191
X73.558Y28.651
X73.558Y26.111
X73.558Y23.571
X73.558Y21.031
X73.558Y18.491
X73.558Y15.951
X73.558Y13.411
X73.558Y10.871
X76.098Y46.431
X76.098Y43.891
X76.098Y41.351
X76.098Y38.811
X76.098Y36.271
X76.098Y33.731
X76.098Y31.191
X76.098Y28.651
X76.098Y26.111
X76.098Y23.571
X76.098Y21.031
X76.098Y18.491
X76.098Y15.951
X76.098Y13.411
X76.098Y10.871
X77.114Y101.534
X77.114Y98.994
X77.114Y96.454
X78.638Y46.431
X78.638Y43.891
X78.638Y41.351
X78.638Y38.811
X78.638Y36.271
X78.638Y33.731
X78.638Y31.191
X78.638Y28.651
X78.638Y26.111
X78.638Y23.571
X78.638Y21.031
X78.638Y18.491
X78.638Y15.951
X78.638Y13.411
X78.638Y10.871
X81.178Y101.295
X81.178Y98.755
X81.178Y96.215
X81.178Y46.431
X81.178Y43.891
X81.178Y41.351
X81.178Y38.811
X81.178Y36.271
X81.178Y33.731
X81.178Y31.191
X81.178Y28.651
X81.178Y26.111
X81.178Y23.571
X81.178Y21.031
X81.178Y18.491
X81.178Y15.951
X81.178Y13.411
X81.178Y10.871
X82.245Y128.778
X83.718Y46.431
X83.718Y43.891
X83.718Y41.351
X83.718Y38.811
X83.718Y36.271
X83.718Y33.731
X83.718Y31.191
X83.718Y28.651
X83.718Y26.111
X83.718Y23.571
X83.718Y21.031
X83.718Y18.491
X83.718Y15.951
X83.718Y13.411
X83.718Y10.871
X84.785Y128.778
X87.325Y128.778
X87.948Y32.715
X87.948Y30.175
X87.948Y27.635
X87.948Y25.095
X88.036Y46.431
X88.036Y43.891
X88.036Y41.351
X88.036Y38.811
X88.036Y18.745
X88.036Y16.205
X88.036Y13.665
X88.036Y11.125
X89.865Y128.778
X90.488Y32.715
X90.488Y30.175
X90.488Y27.635
X90.488Y25.095
X90.576Y46.431
X90.576Y43.891
X90.576Y41.351
X90.576Y38.811
X90.576Y18.745
X90.576Y16.205
X90.576Y13.665
X90.576Y11.125
T7
X35.308Y105.287
X35.308Y100.787
X41.808Y105.287
X41.808Y100.787
X45.162Y113.197
X45.162Y108.697
X45.162Y97.449
X45.162Y92.949
X51.662Y113.197
X51.662Y108.697
X51.662Y97.449
X51.662Y92.949
X55.12Y105.359
X55.12Y100.859
X61.62Y105.359
X61.62Y100.859
X76.89Y90.703
X76.89Y88.163
X76.89Y85.623
X77.726Y69.596
X77.726Y65.096
X84.226Y69.596
X84.226Y65.096
T8
X12.852Y91.135
X12.852Y86.135
X12.852Y81.135
T9
X89.49Y89.533
X89.49Y84.453
X89.49Y79.373
X89.49Y74.293
X89.56Y100.787
X89.56Y95.787
M30
